SplineFontDB: 3.0
FontName: Midway-Bold
FullName: Midway Bold
FamilyName: Midway
Weight: Bold
Copyright: Copyright 2011 Canonical Ltd.\nCopyright 2015 Yuta Taniguchi\nLicensed under the Ubuntu Font Licence 1.0
Version: 0.1
ItalicAngle: 0
UnderlinePosition: -156
UnderlineWidth: 23
Ascent: 800
Descent: 200
InvalidEm: 0
sfntRevision: 0x0000199a
LayerCount: 2
Layer: 0 1 "Back" 1
Layer: 1 1 "Fore" 0
XUID: [1021 935 -1301570125 14422120]
StyleMap: 0x0000
FSType: 0
OS2Version: 3
OS2_WeightWidthSlopeOnly: 0
OS2_UseTypoMetrics: 0
CreationTime: 1304432203
ModificationTime: 1558200072
PfmFamily: 49
TTFWeight: 700
TTFWidth: 5
LineGap: 0
VLineGap: 0
Panose: 2 11 8 9 3 6 2 3 2 4
OS2TypoAscent: 0
OS2TypoAOffset: 1
OS2TypoDescent: 0
OS2TypoDOffset: 1
OS2TypoLinegap: 0
OS2WinAscent: 0
OS2WinAOffset: 1
OS2WinDescent: 0
OS2WinDOffset: 1
HheadAscent: 0
HheadAOffset: 1
HheadDescent: 0
HheadDOffset: 1
OS2SubXSize: 824
OS2SubYSize: 766
OS2SubXOff: 0
OS2SubYOff: 165
OS2SupXSize: 824
OS2SupYSize: 766
OS2SupXOff: 0
OS2SupYOff: 562
OS2StrikeYSize: 59
OS2StrikeYPos: 294
OS2CapHeight: 729
OS2XHeight: 554
OS2Vendor: 'DAMA'
OS2CodePages: 2000009f.56010000
OS2UnicodeRanges: e00002ff.5000205b.00000000.00000000
Lookup: 1 0 0 "'locl' Localized Forms in Latin lookup 0" { "'locl' Localized Forms in Latin lookup 0 subtable"  } ['locl' ('latn' <'AZE ' > ) ]
Lookup: 1 0 0 "'locl' Localized Forms in Latin lookup 1" { "'locl' Localized Forms in Latin lookup 1 subtable"  } ['locl' ('latn' <'TRK ' > ) ]
Lookup: 1 0 0 "'locl' Localized Forms in Latin lookup 2" { "'locl' Localized Forms in Latin lookup 2 subtable"  } ['locl' ('latn' <'CRT ' > ) ]
Lookup: 1 0 0 "'locl' Localized Forms in Cyrillic lookup 3" { "'locl' Localized Forms in Cyrillic lookup 3 subtable"  } ['locl' ('cyrl' <'BGR ' > ) ]
Lookup: 1 0 0 "'locl' Localized Forms in Cyrillic lookup 4" { "'locl' Localized Forms in Cyrillic lookup 4 subtable"  } ['locl' ('cyrl' <'MKD ' > ) ]

StartChar: SF030000.001
Encoding: 65536 -1 0
Width: 588
VWidth: 1177
Flags: W
LayerCount: 2
Fore
SplineSet
49 0 m 1
 49 883 l 1
 49 893 l 1
 59 893 l 1
 530 893 l 1
 540 893 l 1
 540 883 l 1
 540 0 l 1
 540 -10 l 1
 530 -10 l 1
 59 -10 l 1
 49 -10 l 1
 49 0 l 1
461 69 m 1
 461 814 l 1
 128 814 l 1
 128 69 l 1
 461 69 l 1
EndSplineSet
EndChar

StartChar: exclam
Encoding: 33 33 4
Width: 588
VWidth: 1177
Flags: W
LayerCount: 2
Fore
SplineSet
388 536 m 2
 388 525.451687712 388 525.451687712 387.905835567 515.405251634 c 0
 387.811671135 505.358815556 387.811671135 505.358815556 387.623149064 495.803688918 c 0
 387.434626994 486.24856228 387.434626994 486.24856228 387.151397504 477.186611475 c 0
 386.868168015 468.12466067 386.868168015 468.12466067 386.490282349 459.559252249 c 0
 385.734733973 442.433489047 385.734733973 442.433489047 384.600737358 426.053533354 c 0
 383.466740743 409.67357766 383.466740743 409.67357766 381.953500136 394.036758051 c 0
 378.929667504 362.790487528 378.929667504 362.790487528 374.392903636 332.040391267 c 0
 369.923273162 301.746229169 369.923273162 301.746229169 365.945054529 263.953152155 c 2
 365.00261746 255 l 1
 356 255 l 1
 236 255 l 1
 227.45506102 255 l 1
 226.122370347 263.440374265 l 2
 220.114451433 301.490527384 220.114451433 301.490527384 215.603722633 332.563443608 c 0
 211.082677628 363.708420304 211.082677628 363.708420304 207.565199285 394.359940902 c 0
 204.02518659 425.208622955 204.02518659 425.208622955 202.509717651 459.559252249 c 0
 201.75419981 476.684323303 201.75419981 476.684323303 201.377099905 495.790877263 c 0
 201 514.897431222 201 514.897431222 201 536 c 2
 201 729 l 1
 201 739 l 1
 211 739 l 1
 378 739 l 1
 388 739 l 1
 388 729 l 1
 388 536 l 2
402 84 m 0
 402 33.4337111725 402 33.4337111725 368.549305384 4.4431091721 c 0
 335.730333263 -24 335.730333263 -24 294 -24 c 0
 280.163976863 -24 280.163976863 -24 267.216286265 -20.7920443769 c 0
 254.268595668 -17.5840887538 254.268595668 -17.5840887538 242.411830879 -11.2438337521 c 0
 230.555066089 -4.90357875054 230.555066089 -4.90357875054 219.887990153 4.4979119048 c 0
 203.475901727 18.962803399 203.475901727 18.962803399 195.237950864 39.0682731216 c 0
 187 59.1737428441 187 59.1737428441 187 84 c 0
 187 96.1339531075 187 96.1339531075 189.093416431 107.160405207 c 0
 191.186832861 118.186857306 191.186832861 118.186857306 195.35293104 128.017526913 c 0
 199.519029219 137.84819652 199.519029219 137.84819652 205.838946394 146.428817651 c 0
 212.158863569 155.009438782 212.158863569 155.009438782 220.523515799 162.119393178 c 0
 253.324229708 190 253.324229708 190 294 190 c 0
 335.675770292 190 335.675770292 190 368.476484201 162.119393178 c 0
 402 133.624404748 402 133.624404748 402 84 c 0
EndSplineSet
EndChar

StartChar: quotedbl
Encoding: 34 34 5
Width: 588
VWidth: 1177
Flags: W
LayerCount: 2
Fore
SplineSet
499 800 m 1
 499 742 l 2
 499 737.082403579 499 737.082403579 498.915379739 732.000554338 c 0
 498.830759479 726.918705098 498.830759479 726.918705098 498.661634738 721.677120595 c 0
 498.492509998 716.435536092 498.492509998 716.435536092 498.239290484 711.032184254 c 0
 497.986070969 705.628832415 497.986070969 705.628832415 497.648508515 700.061217052 c 0
 497.310946061 694.493601689 497.310946061 694.493601689 496.889838583 688.767172056 c 0
 496.468731105 683.040742423 496.468731105 683.040742423 495.96346649 677.145988587 c 0
 492.93474487 641.810903019 492.93474487 641.810903019 487.388367738 605.009971985 c 0
 481.88536033 568.490013736 481.88536033 568.490013736 476.382102373 532.968970055 c 0
 470.848653211 497.253070918 470.848653211 497.253070918 464.805806757 467.038838649 c 2
 463.198039027 459 l 1
 455 459 l 1
 370 459 l 1
 361.74990103 459 l 1
 360.182201494 467.099780934 l 2
 354.161862496 498.204865756 354.161862496 498.204865756 348.143777452 533.310361849 c 0
 342.114299197 568.482318338 342.114299197 568.482318338 337.092526046 605.142811787 c 0
 332.067652382 641.82438953 332.067652382 641.82438953 328.548249998 677.518841549 c 0
 325 713.50823439 325 713.50823439 325 743 c 2
 325 800 l 1
 325 810 l 1
 335 810 l 1
 489 810 l 1
 499 810 l 1
 499 800 l 1
267 800 m 1
 267 742 l 2
 267 737.082403579 267 737.082403579 266.915379739 732.000554338 c 0
 266.830759479 726.918705098 266.830759479 726.918705098 266.661634738 721.677120595 c 0
 266.492509998 716.435536092 266.492509998 716.435536092 266.239290484 711.032184254 c 0
 265.986070969 705.628832415 265.986070969 705.628832415 265.648508515 700.061217052 c 0
 265.310946061 694.493601689 265.310946061 694.493601689 264.889838583 688.767172056 c 0
 264.468731105 683.040742423 264.468731105 683.040742423 263.96346649 677.145988587 c 0
 260.93474487 641.810903019 260.93474487 641.810903019 255.388367738 605.009971985 c 0
 249.865402274 568.357564814 249.865402274 568.357564814 243.336474877 532.698955304 c 0
 236.821793423 497.118771979 236.821793423 497.118771979 230.805806757 467.038838649 c 2
 229.198039027 459 l 1
 221 459 l 1
 138 459 l 1
 129.74990103 459 l 1
 128.182201494 467.099780934 l 2
 122.161862496 498.204865756 122.161862496 498.204865756 116.143777452 533.310361849 c 0
 110.114299197 568.482318338 110.114299197 568.482318338 105.092526046 605.142811787 c 0
 100.076776763 641.757781552 100.076776763 641.757781552 96.0628813467 677.380324659 c 0
 94.0337364137 695.388985939 94.0337364137 695.388985939 93.0168682068 711.785683762 c 0
 92 728.182381585 92 728.182381585 92 743 c 2
 92 800 l 1
 92 810 l 1
 102 810 l 1
 257 810 l 1
 267 810 l 1
 267 800 l 1
EndSplineSet
EndChar

StartChar: numbersign
Encoding: 35 35 6
Width: 588
VWidth: 1177
Flags: W
LayerCount: 2
Fore
SplineSet
154.720645862 560 m 1
 187.17565485 730.866076732 l 1
 188.720645862 739 l 1
 197 739 l 1
 317 739 l 1
 329.144675569 739 l 1
 326.814151083 727.081031911 l 1
 294.144675569 560 l 1
 367.720645862 560 l 1
 400.17565485 730.866076732 l 1
 401.720645862 739 l 1
 410 739 l 1
 530 739 l 1
 542.07823682 739 l 1
 539.82434515 727.133923268 l 1
 508.07823682 560 l 1
 569 560 l 1
 579 560 l 1
 579 550 l 1
 579 430 l 1
 579 420 l 1
 569 420 l 1
 480.322832535 420 l 1
 460.015140227 310 l 1
 569 310 l 1
 579 310 l 1
 579 300 l 1
 579 180 l 1
 579 170 l 1
 569 170 l 1
 433.287942702 170 l 1
 400.826241017 -1.85606774758 l 1
 399.287942702 -10 l 1
 391 -10 l 1
 271 -10 l 1
 258.93427952 -10 l 1
 261.173758983 1.85606774758 l 1
 292.93427952 170 l 1
 219.333333333 170 l 1
 187.836065574 -1.80327868852 l 1
 186.333333333 -10 l 1
 178 -10 l 1
 58 -10 l 1
 45.93427952 -10 l 1
 48.1737589834 1.85606774758 l 1
 79.93427952 170 l 1
 21 170 l 1
 11 170 l 1
 11 180 l 1
 11 300 l 1
 11 310 l 1
 21 310 l 1
 105.739844389 310 l 1
 126.893690542 420 l 1
 21 420 l 1
 11 420 l 1
 11 430 l 1
 11 550 l 1
 11 560 l 1
 21 560 l 1
 154.720645862 560 l 1
246.106309458 310 m 1
 320.613927843 310 l 1
 340.075466305 420 l 1
 267.260155611 420 l 1
 246.106309458 310 l 1
EndSplineSet
EndChar

StartChar: dollar
Encoding: 36 36 7
Width: 628
VWidth: 1177
Flags: W
LayerCount: 2
Fore
SplineSet
234.160690561 -104 m 1,0,-1
 234.160690561 11.947265625 l 1,1,2
 160.177370495 19.265625 160.177370495 19.265625 116.50390625 35.0986328125 c 0,3,4
 93.302734375 43.5126953125 93.302734375 43.5126953125 76.1220703125 51.01953125 c 128,-1,5
 58.94140625 58.52734375 58.94140625 58.52734375 47.326171875 65.390625 c 2,6,-1
 40 69.7197265625 l 1,7,-1
 43.1005859375 77.6435546875 l 1,8,-1
 88.1005859375 192.643554688 l 1,9,-1
 92.0068359375 202.625976562 l 1,10,-1
 101.694335938 198.037109375 l 2,11,12
 120.274414062 189.236328125 120.274414062 189.236328125 142.029296875 181.247070312 c 0,13,14
 164.043003924 173.2578125 164.043003924 173.2578125 190.633971153 166.111328125 c 0,15,16
 216.876457527 159.059570312 216.876457527 159.059570312 244.573381958 155.529296875 c 128,-1,17
 272.270306389 152 272.270306389 152 301.469663246 152 c 0,18,19
 368.801589759 152 368.801589759 152 393.915165102 166.9140625 c 0,20,21
 416.856473563 180.537109375 416.856473563 180.537109375 416.856473563 211.189453125 c 0,22,23
 416.856473563 228.62890625 416.856473563 228.62890625 407.967081709 240.739257812 c 0,24,25
 398.523667898 253.603515625 398.523667898 253.603515625 379.573195569 264.63671875 c 0,26,27
 369.747913517 270.356445312 369.747913517 270.356445312 357.58968778 275.586914062 c 128,-1,28
 345.4325054 280.817382812 345.4325054 280.817382812 330.99663384 285.5 c 0,29,30
 301.06379782 295.208984375 301.06379782 295.208984375 262.620308119 307.817382812 c 0,31,32
 225.828450732 319.610351562 225.828450732 319.610351562 190.088296042 334.856445312 c 0,33,34
 171.877563012 342.625 171.877563012 342.625 155.830078125 351.927734375 c 0,35,36
 140.541992188 361.23046875 140.541992188 361.23046875 127.041015625 372.063476562 c 0,37,38
 113.227539062 383.147460938 113.227539062 383.147460938 102.182617188 396.834960938 c 128,-1,39
 91.13671875 410.521484375 91.13671875 410.521484375 82.9404296875 426.684570312 c 0,40,41
 66.4130859375 459.276367188 66.4130859375 459.276367188 66.4130859375 505.19921875 c 0,42,43
 66.4130859375 538.525390625 66.4130859375 538.525390625 75.26953125 569.865234375 c 0,44,45
 78.265625 580.469726562 78.265625 580.469726562 82.5673828125 590.529296875 c 128,-1,46
 86.869140625 600.58984375 86.869140625 600.58984375 92.458984375 610.069335938 c 128,-1,47
 98.048828125 619.548828125 98.048828125 619.548828125 104.913085938 628.430664062 c 0,48,49
 109.071289062 633.809570312 109.071289062 633.809570312 113.76171875 638.896484375 c 128,-1,50
 118.452148438 643.984375 118.452148438 643.984375 123.638671875 648.749023438 c 128,-1,51
 128.825195312 653.513671875 128.825195312 653.513671875 134.532226562 657.984375 c 128,-1,52
 140.23828125 662.455078125 140.23828125 662.455078125 146.42578125 666.607421875 c 128,-1,53
 152.61328125 670.759765625 152.61328125 670.759765625 159.307617188 674.616210938 c 0,54,55
 191.900605156 692.217773438 191.900605156 692.217773438 237.365879736 702.962890625 c 1,56,-1
 237.365879736 806 l 1,57,-1
 237.365879736 816 l 1,58,-1
 248.049843655 816 l 1,59,-1
 391.214960159 816 l 1,60,-1
 401.898924077 816 l 1,61,-1
 401.898924077 806 l 1,62,-1
 401.898924077 707.063476562 l 1,63,64
 415.825637982 705.682617188 415.825637982 705.682617188 428.314607523 704.0546875 c 128,-1,65
 440.803577064 702.427734375 440.803577064 702.427734375 452.474555617 700.459960938 c 128,-1,66
 464.145534171 698.491210938 464.145534171 698.491210938 474.833984375 696.196289062 c 0,67,68
 484.9921875 693.900390625 484.9921875 693.900390625 495.053710938 691.14453125 c 0,69,70
 537.744140625 679.456054688 537.744140625 679.456054688 561.400390625 669.170898438 c 2,71,-1
 569.337890625 665.719726562 l 1,72,-1
 567.060546875 657.369140625 l 1,73,-1
 534.060546875 536.369140625 l 1,74,-1
 531.080078125 525.440429688 l 1,75,-1
 520.60546875 529.752929688 l 2,76,77
 504.03515625 536.576171875 504.03515625 536.576171875 484.271484375 542.71484375 c 0,78,79
 463.966076965 548.852539062 463.966076965 548.852539062 439.504599029 554.268554688 c 0,80,81
 427.389150882 556.951171875 427.389150882 556.951171875 415.114069291 558.962890625 c 128,-1,82
 402.838987699 560.974609375 402.838987699 560.974609375 390.393839104 562.31640625 c 128,-1,83
 377.948690509 563.658203125 377.948690509 563.658203125 365.333474909 564.329101562 c 128,-1,84
 352.71825931 565 352.71825931 565 339.931933351 565 c 0,85,86
 325.329124855 565 325.329124855 565 312.945534255 563.798828125 c 128,-1,87
 300.562987011 562.596679688 300.562987011 562.596679688 291.145657096 560.352539062 c 128,-1,88
 281.727283826 558.108398438 281.727283826 558.108398438 274.805661108 555.065429688 c 128,-1,89
 267.885081745 552.0234375 267.885081745 552.0234375 263.340223657 548.180664062 c 0,90,91
 253.297923587 539.69140625 253.297923587 539.69140625 248.537090837 530.233398438 c 128,-1,92
 243.776258087 520.776367188 243.776258087 520.776367188 243.776258087 509.654296875 c 0,93,94
 243.776258087 505.56640625 243.776258087 505.56640625 244.211337477 501.916015625 c 128,-1,95
 244.647460223 498.266601562 244.647460223 498.266601562 245.485274972 495.178710938 c 128,-1,96
 246.324133076 492.08984375 246.324133076 492.08984375 247.486431495 489.497070312 c 128,-1,97
 248.649773269 486.904296875 248.649773269 486.904296875 250.165769321 484.700195312 c 0,98,99
 253.391825614 480.008789062 253.391825614 480.008789062 258.735894285 475.565429688 c 128,-1,100
 264.0789196 471.122070312 264.0789196 471.122070312 271.667246707 467.02734375 c 0,101,102
 288.083407672 458.169921875 288.083407672 458.169921875 310.856735841 449.702148438 c 0,103,104
 322.378514508 445.418945312 322.378514508 445.418945312 336.357396205 440.864257812 c 128,-1,105
 350.336277901 436.310546875 350.336277901 436.310546875 366.716964768 431.5078125 c 2,106,-1
 367.026841456 431.416992188 l 1,107,-1
 367.330458009 431.309570312 l 2,108,109
 383.851997916 425.43359375 383.851997916 425.43359375 399.537809785 419.393554688 c 128,-1,110
 415.224665011 413.354492188 415.224665011 413.354492188 430.102919452 407.138671875 c 128,-1,111
 444.981173893 400.922851562 444.981173893 400.922851562 459.028917076 394.540039062 c 128,-1,112
 473.256835938 388.048828125 473.256835938 388.048828125 485.390625 380.880859375 c 128,-1,113
 497.5234375 373.712890625 497.5234375 373.712890625 508.482421875 365.817382812 c 128,-1,114
 519.44140625 357.921875 519.44140625 357.921875 529.146484375 349.340820312 c 0,115,116
 558.615234375 323.282226562 558.615234375 323.282226562 575.4609375 288.5234375 c 0,117,118
 583.978515625 270.950195312 583.978515625 270.950195312 588.196289062 250.474609375 c 128,-1,119
 592.413085938 230 592.413085938 230 592.413085938 206.7109375 c 0,120,121
 592.413085938 174.185546875 592.413085938 174.185546875 582.474609375 142.6953125 c 0,122,123
 572.404296875 110.7890625 572.404296875 110.7890625 549.678710938 83.591796875 c 128,-1,124
 526.92578125 56.3603515625 526.92578125 56.3603515625 489.17578125 36.5068359375 c 0,125,126
 453.548168789 18.4033203125 453.548168789 18.4033203125 399.762131294 10.05078125 c 1,127,-1
 399.762131294 -104 l 1,128,-1
 399.762131294 -114 l 1,129,-1
 389.078167375 -114 l 1,130,-1
 244.844654479 -114 l 1,131,-1
 234.160690561 -114 l 1,132,-1
 234.160690561 -104 l 1,0,-1
EndSplineSet
EndChar

StartChar: percent
Encoding: 37 37 8
Width: 628
VWidth: 1177
Flags: W
LayerCount: 2
Fore
SplineSet
131.414539907 -10 m 1,0,-1
 125.743823696 -10 l 1,1,-1
 20.5576171875 -10 l 1,2,-1
 2 -10 l 1,3,-1
 12.205078125 5.4990234375 l 1,4,-1
 511.581697784 734.499023438 l 1,5,-1
 514.700694468 739 l 1,6,-1
 520.371410679 739 l 1,7,-1
 625.557617188 739 l 1,8,-1
 644.115234375 739 l 1,9,-1
 633.909179688 723.500976562 l 1,10,-1
 134.532508915 -5.4990234375 l 1,11,-1
 131.414539907 -10 l 1,0,-1
340.710007973 92.33984375 m 128,-1,13
 330.950168927 126.943359375 330.950168927 126.943359375 330.950168927 172.086914062 c 0,14,15
 330.950168927 263.006835938 330.950168927 263.006835938 370.467394454 310.897460938 c 0,16,17
 410.98352106 360 410.98352106 360 480.382481864 360 c 0,18,19
 549.50390625 360 549.50390625 360 588.005859375 310.877929688 c 0,20,21
 625.557617188 262.96875 625.557617188 262.96875 625.557617188 172.012695312 c 128,-1,22
 625.557617188 81.029296875 625.557617188 81.029296875 587.973632812 33.5947265625 c 0,23,24
 549.471679688 -15 549.471679688 -15 480.382481864 -15 c 0,25,26
 457.56088076 -15 457.56088076 -15 437.600329661 -9.427734375 c 128,-1,27
 417.639778562 -4.0029296875 417.639778562 -4.0029296875 400.770476895 6.826171875 c 128,-1,28
 383.901175227 17.65625 383.901175227 17.65625 370.500280086 33.72265625 c 0,29,12
 350.469847019 57.736328125 350.469847019 57.736328125 340.710007973 92.33984375 c 128,-1,13
507.912894437 135.104492188 m 128,-1,31
 510.900348591 150.34765625 510.900348591 150.34765625 510.900348591 172.092773438 c 0,32,33
 510.900348591 215.609375 510.900348591 215.609375 499.606189266 233.643554688 c 0,34,35
 489.989197185 249 489.989197185 249 479.330141633 249 c 0,36,37
 474.464095736 249 474.464095736 249 469.939238274 245.807617188 c 128,-1,38
 465.414380811 242.615234375 465.414380811 242.615234375 460.855610041 234.489257812 c 128,-1,39
 456.212569838 226.212890625 456.212569838 226.212890625 453.564248766 210.321289062 c 128,-1,40
 450.91695537 194.428710938 450.91695537 194.428710938 450.91695537 172.092773438 c 0,41,42
 450.91695537 150.248046875 450.91695537 150.248046875 453.438872293 134.802734375 c 128,-1,43
 455.961816892 119.357421875 455.961816892 119.357421875 460.329439925 111.573242188 c 0,44,45
 467.943491466 98 467.943491466 98 479.330141633 98 c 0,46,47
 480.707227483 98 480.707227483 98 482.026763477 98.201171875 c 128,-1,48
 483.346299471 98.40234375 483.346299471 98.40234375 484.78812891 98.875 c 128,-1,49
 486.229958349 99.34765625 486.229958349 99.34765625 487.628625395 100.088867188 c 128,-1,50
 489.028320118 100.830078125 489.028320118 100.830078125 490.539003849 101.951171875 c 128,-1,51
 492.049687581 103.072265625 492.049687581 103.072265625 493.535707088 104.526367188 c 128,-1,52
 495.020698919 105.98046875 495.020698919 105.98046875 496.608458351 107.920898438 c 128,-1,53
 498.195190107 109.862304688 498.195190107 109.862304688 499.771645103 112.204101562 c 0,54,30
 504.926467958 119.861328125 504.926467958 119.861328125 507.912894437 135.104492188 c 128,-1,31
22.00390625 523.763671875 m 128,-1,56
 20.5576171875 540.026367188 20.5576171875 540.026367188 20.5576171875 557.987304688 c 0,57,58
 20.5576171875 648.91796875 20.5576171875 648.91796875 57.5673828125 696.818359375 c 0,59,60
 95.568359375 746 95.568359375 746 163.628072047 746 c 0,61,62
 199.467245141 746 199.467245141 746 227.89687422 733.640625 c 128,-1,63
 256.326503299 721.28125 256.326503299 721.28125 276.21717243 696.818359375 c 0,64,65
 295.939302695 672.563476562 295.939302695 672.563476562 305.552184071 637.848632812 c 128,-1,66
 315.165065448 603.134765625 315.165065448 603.134765625 315.165065448 557.987304688 c 0,67,68
 315.165065448 467.046875 315.165065448 467.046875 275.680725553 418.655273438 c 0,69,70
 235.164598947 369 235.164598947 369 163.628072047 369 c 0,71,72
 129.799033223 369 129.799033223 369 103.283203125 381.525390625 c 0,73,74
 77.15625 394.049804688 77.15625 394.049804688 58.078125 418.655273438 c 0,75,76
 50.4384765625 428.508789062 50.4384765625 428.508789062 44.3662109375 440.083007812 c 128,-1,77
 38.2939453125 451.657226562 38.2939453125 451.657226562 33.830078125 464.763671875 c 128,-1,78
 29.365234375 477.870117188 29.365234375 477.870117188 26.408203125 492.685546875 c 128,-1,55
 23.451171875 507.500976562 23.451171875 507.500976562 22.00390625 523.763671875 c 128,-1,56
182.336913768 497.436523438 m 0,79,80
 193.093598541 514.525390625 193.093598541 514.525390625 193.093598541 558.03125 c 128,-1,81
 193.093598541 601.587890625 193.093598541 601.587890625 182.284502292 619.178710938 c 0,82,83
 173.178265187 634 173.178265187 634 163.628072047 634 c 0,84,85
 153.158108879 634 153.158108879 634 144.53693485 619.331054688 c 0,86,87
 134.162545552 601.6796875 134.162545552 601.6796875 134.162545552 558.03125 c 0,88,89
 134.162545552 543.349609375 134.162545552 543.349609375 135.416310281 531.234375 c 128,-1,90
 136.670075011 519.120117188 136.670075011 519.120117188 138.849775823 510.752929688 c 128,-1,91
 141.030504312 502.38671875 141.030504312 502.38671875 144.054954803 497.123046875 c 0,92,93
 152.171539912 483 152.171539912 483 163.628072047 483 c 0,94,95
 173.250202507 483 173.250202507 483 182.336913768 497.436523438 c 0,79,80
EndSplineSet
EndChar

StartChar: ampersand
Encoding: 38 38 9
Width: 588
VWidth: 1177
Flags: W
LayerCount: 2
Fore
SplineSet
420.659481651 -3.57137466267 m 2
 410.510447203 22.9722538955 410.510447203 22.9722538955 398.888781323 46.2624472113 c 1
 362.067529996 16.1686876679 362.067529996 16.1686876679 323.399933648 -0.208176667771 c 0
 312.363953352 -4.88223891075 312.363953352 -4.88223891075 301.389635015 -8.3973395919 c 0
 290.415316678 -11.912440273 290.415316678 -11.912440273 279.485470037 -14.2716016266 c 0
 268.555623396 -16.6307629801 268.555623396 -16.6307629801 257.671809823 -17.81538149 c 0
 246.787996251 -19 246.787996251 -19 236 -19 c 0
 180.995327524 -19 180.995327524 -19 139.645554116 -1.72730984255 c 0
 98.2355461351 15.5705415927 98.2355461351 15.5705415927 70.2992210835 44.5610675896 c 0
 42.3030902534 73.6136561869 42.3030902534 73.6136561869 28.5796648465 112.144812137 c 0
 15 150.272332668 15 150.272332668 15 192 c 0
 15 251.604570625 15 251.604570625 44.7705651786 304.878213577 c 0
 53.9259960608 321.261616208 53.9259960608 321.261616208 66.2842617381 336.305085615 c 0
 78.6425274154 351.348555022 78.6425274154 351.348555022 93.5109220047 364.446934731 c 0
 108.379316594 377.54531444 108.379316594 377.54531444 125.765230979 388.881780542 c 1
 101.042757147 425.116955344 101.042757147 425.116955344 84.3310152366 463.508794868 c 0
 65 507.917883925 65 507.917883925 65 556 c 0
 65 580.472876534 65 580.472876534 69.3373320795 602.290961698 c 0
 73.674664159 624.109046861 73.674664159 624.109046861 82.4093517711 643.166547105 c 0
 91.0819199368 662.088514012 91.0819199368 662.088514012 102.74297936 677.857472576 c 0
 114.404038782 693.62643114 114.404038782 693.62643114 129.003476724 706.102314472 c 0
 157.899271046 730.795084165 157.899271046 730.795084165 193.127736384 743.414235928 c 0
 228.262994419 756 228.262994419 756 265 756 c 0
 299.670771483 756 299.670771483 756 333.250797685 744.456865993 c 0
 350.075491371 738.673377538 350.075491371 738.673377538 365.016081329 730.34364582 c 0
 379.956671287 722.013914102 379.956671287 722.013914102 392.917226327 711.169368049 c 0
 419.0134736 689.333732576 419.0134736 689.333732576 435.44427191 656.472135955 c 0
 443.752625797 639.855428182 443.752625797 639.855428182 447.876312898 620.700305951 c 0
 452 601.545183721 452 601.545183721 452 580 c 0
 452 550.024574111 452 550.024574111 442.930698076 520.975942168 c 0
 433.861396151 491.927310225 433.861396151 491.927310225 415.90412049 464.080520432 c 0
 410.363992516 455.489307487 410.363992516 455.489307487 403.712375997 447.151523721 c 0
 397.060759477 438.813739955 397.060759477 438.813739955 389.500360321 430.947948211 c 0
 381.939961164 423.082156467 381.939961164 423.082156467 373.457523591 415.587070583 c 0
 364.975086017 408.091984698 364.975086017 408.091984698 355.690357867 401.091495839 c 0
 346.405629716 394.091006979 346.405629716 394.091006979 336.393843815 387.584812104 c 0
 326.382057914 381.078617229 326.382057914 381.078617229 315.680004033 375.095935827 c 1
 326.008539396 363.106460318 326.008539396 363.106460318 336.316819255 351.279834601 c 0
 346.625099113 339.453208884 346.625099113 339.453208884 357.502088095 327.112009847 c 0
 377.342057164 304.601275711 377.342057164 304.601275711 397.805443539 281.170172629 c 1
 409.17244081 334.372826014 409.17244081 334.372826014 410.000725716 403.120473184 c 2
 410.135411929 414.299428868 l 1
 421.230252326 412.92403543 l 1
 542.230252326 397.92403543 l 1
 551.134786678 396.820167535 l 1
 550.998852356 387.848502237 l 2
 550.489618985 354.239099754 550.489618985 354.239099754 546.15072434 322.845921378 c 0
 541.811829696 291.452743002 541.811829696 291.452743002 533.627883898 262.297436099 c 0
 526.056761447 235.325312368 526.056761447 235.325312368 516.161490655 210.280212769 c 0
 506.266219862 185.235113169 506.266219862 185.235113169 494.773963687 163.704775401 c 1
 521.17042168 126.222107126 521.17042168 126.222107126 542.291070796 87.2662432025 c 0
 565.298387026 44.8305265998 565.298387026 44.8305265998 577.59737407 2.80898753271 c 2
 581.346346031 -10 l 1
 568 -10 l 1
 430 -10 l 1
 423.117485457 -10 l 1
 420.659481651 -3.57137466267 l 2
330.658133995 147.59143517 m 1
 300.375084907 184.816791856 300.375084907 184.816791856 268.104890775 220.268554423 c 0
 236.025586108 255.510607437 236.025586108 255.510607437 204.596425373 290.576864681 c 1
 197.486427939 284.988387559 197.486427939 284.988387559 191.788588678 279.460394867 c 0
 186.090749417 273.932402175 186.090749417 273.932402175 181.431813144 268.169497344 c 0
 176.772876872 262.406592512 176.772876872 262.406592512 172.422714007 255.609463036 c 0
 158 233.0739724 158 233.0739724 158 199 c 0
 158 193.669647675 158 193.669647675 158.393718718 188.570138077 c 0
 158.787437437 183.470628479 158.787437437 183.470628479 159.571094155 178.609837282 c 0
 160.354750872 173.749046085 160.354750872 173.749046085 161.532479196 169.101269944 c 0
 162.71020752 164.453493803 162.71020752 164.453493803 164.271995041 160.032285471 c 0
 165.833782563 155.611077138 165.833782563 155.611077138 167.790410024 151.384677719 c 0
 169.747037485 147.158278299 169.747037485 147.158278299 172.081845342 143.146296097 c 0
 174.416653199 139.134313895 174.416653199 139.134313895 177.146653883 135.299312934 c 0
 195.156334277 110 195.156334277 110 239 110 c 0
 264.123988692 110 264.123988692 110 289.375537388 119.820046715 c 0
 310.679506521 128.1049236 310.679506521 128.1049236 330.658133995 147.59143517 c 1
210 563 m 0
 210 538.908938693 210 538.908938693 219.796815005 514.183643681 c 0
 222.549927822 507.235311333 222.549927822 507.235311333 226.346652569 499.417950036 c 0
 230.143377317 491.600588738 230.143377317 491.600588738 234.405403587 483.998865956 c 0
 238.667429857 476.397143174 238.667429857 476.397143174 243.116194576 469.440268705 c 1
 272.960312625 488.336191464 272.960312625 488.336191464 289.317568579 516.961389384 c 0
 308 549.655644371 308 549.655644371 308 578 c 0
 308 605.142880771 308 605.142880771 296.090130486 618.284805753 c 0
 284.566985699 631 284.566985699 631 265 631 c 0
 258.656665146 631 258.656665146 631 253.09759088 629.971679026 c 0
 247.538516614 628.943358052 247.538516614 628.943358052 242.642700951 626.850747396 c 0
 237.746885287 624.758136739 237.746885287 624.758136739 233.49188865 621.647550573 c 0
 229.236892013 618.536964406 229.236892013 618.536964406 225.432941462 614.310352684 c 0
 217.897419619 605.937550635 217.897419619 605.937550635 213.948709809 593.217122641 c 0
 210 580.496694647 210 580.496694647 210 563 c 0
EndSplineSet
EndChar

StartChar: quotesingle
Encoding: 39 39 10
Width: 588
VWidth: 1177
Flags: W
LayerCount: 2
Fore
SplineSet
383 800 m 1
 383 722 l 2
 383 716.099362845 383 716.099362845 382.878092155 709.96123744 c 0
 382.756184309 703.823112035 382.756184309 703.823112035 382.512962332 697.458270062 c 0
 382.269740354 691.093428089 382.269740354 691.093428089 381.904967471 684.488465489 c 0
 381.540194589 677.88350289 381.540194589 677.88350289 381.055016544 671.051915789 c 0
 380.569838499 664.220328689 380.569838499 664.220328689 379.96346649 657.145988587 c 0
 376.940801049 621.881558441 376.940801049 621.881558441 371.907473954 585.142811787 c 0
 366.887974881 548.500468552 366.887974881 548.500468552 360.863939238 512.356010127 c 0
 354.837430167 476.196955699 354.837430167 476.196955699 348.805806757 446.038838649 c 2
 347.198039027 438 l 1
 339 438 l 1
 254 438 l 1
 245.74990103 438 l 1
 244.182201494 446.099780934 l 2
 238.146590137 477.283772946 238.146590137 477.283772946 232.617897627 512.968970055 c 0
 227.11463508 548.490028312 227.11463508 548.490028312 221.611632262 585.009971985 c 0
 216.076227666 621.744929761 216.076227666 621.744929761 212.549628098 657.00496281 c 0
 209 692.501243789 209 692.501243789 209 722 c 2
 209 800 l 1
 209 810 l 1
 219 810 l 1
 373 810 l 1
 383 810 l 1
 383 800 l 1
EndSplineSet
EndChar

StartChar: parenleft
Encoding: 40 40 11
Width: 588
VWidth: 1177
Flags: W
LayerCount: 2
Fore
SplineSet
255 313 m 0
 255 241.714121932 255 241.714121932 270.65567776 180.191812391 c 0
 286.311355519 118.66950285 286.311355519 118.66950285 317.571376521 66.6508741532 c 0
 338.473653019 31.8681796679 338.473653019 31.8681796679 364.67215797 1.53057387952 c 0
 390.870662921 -28.8070319089 390.870662921 -28.8070319089 422.458728846 -54.7816718042 c 0
 454.046794771 -80.7563116995 454.046794771 -80.7563116995 491.043460751 -102.364983865 c 2
 500.749643862 -108.034081965 l 1
 493.989215132 -117.014352964 l 1
 426.989215132 -206.014352964 l 1
 421.775924332 -212.939470593 l 1
 414.180812502 -208.762159087 l 2
 251.675422876 -119.384194792 251.675422876 -119.384194792 176.277194474 15.1099423566 c 0
 101 149.388181148 101 149.388181148 101 313 c 0
 101 478.619510834 101 478.619510834 178.784244629 616.902612396 c 0
 256.682245465 755.387947216 256.682245465 755.387947216 419.180812502 844.762159087 c 2
 426.775924332 848.939470593 l 1
 431.989215132 842.014352964 l 1
 498.989215132 753.014352964 l 1
 505.749643862 744.034081965 l 1
 496.043460751 738.364983865 l 2
 440.588722194 705.975490549 440.588722194 705.975490549 396.643598556 662.642434047 c 0
 352.698474917 619.309377545 352.698474917 619.309377545 320.078336888 564.860726099 c 0
 255 456.233727684 255 456.233727684 255 313 c 0
EndSplineSet
Substitution2: "'case' Case-Sensitive Forms lookup 17 subtable" Parenleft
EndChar

StartChar: parenright
Encoding: 41 41 12
Width: 588
VWidth: 1177
Flags: W
LayerCount: 2
Fore
SplineSet
336 313 m 0
 336 456.233727684 336 456.233727684 270.921663112 564.860726099 c 0
 205.740547543 673.659279906 205.740547543 673.659279906 94.9565392487 738.364983865 c 2
 85.2503561384 744.034081965 l 1
 92.0107848683 753.014352964 l 1
 159.010784868 842.014352964 l 1
 164.224075668 848.939470593 l 1
 171.819187498 844.762159087 l 2
 334.30455014 755.395209634 334.30455014 755.395209634 412.702050959 616.926896499 c 0
 491 478.634415075 491 478.634415075 491 313 c 0
 491 149.372806729 491 149.372806729 415.208698592 15.0848632946 c 0
 339.310945773 -119.391692035 339.310945773 -119.391692035 176.819187498 -208.762159087 c 2
 169.224075668 -212.939470593 l 1
 164.010784868 -206.014352964 l 1
 97.0107848683 -117.014352964 l 1
 90.2503561384 -108.034081965 l 1
 99.9565392487 -102.364983865 l 2
 210.746771946 -37.6556444133 210.746771946 -37.6556444133 273.428623479 66.6508741532 c 0
 336 170.773555395 336 170.773555395 336 313 c 0
EndSplineSet
Substitution2: "'case' Case-Sensitive Forms lookup 17 subtable" Parenright
EndChar

StartChar: asterisk
Encoding: 42 42 13
Width: 588
VWidth: 1177
Flags: W
LayerCount: 2
Fore
SplineSet
297.007147561 407.818181843 m 1
 296.247629597 405.564945216 296.247629597 405.564945216 295.463498561 403.268561467 c 0
 288.416154789 382.62991185 288.416154789 382.62991185 280.863291776 362.488765584 c 0
 273.158988587 341.943957082 273.158988587 341.943957082 263.892878023 323.926519874 c 0
 260.817786502 317.947175249 260.817786502 317.947175249 257.861058422 312.600735563 c 0
 254.904330343 307.254295876 254.904330343 307.254295876 252.01217855 302.453289817 c 0
 249.120026757 297.652283757 249.120026757 297.652283757 246.320502943 293.452998038 c 0
 245.966912709 292.956135186 l 1
 223.966912709 263.956135186 l 1
 218.104352445 256.228214838 l 1
 210.201512742 261.85275841 l 1
 99.2015127424 340.85275841 l 1
 90.8023109337 346.830568706 l 1
 97.033087291 355.043864814 l 1
 118.830104723 383.776296883 l 2
 127.801851794 396.960584693 127.801851794 396.960584693 143.176817496 411.310552682 c 0
 158.298370764 425.424002399 158.298370764 425.424002399 174.414953921 439.525766947 c 0
 182.545781047 446.640240682 182.545781047 446.640240682 190.807442234 453.376672105 c 0
 199.069103421 460.113103527 199.069103421 460.113103527 207.46142312 466.470921482 c 0
 208.921960065 467.577388864 208.921960065 467.577388864 210.804370183 469 c 2
 205.5 469 l 2
 200.253896073 469 200.253896073 469 194.9766767 469.127930684 c 0
 189.699457328 469.255861367 189.699457328 469.255861367 184.393352177 469.511617613 c 0
 179.087247025 469.76737386 179.087247025 469.76737386 173.752317371 470.150710584 c 0
 168.417387718 470.534047308 168.417387718 470.534047308 163.051909074 471.045045274 c 0
 157.710712329 471.553730678 157.710712329 471.553730678 152.400709565 472.157867203 c 0
 147.090706802 472.762003729 147.090706802 472.762003729 141.811295647 473.461672386 c 0
 136.531884492 474.161341043 136.531884492 474.161341043 131.283088593 474.956612769 c 0
 126.034292695 475.751884495 126.034292695 475.751884495 120.817035371 476.642635745 c 0
 110.614142577 478.384593051 110.614142577 478.384593051 101.713122701 480.728696195 c 0
 92.8121028249 483.072799339 92.8121028249 483.072799339 86.6128233344 485.578564967 c 2
 51.077814644 496.436484289 l 1
 41.2016311693 499.454207018 l 1
 44.5354075068 509.228233098 l 1
 88.5354075068 638.228233098 l 1
 91.6864472675 647.46650876 l 1
 100.998265967 644.539937169 l 1
 135.998265967 633.539937169 l 1
 136.297264118 633.445966322 l 1
 136.589790793 633.333456062 l 2
 150.198112756 628.099486076 150.198112756 628.099486076 168.270918629 618.288534317 c 0
 186.169575485 608.572120595 186.169575485 608.572120595 204.547001962 596.320502943 c 0
 222.65367538 584.249387331 222.65367538 584.249387331 239.766831976 572.169678633 c 2
 243.743623582 569.355077827 l 2
 242.960680901 571.8741108 242.960680901 571.8741108 242.442209913 573.559141512 c 0
 236.346957876 593.368710632 236.346957876 593.368710632 231.271937853 614.683794727 c 0
 226.201854146 635.978146298 226.201854146 635.978146298 222.649695328 656.276196682 c 0
 220.83125072 666.667308732 220.83125072 666.667308732 219.91562536 675.822251002 c 0
 219 684.977193272 219 684.977193272 219 693 c 2
 219 729 l 1
 219 739 l 1
 229 739 l 1
 365 739 l 1
 375 739 l 1
 375 729 l 1
 375 693 l 2
 375 678.152473305 375 678.152473305 371.357364255 656.817035371 c 0
 370.463463715 651.581332207 370.463463715 651.581332207 369.442163665 646.315209705 c 0
 368.420863616 641.049087203 368.420863616 641.049087203 367.272742994 635.755215244 c 0
 366.124622373 630.461343285 366.124622373 630.461343285 364.85001102 625.139804329 c 0
 363.575399667 619.818265373 363.575399667 619.818265373 362.173722234 614.466406082 c 0
 356.620068469 593.261546253 356.620068469 593.261546253 350.557790087 573.559141512 c 0
 349.693558967 570.750390372 349.693558967 570.750390372 348.759255548 567.765177008 c 2
 353.844716444 571.247288518 l 2
 371.559941999 583.394871756 371.559941999 583.394871756 389.785499905 594.532818337 c 0
 398.917373123 600.113407525 398.917373123 600.113407525 408.054061806 605.316244152 c 0
 417.190750489 610.519080779 417.190750489 610.519080779 426.332413804 615.343847528 c 0
 435.635291656 620.253699728 435.635291656 620.253699728 443.92687198 624.010883757 c 0
 452.218452303 627.768067785 452.218452303 627.768067785 459.654205781 630.423694027 c 2
 493.671798823 642.429903336 l 1
 503.379560451 645.856172146 l 1
 506.522551971 636.05303193 l 1
 548.522551971 505.05303193 l 1
 551.593176984 495.475606293 l 1
 541.998265967 492.460062831 l 1
 507.181994751 481.517806163 l 2
 491.496705933 476.206470472 491.496705933 476.206470472 470.99503719 474.049628098 c 0
 450.970408128 472.047165192 450.970408128 472.047165192 429.948090926 470.045045274 c 0
 408.475115549 468 408.475115549 468 387 468 c 2
 383.175353583 468 l 2
 385.115648884 466.549056072 385.115648884 466.549056072 386.258345733 465.683239345 c 2
 386.53857688 465.470921482 l 2
 403.19204376 452.854658694 403.19204376 452.854658694 419.832377903 439.239572992 c 0
 425.454897077 434.639330031 425.454897077 434.639330031 430.796046897 429.980131828 c 0
 436.137196717 425.320933626 436.137196717 425.320933626 441.209036877 420.591096106 c 0
 446.280877037 415.861258586 446.280877037 415.861258586 451.071067812 411.071067812 c 0
 465.331502203 396.810633421 465.331502203 396.810633421 474.094806401 383.886335863 c 2
 496.834976791 355.21394711 l 1
 503.341703795 347.009813062 l 1
 494.846897297 340.88743 l 1
 383.846897297 260.88743 l 1
 375.752522456 255.053646332 l 1
 369.900578785 263.134901878 l 1
 348.78695675 292.291808497 l 2
 340.365780214 304.923573302 340.365780214 304.923573302 331.107121977 322.926519874 c 0
 321.919612411 340.791121807 321.919612411 340.791121807 313.262578864 361.669849773 c 0
 311.525538391 365.859182679 311.525538391 365.859182679 309.890250766 370.029123545 c 0
 308.254963141 374.199064411 308.254963141 374.199064411 306.719733735 378.354375575 c 0
 305.184504328 382.509686738 305.184504328 382.509686738 303.751224852 386.645690161 c 0
 302.317945377 390.781693584 302.317945377 390.781693584 300.985160296 394.903043918 c 0
 299.652375215 399.024394252 299.652375215 399.024394252 298.421737148 403.126521144 c 0
 298.14077874 404.063049169 298.14077874 404.063049169 297.640099524 405.722240687 c 0
 297.139420308 407.381432205 297.139420308 407.381432205 297.007147561 407.818181843 c 1
EndSplineSet
EndChar

StartChar: plus
Encoding: 43 43 14
Width: 588
VWidth: 1177
Flags: W
LayerCount: 2
Fore
SplineSet
47 379 m 1
 222 379 l 1
 222 574 l 1
 222 584 l 1
 232 584 l 1
 357 584 l 1
 367 584 l 1
 367 574 l 1
 367 379 l 1
 542 379 l 1
 552 379 l 1
 552 369 l 1
 552 250 l 1
 552 240 l 1
 542 240 l 1
 367 240 l 1
 367 45 l 1
 367 35 l 1
 357 35 l 1
 232 35 l 1
 222 35 l 1
 222 45 l 1
 222 240 l 1
 47 240 l 1
 37 240 l 1
 37 250 l 1
 37 369 l 1
 37 379 l 1
 47 379 l 1
EndSplineSet
EndChar

StartChar: comma
Encoding: 44 44 15
Width: 588
VWidth: 1177
Flags: W
LayerCount: 2
Fore
SplineSet
145.683794727 -76.2719378531 m 2
 167.053514636 -71.1839093034 167.053514636 -71.1839093034 189.428849513 -67.6241969366 c 0
 210.503366493 -64.2714328715 210.503366493 -64.2714328715 229.121352464 -57.5880532924 c 0
 246.941435357 -51.1911004588 246.941435357 -51.1911004588 261.07387738 -39.3380845687 c 0
 270.191934806 -31.6906815664 270.191934806 -31.6906815664 277.143540171 -19.7653334503 c 1
 237.589029439 -11.2523041115 237.589029439 -11.2523041115 214.703796399 17.2374757958 c 0
 201.454131034 33.7319571688 201.454131034 33.7319571688 194.727065517 52.5387298177 c 0
 188 71.3455024666 188 71.3455024666 188 92 c 0
 188 142.191446324 188 142.191446324 220.988600482 174.630236798 c 0
 253.907003738 207 253.907003738 207 304 207 c 0
 330.394978848 207 330.394978848 207 351.794093086 197.828676044 c 0
 373.193207325 188.657352087 373.193207325 188.657352087 388.625091354 170.469774482 c 0
 419 134.670775006 419 134.670775006 419 74 c 0
 419 59.8123454642 419 59.8123454642 417.498575107 45.6164739894 c 0
 415.997150214 31.4206025146 415.997150214 31.4206025146 413.005083454 17.2648174518 c 0
 410.013016693 3.10903238914 410.013016693 3.10903238914 405.532306377 -11.0224386073 c 0
 391.954296189 -53.845393817 391.954296189 -53.845393817 361.744430556 -90.826436229 c 0
 331.555973884 -127.781271121 331.555973884 -127.781271121 283.920572567 -154.705628387 c 0
 236.183808051 -181.687277896 236.183808051 -181.687277896 168.203313675 -189.92733782 c 2
 159.029127046 -191.039360442 l 1
 157.198224293 -181.981209983 l 1
 138.198224293 -87.9812099832 l 1
 136.283835512 -78.5100233805 l 1
 145.683794727 -76.2719378531 l 2
EndSplineSet
EndChar

StartChar: hyphen
Encoding: 45 45 16
Width: 588
VWidth: 1177
Flags: W
LayerCount: 2
Fore
SplineSet
86 383 m 1
 503 383 l 1
 513 383 l 1
 513 373 l 1
 513 231 l 1
 513 221 l 1
 503 221 l 1
 86 221 l 1
 76 221 l 1
 76 231 l 1
 76 373 l 1
 76 383 l 1
 86 383 l 1
EndSplineSet
Substitution2: "'case' Case-Sensitive Forms lookup 17 subtable" Hyphen
EndChar

StartChar: period
Encoding: 46 46 17
Width: 588
VWidth: 1177
Flags: W
LayerCount: 2
Fore
SplineSet
410 93 m 0
 410 36.4006507753 410 36.4006507753 375.007913735 6.40743397635 c 0
 340.699240762 -23 340.699240762 -23 296 -23 c 0
 273.216490384 -23 273.216490384 -23 252.542946412 -15.3834311682 c 0
 231.739179249 -7.71888537152 231.739179249 -7.71888537152 215.310352684 7.06705853753 c 0
 209.776040837 12.0479391995 209.776040837 12.0479391995 205.024351135 17.7919368185 c 0
 200.272661433 23.5359344374 200.272661433 23.5359344374 196.35273316 29.9644278574 c 0
 192.432804886 36.3929212773 192.432804886 36.3929212773 189.333040353 43.5041457949 c 0
 184.628996387 54.2957760703 184.628996387 54.2957760703 182.314498193 66.6854629127 c 0
 180 79.0751497552 180 79.0751497552 180 93 c 0
 180 120.084761631 180 120.084761631 189.333040353 141.495854205 c 0
 198.738432514 163.07293034 198.738432514 163.07293034 215.450694616 177.556890828 c 0
 231.796021528 191.722840819 231.796021528 191.722840819 251.961079026 199.352862575 c 0
 272.171370793 207 272.171370793 207 296 207 c 0
 318.227910428 207 318.227910428 207 338.141448443 199.446643856 c 0
 358.054986458 191.893287713 358.054986458 191.893287713 375.076576488 177.033169432 c 0
 392.50657794 161.816501498 392.50657794 161.816501498 401.25328897 140.575146883 c 0
 410 119.333792268 410 119.333792268 410 93 c 0
EndSplineSet
EndChar

StartChar: slash
Encoding: 47 47 18
Width: 588
VWidth: 1177
Flags: W
LayerCount: 2
Fore
SplineSet
206 -204 m 1
 55 -204 l 1
 41.2418862502 -204 l 1
 45.4882169859 -190.913580733 l 1
 375.488216986 826.086419267 l 1
 377.731561766 833 l 1
 385 833 l 1
 534 833 l 1
 547.732395062 833 l 1
 543.517262565 819.930519055 l 1
 215.517262565 -197.069480945 l 1
 213.282050913 -204 l 1
 206 -204 l 1
EndSplineSet
Substitution2: "'case' Case-Sensitive Forms lookup 17 subtable" Slash
Substitution2: "'ss02' Style Set 2 lookup 14 subtable" fraction
Substitution2: "'frac' Diagonal Fractions lookup 12 subtable" fraction
EndChar

StartChar: zero
Encoding: 48 48 19
Width: 628
VWidth: 1177
Flags: W
LayerCount: 2
Fore
SplineSet
571.447265625 531.775390625 m 128,-1,1
 588 460.7890625 588 460.7890625 588 365.987304688 c 0,2,3
 588 174.888671875 588 174.888671875 521.224609375 80.794921875 c 0,4,5
 487.369140625 33.0869140625 487.369140625 33.0869140625 435.648253757 9.0439453125 c 0,6,7
 382.577600991 -15 382.577600991 -15 313.965156794 -15 c 0,8,9
 175.691474303 -15 175.691474303 -15 107.254882812 80.82421875 c 0,10,11
 73.841796875 128.270507812 73.841796875 128.270507812 57.4208984375 199.486328125 c 128,-1,12
 41 270.702148438 41 270.702148438 41 365.987304688 c 0,13,14
 41 555.162109375 41 555.162109375 108.801757812 649.754882812 c 0,15,16
 178.956942781 746 178.956942781 746 313.965156794 746 c 0,17,18
 382.577600991 746 382.577600991 746 435.648253757 721.95703125 c 0,19,20
 487.368164062 697.9140625 487.368164062 697.9140625 521.224609375 650.205078125 c 0,21,0
 554.893554688 602.76171875 554.893554688 602.76171875 571.447265625 531.775390625 c 128,-1,1
402.21533033 186.948242188 m 0,22,23
 434.839721254 247.32421875 434.839721254 247.32421875 434.839721254 366 c 0,24,25
 434.839721254 483.762695312 434.839721254 483.762695312 402.707344294 544.65234375 c 0,26,27
 372.443784707 602 372.443784707 602 313.965156794 602 c 0,28,29
 257.578894 602 257.578894 602 226.798249673 544.598632812 c 0,30,31
 194.160278746 483.731445312 194.160278746 483.731445312 194.160278746 366 c 0,32,33
 194.160278746 247.35546875 194.160278746 247.35546875 227.290263638 187.001953125 c 0,34,35
 258.57963578 130 258.57963578 130 313.965156794 130 c 0,36,37
 371.443042928 130 371.443042928 130 402.21533033 186.948242188 c 0,22,23
373.801785034 439.581054688 m 0,38,39
 395.261324042 413.389648438 395.261324042 413.389648438 395.261324042 378 c 128,-1,40
 395.261324042 342.551757812 395.261324042 342.551757812 373.733885017 316.836914062 c 0,41,42
 351.267336536 290 351.267336536 290 316.104529617 290 c 0,43,44
 297.315028174 290 297.315028174 290 281.925750626 296.822265625 c 128,-1,45
 266.536473078 303.64453125 266.536473078 303.64453125 255.712165859 316.944335938 c 0,46,47
 245.278544888 329.763671875 245.278544888 329.763671875 240.043975936 345.14453125 c 128,-1,48
 234.808362369 360.525390625 234.808362369 360.525390625 234.808362369 378 c 128,-1,49
 234.808362369 395.462890625 234.808362369 395.462890625 240.029351318 410.943359375 c 128,-1,50
 245.251384881 426.423828125 245.251384881 426.423828125 255.645310458 439.47265625 c 0,51,52
 266.451859212 453.038085938 266.451859212 453.038085938 281.862029072 460.01953125 c 128,-1,53
 297.272198933 467 297.272198933 467 316.104529617 467 c 0,54,55
 351.336281168 467 351.336281168 467 373.801785034 439.581054688 c 0,38,39
EndSplineSet
Substitution2: "'ss02' Style Set 2 lookup 15 subtable" zerosuperior
Substitution2: "'sinf' Scientific Inferiors lookup 11 subtable" zero.sinf
Substitution2: "'subs' Subscript lookup 10 subtable" zero.sinf
Substitution2: "'sups' Superscript lookup 9 subtable" zero.sups
Substitution2: "'dnom' Denominators lookup 8 subtable" zeroinferior
Substitution2: "'numr' Numerators lookup 6 subtable" zerosuperior
EndChar

StartChar: one
Encoding: 49 49 20
Width: 628
VWidth: 1177
Flags: W
LayerCount: 2
Fore
SplineSet
110.954101562 120 m 1,0,-1
 259.719444827 120 l 1,1,-1
 259.719444827 499.041992188 l 1,2,3
 253.394846724 495.264648438 253.394846724 495.264648438 247.058701637 491.767578125 c 128,-1,4
 240.722556551 488.270507812 240.722556551 488.270507812 234.296135043 485.005859375 c 128,-1,5
 227.868663809 481.741210938 227.868663809 481.741210938 221.205004265 478.640625 c 128,-1,6
 214.540294995 475.540039062 214.540294995 475.540039062 207.682436173 472.608398438 c 128,-1,7
 200.82457735 469.67578125 200.82457735 469.67578125 193.504839165 466.791992188 c 0,8,9
 149.678710938 448.717773438 149.678710938 448.717773438 120.500976562 437.650390625 c 2,10,-1
 111.250976562 434.141601562 l 1,11,-1
 107.643554688 443.353515625 l 1,12,-1
 60.6435546875 563.353515625 l 1,13,-1
 57 572.654296875 l 1,14,-1
 66.2978515625 576.307617188 l 2,15,16
 93.8818359375 587.14453125 93.8818359375 587.14453125 126.482421875 603.444335938 c 0,17,18
 142.796875 611.6015625 142.796875 611.6015625 159.119140625 620.627929688 c 128,-1,19
 175.44140625 629.655273438 175.44140625 629.655273438 192.878152846 639.551757812 c 0,20,21
 227.859216277 659.275390625 227.859216277 659.275390625 259.112703299 681.451171875 c 0,22,23
 290.055471476 703.40625 290.055471476 703.40625 311.976895904 725.743164062 c 2,24,-1
 315.17436077 729 l 1,25,-1
 319.914922601 729 l 1,26,-1
 426.331927953 729 l 1,27,-1
 437.081120413 729 l 1,28,-1
 437.081120413 719 l 1,29,-1
 437.081120413 120 l 1,30,-1
 573.954101562 120 l 1,31,-1
 583.954101562 120 l 1,32,-1
 583.954101562 111.538085938 l 1,33,-1
 583.954101562 10 l 1,34,-1
 583.954101562 0 l 1,35,-1
 573.954101562 0 l 1,36,-1
 110.954101562 0 l 1,37,-1
 100.954101562 0 l 1,38,-1
 100.954101562 10 l 1,39,-1
 100.954101562 111.538085938 l 1,40,-1
 100.954101562 120 l 1,41,-1
 110.954101562 120 l 1,0,-1
EndSplineSet
Substitution2: "'ss02' Style Set 2 lookup 15 subtable" onesuperior
Substitution2: "'sinf' Scientific Inferiors lookup 11 subtable" one.sinf
Substitution2: "'subs' Subscript lookup 10 subtable" one.sinf
Substitution2: "'sups' Superscript lookup 9 subtable" one.sups
Substitution2: "'dnom' Denominators lookup 8 subtable" oneinferior
Substitution2: "'numr' Numerators lookup 6 subtable" onesuperior
EndChar

StartChar: two
Encoding: 50 50 21
Width: 628
VWidth: 1177
Flags: W
LayerCount: 2
Fore
SplineSet
533.92578125 622.834960938 m 0,0,1
 553.9140625 581.280273438 553.9140625 581.280273438 553.9140625 527 c 0,2,3
 553.9140625 487.047851562 553.9140625 487.047851562 539.180664062 450.740234375 c 0,4,5
 524.739257812 415.154296875 524.739257812 415.154296875 500.559570312 381.19921875 c 0,6,7
 476.624023438 347.587890625 476.624023438 347.587890625 445.130231109 316.547851562 c 0,8,9
 413.305455848 285.868164062 413.305455848 285.868164062 379.853098781 256.689453125 c 0,10,11
 363.851686406 242.763671875 363.851686406 242.763671875 342.48574764 223.33984375 c 0,12,13
 331.93264965 213.747070312 331.93264965 213.747070312 322.045666222 203.913085938 c 128,-1,14
 312.159730143 194.080078125 312.159730143 194.080078125 302.936766576 184.0078125 c 0,15,16
 284.761055726 164.154296875 284.761055726 164.154296875 271.821047224 143.884765625 c 0,17,18
 263.772162939 131.276367188 263.772162939 131.276367188 261.120272892 120 c 1,19,-1
 576.9140625 120 l 1,20,-1
 586.9140625 120 l 1,21,-1
 586.9140625 111.538085938 l 1,22,-1
 586.9140625 10 l 1,23,-1
 586.9140625 0 l 1,24,-1
 576.9140625 0 l 1,25,-1
 80.9140625 0 l 1,26,-1
 73.70703125 0 l 1,27,-1
 71.427734375 6.837890625 l 2,28,29
 66.8212890625 20.2060546875 66.8212890625 20.2060546875 67.9306640625 38.986328125 c 0,30,31
 68.4189453125 47.2548828125 68.4189453125 47.2548828125 68.6669921875 53.1337890625 c 128,-1,32
 68.9140625 59.0126953125 68.9140625 59.0126953125 68.9140625 62.1357421875 c 0,33,34
 68.9140625 121.263671875 68.9140625 121.263671875 91.7763671875 171.025390625 c 0,35,36
 114.296875 220.043945312 114.296875 220.043945312 148.596679688 261.64453125 c 0,37,38
 183.390149784 302.828125 183.390149784 302.828125 224.718578396 337.653320312 c 0,39,40
 265.378797746 371.916015625 265.378797746 371.916015625 301.196070976 403.741210938 c 0,41,42
 312.973521046 414.206054688 312.973521046 414.206054688 323.399889693 424.45703125 c 128,-1,43
 333.825210991 434.708007812 333.825210991 434.708007812 342.83556252 444.670898438 c 128,-1,44
 351.846961399 454.634765625 351.846961399 454.634765625 359.498900057 464.361328125 c 0,45,46
 381.115155458 491.834960938 381.115155458 491.834960938 381.115155458 519.70703125 c 0,47,48
 381.115155458 558.895507812 381.115155458 558.895507812 355.757766073 579.2265625 c 0,49,50
 329.848423271 600 329.848423271 600 289.953816726 600 c 0,51,52
 255.716994554 600 255.716994554 600 217.006940791 584.327148438 c 0,53,54
 197.769217103 576.5390625 197.769217103 576.5390625 178.514735816 563.25390625 c 0,55,56
 160.053710938 549.96875 160.053710938 549.96875 142.168945312 531.1171875 c 2,57,-1
 133.759765625 522.25390625 l 1,58,-1
 126.733398438 532.249023438 l 1,59,-1
 55.7333984375 633.249023438 l 1,60,-1
 51 639.982421875 l 1,61,-1
 56.697265625 645.921875 l 2,62,63
 105.224609375 696.513671875 105.224609375 696.513671875 168.778320312 721.315429688 c 0,64,65
 236.456229167 746 236.456229167 746 304.968625458 746 c 0,66,67
 313.272015779 746 313.272015779 746 321.461244955 745.625976562 c 128,-1,68
 329.650474132 745.252929688 329.650474132 745.252929688 337.725542165 744.505859375 c 128,-1,69
 345.801657549 743.7578125 345.801657549 743.7578125 353.761517089 742.635742188 c 128,-1,70
 361.721376629 741.513671875 361.721376629 741.513671875 369.560790926 740.017578125 c 128,-1,71
 377.401252573 738.522460938 377.401252573 738.522460938 385.124411026 736.650390625 c 128,-1,72
 392.84756948 734.778320312 392.84756948 734.778320312 400.443998591 732.532226562 c 0,73,74
 446.398571886 718.946289062 446.398571886 718.946289062 480.780273438 691.711914062 c 0,75,76
 489.083984375 684.858398438 489.083984375 684.858398438 496.573242188 677.1015625 c 128,-1,77
 504.0625 669.345703125 504.0625 669.345703125 510.706054688 660.725585938 c 128,-1,78
 517.348632812 652.10546875 517.348632812 652.10546875 523.155273438 642.631835938 c 128,-1,79
 528.9609375 633.157226562 528.9609375 633.157226562 533.92578125 622.834960938 c 0,0,1
EndSplineSet
Substitution2: "'ss02' Style Set 2 lookup 15 subtable" twosuperior
Substitution2: "'sinf' Scientific Inferiors lookup 11 subtable" two.sinf
Substitution2: "'subs' Subscript lookup 10 subtable" two.sinf
Substitution2: "'sups' Superscript lookup 9 subtable" two.sups
Substitution2: "'dnom' Denominators lookup 8 subtable" twoinferior
Substitution2: "'numr' Numerators lookup 6 subtable" twosuperior
EndChar

StartChar: three
Encoding: 51 51 22
Width: 628
VWidth: 1177
Flags: W
LayerCount: 2
Fore
SplineSet
344.480525379 -10.6494140625 m 128,-1,1
 309.798464722 -15 309.798464722 -15 269.787893398 -15 c 0,2,3
 240.033103298 -15 240.033103298 -15 207.058939023 -10.912109375 c 0,4,5
 196.168736264 -9.5625 196.168736264 -9.5625 185.518017131 -7.9873046875 c 128,-1,6
 174.867297997 -6.412109375 174.867297997 -6.412109375 164.6953125 -4.609375 c 0,7,8
 155.006835938 -2.806640625 155.006835938 -2.806640625 145.540039062 -0.7783203125 c 0,9,10
 117.157226562 5.3037109375 117.157226562 5.3037109375 93.28125 12.416015625 c 0,11,12
 69.0947265625 19.6201171875 69.0947265625 19.6201171875 55.4453125 25.919921875 c 2,13,-1
 48 29.3564453125 l 1,14,-1
 49.9111328125 37.3310546875 l 1,15,-1
 78.9111328125 158.331054688 l 1,16,-1
 81.712890625 170.020507812 l 1,17,-1
 92.697265625 165.137695312 l 2,18,19
 119.126953125 153.391601562 119.126953125 153.391601562 161.529296875 140.572265625 c 0,20,21
 205.768038252 128 205.768038252 128 268.712317817 128 c 0,22,23
 343.64548379 128 343.64548379 128 372.725938418 155.360351562 c 0,24,25
 402.083689875 182.982421875 402.083689875 182.982421875 402.083689875 223.8203125 c 0,26,27
 402.083689875 249.091796875 402.083689875 249.091796875 391.341588832 265.774414062 c 128,-1,28
 380.599487789 282.458007812 380.599487789 282.458007812 358.553339476 292.180664062 c 0,29,30
 335.150117286 302.501953125 335.150117286 302.501953125 304.882748199 307.750976562 c 128,-1,31
 274.614328745 313 274.614328745 313 237.520625964 313 c 2,32,-1
 190.195300395 313 l 1,33,-1
 179.439544584 313 l 1,34,-1
 179.439544584 323 l 1,35,-1
 179.439544584 443 l 1,36,-1
 179.439544584 453 l 1,37,-1
 190.195300395 453 l 1,38,-1
 248.276381775 453 l 2,39,40
 270.873972647 453 270.873972647 453 294.030358644 457.03515625 c 0,41,42
 301.547833677 458.344726562 301.547833677 458.344726562 308.471851481 460.227539062 c 128,-1,43
 315.395869284 462.110351562 315.395869284 462.110351562 321.65710565 464.532226562 c 128,-1,44
 327.918342017 466.953125 327.918342017 466.953125 333.629186191 469.938476562 c 0,45,46
 341.976450979 474.301757812 341.976450979 474.301757812 348.859504478 480.1953125 c 128,-1,47
 355.741507611 486.087890625 355.741507611 486.087890625 361.290595301 493.655273438 c 0,48,49
 366.555033594 500.833984375 366.555033594 500.833984375 369.260778416 510.061523438 c 128,-1,50
 371.967573604 519.288085938 371.967573604 519.288085938 371.967573604 530.780273438 c 128,-1,51
 371.967573604 542.23046875 371.967573604 542.23046875 369.358462526 551.817382812 c 128,-1,52
 366.749351449 561.403320312 366.749351449 561.403320312 361.692885777 569.075195312 c 128,-1,53
 356.636420106 576.748046875 356.636420106 576.748046875 349.009706928 582.985351562 c 0,54,55
 337.455672365 592.435546875 337.455672365 592.435546875 321.585680709 597.217773438 c 128,-1,56
 305.715689054 602 305.715689054 602 284.845951533 602 c 0,57,58
 263.66740618 602 263.66740618 602 242.622257407 598.758789062 c 128,-1,59
 221.576058268 595.517578125 221.576058268 595.517578125 200.587629301 589.012695312 c 0,60,61
 159.068359375 575.936523438 159.068359375 575.936523438 130.182617188 556.6796875 c 2,62,-1
 120.685546875 550.34765625 l 1,63,-1
 115.658203125 560.595703125 l 1,64,-1
 63.658203125 666.595703125 l 1,65,-1
 59.771484375 674.518554688 l 1,66,-1
 67.1494140625 679.360351562 l 2,67,68
 78.1650390625 686.58984375 78.1650390625 686.58984375 91.4375 693.880859375 c 128,-1,69
 104.709960938 701.172851562 104.709960938 701.172851562 120.118164062 708.48046875 c 128,-1,70
 135.52734375 715.787109375 135.52734375 715.787109375 153.270507812 723.22265625 c 0,71,72
 210.619682402 746 210.619682402 746 283.770375952 746 c 0,73,74
 351.161908457 746 351.161908457 746 401.787486444 730.37890625 c 0,75,76
 452.887695312 714.60546875 452.887695312 714.60546875 483.954101562 686.390625 c 0,77,78
 499.540039062 672.235351562 499.540039062 672.235351562 511.083007812 655.302734375 c 128,-1,79
 522.625976562 638.370117188 522.625976562 638.370117188 530.01953125 618.818359375 c 0,80,81
 544.635742188 580.166992188 544.635742188 580.166992188 544.635742188 536.536132812 c 0,82,83
 544.635742188 490.875976562 544.635742188 490.875976562 518.116210938 449.536132812 c 0,84,85
 511.146484375 438.671875 511.146484375 438.671875 502.680664062 428.91015625 c 128,-1,86
 494.21484375 419.1484375 494.21484375 419.1484375 484.821289062 410.995117188 c 128,-1,87
 475.427734375 402.840820312 475.427734375 402.840820312 465.15234375 396.22265625 c 1,88,89
 488.766601562 384.315429688 488.766601562 384.315429688 507.423828125 368.42578125 c 128,-1,90
 526.080078125 352.537109375 526.080078125 352.537109375 539.928710938 332.517578125 c 0,91,92
 556.290039062 308.864257812 556.290039062 308.864257812 564.462890625 280.868164062 c 128,-1,93
 572.635742188 252.872070312 572.635742188 252.872070312 572.635742188 220.879882812 c 0,94,95
 572.635742188 169.368164062 572.635742188 169.368164062 555.458007812 126.26171875 c 0,96,97
 538.108398438 82.724609375 538.108398438 82.724609375 502.373046875 50.9814453125 c 0,98,99
 484.504882812 35.1083984375 484.504882812 35.1083984375 461.806640625 22.908203125 c 0,100,101
 438.087111939 10.7080078125 438.087111939 10.7080078125 408.595963901 2.1396484375 c 128,-1,0
 379.163636403 -6.4111328125 379.163636403 -6.4111328125 344.480525379 -10.6494140625 c 128,-1,1
EndSplineSet
Substitution2: "'ss02' Style Set 2 lookup 15 subtable" threesuperior
Substitution2: "'sinf' Scientific Inferiors lookup 11 subtable" three.sinf
Substitution2: "'subs' Subscript lookup 10 subtable" three.sinf
Substitution2: "'sups' Superscript lookup 9 subtable" three.sups
Substitution2: "'dnom' Denominators lookup 8 subtable" threeinferior
Substitution2: "'numr' Numerators lookup 6 subtable" threesuperior
EndChar

StartChar: four
Encoding: 52 52 23
Width: 628
VWidth: 1177
Flags: W
LayerCount: 2
Fore
SplineSet
347.986970684 301 m 1,0,-1
 347.986970684 518.48828125 l 1,1,2
 334.515570923 501.706054688 334.515570923 501.706054688 320.924550209 484.125976562 c 0,3,4
 297.105417854 453.315429688 297.105417854 453.315429688 273.808456968 420.010742188 c 128,-1,5
 250.517737174 386.713867188 250.517737174 386.713867188 229.350029265 352.9296875 c 0,6,7
 226.080736589 347.7109375 226.080736589 347.7109375 222.880095939 342.41015625 c 128,-1,8
 219.678415106 337.108398438 219.678415106 337.108398438 216.64004288 331.884765625 c 128,-1,9
 213.600630471 326.662109375 213.600630471 326.662109375 210.673557741 321.438476562 c 128,-1,10
 207.746485011 316.215820312 207.746485011 316.215820312 204.997283439 311.116210938 c 128,-1,11
 202.249122048 306.016601562 202.249122048 306.016601562 199.654907624 301 c 1,12,-1
 347.986970684 301 l 1,0,-1
521 729 m 1,13,-1
 521 719 l 1,14,-1
 521 301 l 1,15,-1
 589 301 l 1,16,-1
 599 301 l 1,17,-1
 599 291 l 1,18,-1
 599 172 l 1,19,-1
 599 162 l 1,20,-1
 589 162 l 1,21,-1
 521 162 l 1,22,-1
 521 10 l 1,23,-1
 521 0 l 1,24,-1
 511 0 l 1,25,-1
 358.638436482 0 l 1,26,-1
 347.986970684 0 l 1,27,-1
 347.986970684 10 l 1,28,-1
 347.986970684 162 l 1,29,-1
 42 162 l 1,30,-1
 32 162 l 1,31,-1
 32 171.826171875 l 1,32,-1
 32 275.979492188 l 1,33,-1
 32 278.208007812 l 1,34,-1
 32.978515625 280.21875 l 2,35,36
 55.193359375 325.858398438 55.193359375 325.858398438 90.951171875 383.756835938 c 128,-1,37
 126.614257812 441.502929688 126.614257812 441.502929688 170.421626883 501.694335938 c 0,38,39
 215.87654914 561.87890625 215.87654914 561.87890625 266.133992646 620.569335938 c 0,40,41
 316.581789495 679.483398438 316.581789495 679.483398438 367.083675819 726.071289062 c 2,42,-1
 370.203182258 729 l 1,43,-1
 374.615635179 729 l 1,44,-1
 511 729 l 1,45,-1
 521 729 l 1,13,-1
EndSplineSet
Substitution2: "'ss02' Style Set 2 lookup 15 subtable" foursuperior
Substitution2: "'sinf' Scientific Inferiors lookup 11 subtable" four.sinf
Substitution2: "'subs' Subscript lookup 10 subtable" four.sinf
Substitution2: "'sups' Superscript lookup 9 subtable" four.sups
Substitution2: "'dnom' Denominators lookup 8 subtable" fourinferior
Substitution2: "'numr' Numerators lookup 6 subtable" foursuperior
EndChar

StartChar: five
Encoding: 53 53 24
Width: 628
VWidth: 1177
Flags: W
LayerCount: 2
Fore
SplineSet
394.491227329 203.375976562 m 128,-1,1
 395.971079132 211.923828125 395.971079132 211.923828125 395.971079132 220.859375 c 0,2,3
 395.971079132 249.016601562 395.971079132 249.016601562 385.965811589 271.979492188 c 0,4,5
 381.313199503 282.657226562 381.313199503 282.657226562 371.797017734 291.971679688 c 128,-1,6
 362.280835965 301.286132812 362.280835965 301.286132812 347.45188127 309.293945312 c 128,-1,7
 332.459198291 317.390625 332.459198291 317.390625 310.298155161 323.923828125 c 128,-1,8
 288.137112032 330.45703125 288.137112032 330.45703125 259.186592795 335.15234375 c 0,9,10
 200.484755083 344.671875 200.484755083 344.671875 109.6328125 344.671875 c 2,11,-1
 98.34765625 344.671875 l 1,12,-1
 99.705078125 355.508789062 l 2,13,14
 111.678710938 451.053710938 111.678710938 451.053710938 118.66015625 542.708984375 c 128,-1,15
 125.646484375 634.424804688 125.646484375 634.424804688 128.638671875 719.340820312 c 2,16,-1
 128.967773438 729 l 1,17,-1
 138.6328125 729 l 1,18,-1
 530.6328125 729 l 1,19,-1
 540.6328125 729 l 1,20,-1
 540.6328125 719 l 1,21,-1
 540.6328125 617.461914062 l 1,22,-1
 540.6328125 609 l 1,23,-1
 530.6328125 609 l 1,24,-1
 278.2441453 609 l 1,25,26
 277.516813882 597.4609375 277.516813882 597.4609375 276.62470464 585.952148438 c 128,-1,27
 275.732595397 574.442382812 275.732595397 574.442382812 274.665212926 562.802734375 c 128,-1,28
 273.598879996 551.162109375 273.598879996 551.162109375 272.32578763 539.029296875 c 0,29,30
 268.869651469 506.057617188 268.869651469 506.057617188 266.759025955 482.286132812 c 1,31,32
 419.333845888 471.395507812 419.333845888 471.395507812 493.127929688 410.103515625 c 0,33,34
 518.288085938 388.612304688 518.288085938 388.612304688 535.114257812 361.197265625 c 128,-1,35
 551.939453125 333.782226562 551.939453125 333.782226562 560.286132812 300.977539062 c 128,-1,36
 568.6328125 268.172851562 568.6328125 268.172851562 568.6328125 230 c 0,37,38
 568.6328125 203.565429688 568.6328125 203.565429688 563.939453125 179.185546875 c 128,-1,39
 559.24609375 154.805664062 559.24609375 154.805664062 549.840820312 132.599609375 c 0,40,41
 530.947265625 87.9912109375 530.947265625 87.9912109375 492.724609375 54.48046875 c 128,-1,42
 454.67578125 21.1220703125 454.67578125 21.1220703125 394.985560803 2.9873046875 c 0,43,44
 365.052671859 -6.0390625 365.052671859 -6.0390625 330.380058985 -10.51953125 c 128,-1,45
 295.708495652 -15 295.708495652 -15 256.256276318 -15 c 0,46,47
 225.528885377 -15 225.528885377 -15 193.192549179 -11.4306640625 c 0,48,49
 161.141687939 -7.8916015625 161.141687939 -7.8916015625 133.811523438 -2.8330078125 c 0,50,51
 106.196289062 2.28125 106.196289062 2.28125 83.6005859375 9.470703125 c 128,-1,52
 60.857421875 16.70703125 60.857421875 16.70703125 48.16015625 23.0556640625 c 2,53,-1
 41 26.6357421875 l 1,54,-1
 42.9267578125 34.40625 l 1,55,-1
 72.9267578125 155.40625 l 1,56,-1
 75.9326171875 167.530273438 l 1,57,-1
 87.1044921875 161.944335938 l 2,58,59
 112.228515625 149.3828125 112.228515625 149.3828125 151.284179688 138.641601562 c 0,60,61
 192.148256595 128 192.148256595 128 255.181547065 128 c 0,62,63
 298.546452584 128 298.546452584 128 326.959607195 136.676757812 c 0,64,65
 354.76612752 145.166992188 354.76612752 145.166992188 369.689540841 158.166015625 c 128,-1,66
 384.42403691 171 384.42403691 171 390.04642422 186.602539062 c 0,67,0
 393.011375526 194.828125 393.011375526 194.828125 394.491227329 203.375976562 c 128,-1,1
EndSplineSet
Substitution2: "'ss02' Style Set 2 lookup 15 subtable" fivesuperior
Substitution2: "'sinf' Scientific Inferiors lookup 11 subtable" five.sinf
Substitution2: "'subs' Subscript lookup 10 subtable" five.sinf
Substitution2: "'sups' Superscript lookup 9 subtable" five.sups
Substitution2: "'dnom' Denominators lookup 8 subtable" fiveinferior
Substitution2: "'numr' Numerators lookup 6 subtable" fivesuperior
EndChar

StartChar: six
Encoding: 54 54 25
Width: 628
VWidth: 1177
Flags: W
LayerCount: 2
Fore
SplineSet
387.456114325 310.8203125 m 0,0,1
 363.775673903 336 363.775673903 336 303.160305344 336 c 0,2,3
 280.481572042 336 280.481572042 336 255.632298127 331.872070312 c 0,4,5
 245.927406369 330.259765625 245.927406369 330.259765625 236.786960281 327.83984375 c 128,-1,6
 227.646514194 325.420898438 227.646514194 325.420898438 221.87592438 323.131835938 c 1,7,8
 221.185345599 315.370117188 221.185345599 315.370117188 220.807997376 308.366210938 c 0,9,10
 220.546271171 303.481445312 220.546271171 303.481445312 220.413831405 298.228515625 c 128,-1,11
 220.282442748 292.975585938 220.282442748 292.975585938 220.282442748 287.361328125 c 0,12,13
 220.282442748 255.61328125 220.282442748 255.61328125 225.017689945 226.2421875 c 0,14,15
 227.329079198 211.905273438 227.329079198 211.905273438 231.530362894 199.272460938 c 128,-1,16
 235.730595479 186.638671875 235.730595479 186.638671875 241.78813812 175.680664062 c 0,17,18
 253.49644412 154.500976562 253.49644412 154.500976562 273.318262464 142.078125 c 0,19,20
 282.867590052 136.092773438 282.867590052 136.092773438 295.079377385 133.046875 c 128,-1,21
 307.292215828 130 307.292215828 130 322.534351145 130 c 0,22,23
 346.223200441 130 346.223200441 130 362.3671875 139.400390625 c 0,24,25
 379.246951038 149.229492188 379.246951038 149.229492188 389.841081226 164.163085938 c 0,26,27
 400.784179688 179.588867188 400.784179688 179.588867188 406.285685532 198.646484375 c 0,28,29
 408.156660007 205.124023438 408.156660007 205.124023438 409.399071147 211.43359375 c 128,-1,30
 410.642533397 217.743164062 410.642533397 217.743164062 411.256381202 223.8359375 c 128,-1,31
 411.870229008 229.927734375 411.870229008 229.927734375 411.870229008 235.861328125 c 0,32,33
 411.870229008 284.862304688 411.870229008 284.862304688 387.456114325 310.8203125 c 0,0,1
280.098968273 470.201171875 m 0,34,35
 305.063864206 476 305.063864206 476 323.610687023 476 c 0,36,37
 394.666723819 476 394.666723819 476 444.026814468 457.107421875 c 0,38,39
 491.004882812 438.104492188 491.004882812 438.104492188 520.525390625 405.047851562 c 0,40,41
 535.237304688 388.575195312 535.237304688 388.575195312 545.89453125 369.366210938 c 128,-1,42
 556.551757812 350.158203125 556.551757812 350.158203125 563.09375 328.366210938 c 0,43,44
 576 285.37109375 576 285.37109375 576 237.909179688 c 0,45,46
 576 195.272460938 576 195.272460938 562.05078125 151.232421875 c 0,47,48
 548.0078125 106.8984375 548.0078125 106.8984375 518.381835938 69.72265625 c 0,49,50
 503.4765625 51.0185546875 503.4765625 51.0185546875 484.641601562 35.7685546875 c 128,-1,51
 465.806640625 20.517578125 465.806640625 20.517578125 442.194731035 8.79296875 c 0,52,53
 417.514685711 -3.0859375 417.514685711 -3.0859375 388.36742605 -8.982421875 c 128,-1,54
 359.219115279 -15 359.219115279 -15 325.763358779 -15 c 0,55,56
 189.468123807 -15 189.468123807 -15 120.875976562 62.44140625 c 0,57,58
 87.130859375 101.158203125 87.130859375 101.158203125 70.5654296875 160.44140625 c 128,-1,59
 54 219.725585938 54 219.725585938 54 299.51953125 c 0,60,61
 54 404.552734375 54 404.552734375 86.1728515625 485.607421875 c 0,62,63
 118.4765625 566.9921875 118.4765625 566.9921875 177.861775406 622.049804688 c 0,64,65
 241.43601652 677.063476562 241.43601652 677.063476562 331.359464456 705.51171875 c 0,66,67
 376.131463204 719.67578125 376.131463204 719.67578125 425.601920324 726.743164062 c 0,68,69
 473.720703125 734 473.720703125 734 524 734 c 2,70,-1
 533.375976562 734 l 1,71,-1
 533.979492188 724.643554688 l 1,72,-1
 541.979492188 605.438476562 l 1,73,-1
 542.651367188 595.421875 l 1,74,-1
 532.212890625 595.208007812 l 2,75,76
 520.6640625 594.971679688 520.6640625 594.971679688 509.2421875 594.29296875 c 128,-1,77
 497.8203125 593.614257812 497.8203125 593.614257812 486.526367188 592.493164062 c 128,-1,78
 475.232421875 591.372070312 475.232421875 591.372070312 464.06640625 589.80859375 c 0,79,80
 452.662728113 588.245117188 452.662728113 588.245117188 440.776784649 586.240234375 c 0,81,82
 393.843705272 578.322265625 393.843705272 578.322265625 354.845449666 560.673828125 c 0,83,84
 335.526061546 551.931640625 335.526061546 551.931640625 318.706211236 540.462890625 c 128,-1,85
 301.885309816 528.995117188 301.885309816 528.995117188 287.468295265 514.739257812 c 0,86,87
 282.034060413 509.365234375 282.034060413 509.365234375 277.086489146 503.365234375 c 128,-1,88
 272.139968989 497.365234375 272.139968989 497.365234375 267.785223342 490.88671875 c 128,-1,89
 263.429426586 484.408203125 263.429426586 484.408203125 259.642279938 477.478515625 c 0,90,91
 255.85408218 470.299804688 255.85408218 470.299804688 252.64925006 462.6875 c 1,92,93
 266.81399839 467.116210938 266.81399839 467.116210938 280.098968273 470.201171875 c 0,34,35
EndSplineSet
Substitution2: "'ss02' Style Set 2 lookup 15 subtable" sixsuperior
Substitution2: "'sinf' Scientific Inferiors lookup 11 subtable" six.sinf
Substitution2: "'subs' Subscript lookup 10 subtable" six.sinf
Substitution2: "'sups' Superscript lookup 9 subtable" six.sups
Substitution2: "'dnom' Denominators lookup 8 subtable" sixinferior
Substitution2: "'numr' Numerators lookup 6 subtable" sixsuperior
EndChar

StartChar: seven
Encoding: 55 55 26
Width: 628
VWidth: 1177
Flags: W
LayerCount: 2
Fore
SplineSet
154.452148438 0 m 1,0,-1
 155.014648438 10.5322265625 l 2,1,2
 159.065429688 86.4853515625 159.065429688 86.4853515625 180.474212646 171.912109375 c 0,3,4
 186.169113159 193.165039062 186.169113159 193.165039062 192.473617554 214.291992188 c 128,-1,5
 198.778121948 235.419921875 198.778121948 235.419921875 205.693283081 256.420898438 c 128,-1,6
 212.607391357 277.421875 212.607391357 277.421875 220.131103516 298.295898438 c 128,-1,7
 227.65586853 319.169921875 227.65586853 319.169921875 235.790237427 339.916992188 c 0,8,9
 268.320343018 422.893554688 268.320343018 422.893554688 306.830673218 496.849609375 c 0,10,11
 339.931427002 560.415039062 339.931427002 560.415039062 370.393722534 609 c 1,12,-1
 68 609 l 1,13,-1
 58 609 l 1,14,-1
 58 617.461914062 l 1,15,-1
 58 719 l 1,16,-1
 58 729 l 1,17,-1
 68 729 l 1,18,-1
 564 729 l 1,19,-1
 574 729 l 1,20,-1
 574 719 l 1,21,-1
 574 612.987304688 l 1,22,-1
 574 609.365234375 l 1,23,-1
 571.563476562 606.625976562 l 2,24,25
 561.19140625 594.9609375 561.19140625 594.9609375 550.090820312 580.141601562 c 128,-1,26
 538.989257812 565.322265625 538.989257812 565.322265625 527.092773438 547.223632812 c 128,-1,27
 515.196289062 529.124023438 515.196289062 529.124023438 502.666015625 507.958007812 c 0,28,29
 483.859375 476.189453125 483.859375 476.189453125 466.133789062 440.142578125 c 0,30,31
 447.971343994 404.095703125 447.971343994 404.095703125 430.045410156 363.788085938 c 0,32,33
 394.177749634 283.137695312 394.177749634 283.137695312 367.395187378 191.327148438 c 128,-1,34
 340.78213501 99.365234375 340.78213501 99.365234375 334.306015015 9.36328125 c 2,35,-1
 333.66166687 -0 l 1,36,-1
 323.546875 0 l 1,37,-1
 165 0 l 1,38,-1
 154.452148438 0 l 1,0,-1
EndSplineSet
Substitution2: "'ss02' Style Set 2 lookup 15 subtable" sevensuperior
Substitution2: "'sinf' Scientific Inferiors lookup 11 subtable" seven.sinf
Substitution2: "'subs' Subscript lookup 10 subtable" seven.sinf
Substitution2: "'sups' Superscript lookup 9 subtable" seven.sups
Substitution2: "'dnom' Denominators lookup 8 subtable" seveninferior
Substitution2: "'numr' Numerators lookup 6 subtable" sevensuperior
EndChar

StartChar: eight
Encoding: 56 56 27
Width: 628
VWidth: 1177
Flags: W
LayerCount: 2
Fore
SplineSet
548.673828125 631.252929688 m 128,-1,1
 565 595.3046875 565 595.3046875 565 551.026367188 c 0,2,3
 565 525.034179688 565 525.034179688 558.5859375 499.657226562 c 128,-1,4
 552.171875 474.280273438 552.171875 474.280273438 539.42578125 449.698242188 c 0,5,6
 516.9765625 406.403320312 516.9765625 406.403320312 471.662109375 375.067382812 c 1,7,8
 491.581054688 362.772460938 491.581054688 362.772460938 507.290039062 350.27734375 c 128,-1,9
 522.999023438 337.782226562 522.999023438 337.782226562 535.129882812 324.51953125 c 128,-1,10
 547.260742188 311.2578125 547.260742188 311.2578125 556.083007812 296.880859375 c 0,11,12
 585 249.7578125 585 249.7578125 585 192.510742188 c 0,13,14
 585 156.668945312 585 156.668945312 570.87890625 119.473632812 c 0,15,16
 556.588867188 81.83203125 556.588867188 81.83203125 524.950195312 52.037109375 c 0,17,18
 509.1484375 37.1552734375 509.1484375 37.1552734375 488.79296875 25.0791015625 c 128,-1,19
 468.436523438 13.001953125 468.436523438 13.001953125 442.067871094 3.6748046875 c 0,20,21
 388.778948103 -15 388.778948103 -15 310.714285714 -15 c 0,22,23
 250.22984096 -15 250.22984096 -15 199.987792969 -1.4423828125 c 0,24,25
 150.375 12.2265625 150.375 12.2265625 116.403320312 37.6904296875 c 0,26,27
 81.9697265625 63.5009765625 81.9697265625 63.5009765625 63.4384765625 102.1953125 c 128,-1,28
 45 140.6953125 45 140.6953125 45 187.680664062 c 0,29,30
 45 243.69921875 45 243.69921875 72.1669921875 293.587890625 c 0,31,32
 96.439453125 338.162109375 96.439453125 338.162109375 144.637695312 372.822265625 c 1,33,34
 135.349609375 379.5546875 135.349609375 379.5546875 127.448242188 386.192382812 c 128,-1,35
 119.546875 392.830078125 119.546875 392.830078125 112.787109375 399.588867188 c 128,-1,36
 106.026367188 406.346679688 106.026367188 406.346679688 100.412109375 413.283203125 c 128,-1,37
 94.7978515625 420.219726562 94.7978515625 420.219726562 90.212890625 427.413085938 c 128,-1,38
 85.6279296875 434.606445312 85.6279296875 434.606445312 81.9462890625 442.250976562 c 0,39,40
 62 483.681640625 62 483.681640625 62 529.703125 c 0,41,42
 62 565.370117188 62 565.370117188 75.0009765625 603.880859375 c 0,43,44
 81.560546875 623.3125 81.560546875 623.3125 91.943359375 640.986328125 c 128,-1,45
 102.326171875 658.66015625 102.326171875 658.66015625 116.458984375 674.471679688 c 0,46,47
 144.9140625 706.306640625 144.9140625 706.306640625 193.86265346 726.671875 c 0,48,49
 244.154924665 747 244.154924665 747 317.142857143 747 c 0,50,51
 336.351143973 747 336.351143973 747 354.294433594 745.510742188 c 128,-1,52
 372.236676897 744.020507812 372.236676897 744.020507812 388.980887277 741.032226562 c 128,-1,53
 405.725097656 738.120117188 405.725097656 738.120117188 421.196986607 733.720703125 c 128,-1,54
 436.669921875 729.3203125 436.669921875 729.3203125 450.861118862 723.447265625 c 128,-1,55
 465.049804688 717.573242188 465.049804688 717.573242188 477.107421875 710.172851562 c 128,-1,56
 489.166015625 702.772460938 489.166015625 702.772460938 499.95703125 693.883789062 c 0,57,0
 532.34765625 667.202148438 532.34765625 667.202148438 548.673828125 631.252929688 c 128,-1,1
419.172363281 152.817382812 m 128,-1,59
 426.428571429 165.829101562 426.428571429 165.829101562 426.428571429 181 c 0,60,61
 426.428571429 185.409179688 426.428571429 185.409179688 426.077008929 189.55078125 c 128,-1,62
 425.724400112 193.692382812 425.724400112 193.692382812 425.038016183 197.5 c 128,-1,63
 424.351632254 201.306640625 424.351632254 201.306640625 423.326241629 204.864257812 c 128,-1,64
 422.299804688 208.421875 422.299804688 208.421875 420.965750558 211.66796875 c 128,-1,65
 419.632742746 214.913085938 419.632742746 214.913085938 417.972237723 217.926757812 c 0,66,67
 413.771275112 225.55078125 413.771275112 225.55078125 406.956612723 232.69140625 c 128,-1,68
 400.142996652 239.83203125 400.142996652 239.83203125 390.571289062 246.475585938 c 0,69,70
 370.46421596 260.4296875 370.46421596 260.4296875 338.664550781 275.026367188 c 0,71,72
 308.920898438 288.6796875 308.920898438 288.6796875 267.765066964 303.555664062 c 1,73,74
 237.410365513 279.123046875 237.410365513 279.123046875 220.509207589 249.766601562 c 0,75,76
 211.421944754 233.982421875 211.421944754 233.982421875 206.961495536 219.061523438 c 128,-1,77
 202.5 204.140625 202.5 204.140625 202.5 190 c 0,78,79
 202.5 175.631835938 202.5 175.631835938 206.015625 163.9765625 c 128,-1,80
 209.530203683 152.321289062 209.530203683 152.321289062 216.451590402 143.250976562 c 128,-1,81
 223.372977121 134.180664062 223.372977121 134.180664062 233.918805804 127.12890625 c 0,82,83
 250.475725446 116.057617188 250.475725446 116.057617188 270.099400112 110.529296875 c 128,-1,84
 289.72202846 105 289.72202846 105 312.857142857 105 c 0,85,86
 365.849958147 105 365.849958147 105 396.651436942 128.272460938 c 0,87,58
 411.917201451 139.806640625 411.917201451 139.806640625 419.172363281 152.817382812 c 128,-1,59
379.285714286 608 m 0,88,89
 352.5 627 352.5 627 313.928571429 627 c 0,90,91
 304.530552455 627 304.530552455 627 295.824148996 625.78515625 c 128,-1,92
 287.116699219 624.571289062 287.116699219 624.571289062 279.043317522 622.129882812 c 128,-1,93
 270.970982143 619.689453125 270.970982143 619.689453125 263.52015904 616.045898438 c 128,-1,94
 256.070382254 612.403320312 256.070382254 612.403320312 249.131208147 607.516601562 c 0,95,96
 235.902622768 598.203125 235.902622768 598.203125 229.379882812 584.848632812 c 128,-1,97
 222.857142857 571.495117188 222.857142857 571.495117188 222.857142857 553 c 0,98,99
 222.857142857 516.252929688 222.857142857 516.252929688 248.503417969 493.203125 c 0,100,101
 261.18687221 481.803710938 261.18687221 481.803710938 285.040806362 469.100585938 c 128,-1,102
 308.89578683 456.397460938 308.89578683 456.397460938 342.37374442 443.40234375 c 1,103,104
 360.119280134 456.236328125 360.119280134 456.236328125 371.491699219 468.833984375 c 128,-1,105
 382.864118304 481.432617188 382.864118304 481.432617188 389.914202009 495.690429688 c 0,106,107
 405 526.196289062 405 526.196289062 405 554 c 0,108,109
 405 590 405 590 379.285714286 608 c 0,88,89
EndSplineSet
Substitution2: "'ss02' Style Set 2 lookup 15 subtable" eightsuperior
Substitution2: "'sinf' Scientific Inferiors lookup 11 subtable" eight.sinf
Substitution2: "'subs' Subscript lookup 10 subtable" eight.sinf
Substitution2: "'sups' Superscript lookup 9 subtable" eight.sups
Substitution2: "'dnom' Denominators lookup 8 subtable" eightinferior
Substitution2: "'numr' Numerators lookup 6 subtable" eightsuperior
EndChar

StartChar: nine
Encoding: 57 57 28
Width: 628
VWidth: 1177
Flags: W
LayerCount: 2
Fore
SplineSet
290.444870283 400.965820312 m 128,-1,1
 307.047464623 398 307.047464623 398 327.867924528 398 c 0,2,3
 350.568359375 398 350.568359375 398 376.509913031 402.140625 c 0,4,5
 397.247401975 405.451171875 397.247401975 405.451171875 412.38697671 411.033203125 c 1,6,-1
 413.375276386 426.951171875 l 2,7,8
 413.639943249 433.544921875 413.639943249 433.544921875 413.773326946 439.897460938 c 128,-1,9
 413.905660377 446.250976562 413.905660377 446.250976562 413.905660377 452.361328125 c 0,10,11
 413.905660377 479.151367188 413.905660377 479.151367188 408.167010613 506.91015625 c 0,12,13
 402.51133181 534.264648438 402.51133181 534.264648438 390.228478774 556.956054688 c 0,14,15
 386.284732459 564.243164062 386.284732459 564.243164062 381.408350531 570.493164062 c 128,-1,16
 376.531968603 576.743164062 376.531968603 576.743164062 370.748157429 581.958984375 c 128,-1,17
 364.964346256 587.174804688 364.964346256 587.174804688 358.182783019 591.470703125 c 0,18,19
 348.319741303 597.717773438 348.319741303 597.717773438 336.276348762 600.859375 c 128,-1,20
 324.234006486 604 324.234006486 604 309.58490566 604 c 0,21,22
 304.424952093 604 304.424952093 604 299.595832105 603.650390625 c 128,-1,23
 294.766712117 603.30078125 294.766712117 603.30078125 290.350346403 602.619140625 c 128,-1,24
 285.932930425 601.9375 285.932930425 601.9375 281.826392983 600.918945312 c 128,-1,25
 277.719855542 599.901367188 277.719855542 599.901367188 273.996664947 598.578125 c 128,-1,26
 270.273474351 597.255859375 270.273474351 597.255859375 266.840156987 595.610351562 c 0,27,28
 264.299565153 594.392578125 264.299565153 594.392578125 261.92071418 593.071289062 c 128,-1,29
 259.542913473 591.750976562 259.542913473 591.750976562 257.326853626 590.330078125 c 128,-1,30
 255.111844045 588.908203125 255.111844045 588.908203125 253.050173202 587.37890625 c 128,-1,31
 250.987452093 585.849609375 250.987452093 585.849609375 249.082270784 584.21875 c 128,-1,32
 247.17603921 582.587890625 247.17603921 582.587890625 245.413693986 580.842773438 c 128,-1,33
 243.651348762 579.098632812 243.651348762 579.098632812 242.03919148 577.250976562 c 128,-1,34
 240.427034198 575.403320312 240.427034198 575.403320312 238.948260613 573.436523438 c 0,35,36
 228.151533019 559.075195312 228.151533019 559.075195312 222.688052771 539.696289062 c 0,37,38
 217.094339623 519.853515625 217.094339623 519.853515625 217.094339623 497.185546875 c 0,39,40
 217.094339623 484.690429688 217.094339623 484.690429688 218.735904334 473.7578125 c 128,-1,41
 220.37851931 462.825195312 220.37851931 462.825195312 223.609135466 453.60546875 c 128,-1,42
 226.839751621 444.38671875 226.839751621 444.38671875 231.514482606 436.75390625 c 128,-1,43
 236.190263856 429.12109375 236.190263856 429.12109375 242.370025059 422.903320312 c 0,44,45
 250.349941038 414.875 250.349941038 414.875 262.096108491 409.403320312 c 128,-1,0
 273.842275943 403.931640625 273.842275943 403.931640625 290.444870283 400.965820312 c 128,-1,1
321.537975383 257.483398438 m 128,-1,47
 314.931806456 257 314.931806456 257 308.509433962 257 c 0,48,49
 237.55455852 257 237.55455852 257 187.193285672 275.8671875 c 0,50,51
 139.060546875 294.858398438 139.060546875 294.858398438 109.526367188 327.421875 c 128,-1,52
 80.0869140625 359.879882812 80.0869140625 359.879882812 66.447265625 403.068359375 c 0,53,54
 53 445.645507812 53 445.645507812 53 494.169921875 c 0,55,56
 53 536.887695312 53 536.887695312 67.9921875 581.979492188 c 0,57,58
 83.060546875 627.301757812 83.060546875 627.301757812 113.212890625 663.984375 c 128,-1,59
 143.504882812 700.837890625 143.504882812 700.837890625 190.020599941 724.322265625 c 0,60,61
 239.162514741 748 239.162514741 748 305.283018868 748 c 0,62,63
 441.709334463 748 441.709334463 748 510.854492188 663.930664062 c 0,64,65
 544.5859375 622.23046875 544.5859375 622.23046875 561.29296875 564.770507812 c 128,-1,66
 578 507.310546875 578 507.310546875 578 434.36328125 c 0,67,68
 578 329.364257812 578 329.364257812 546.873046875 247.8515625 c 0,69,70
 515.587890625 165.926757812 515.587890625 165.926757812 456.899321934 110.33984375 c 0,71,72
 393.899156103 54.7841796875 393.899156103 54.7841796875 304.550983933 26.3115234375 c 0,73,74
 215.704838591 -2 215.704838591 -2 112 -2 c 2,75,-1
 102.317382812 -2 l 1,76,-1
 102.004882812 7.677734375 l 1,77,-1
 98.0048828125 126.895507812 l 1,78,-1
 97.67578125 136.71484375 l 1,79,-1
 107.893554688 136.819335938 l 2,80,81
 153.778320312 137.2890625 153.778320312 137.2890625 196.191959021 146.858398438 c 0,82,83
 240.056290537 156.428710938 240.056290537 156.428710938 278.659843013 175.083007812 c 0,84,85
 311.375608048 190.891601562 311.375608048 190.891601562 335.988576061 214.377929688 c 128,-1,86
 360.601544074 238.063476562 360.601544074 238.063476562 376.881706958 268.90625 c 1,87,88
 369.613870873 266.541015625 369.613870873 266.541015625 362.548735996 264.646484375 c 128,-1,89
 355.48360112 262.752929688 355.48360112 262.752929688 348.552900206 261.317382812 c 128,-1,90
 341.621149027 259.8828125 341.621149027 259.8828125 334.881596403 258.924804688 c 128,-1,46
 328.143094045 257.967773438 328.143094045 257.967773438 321.537975383 257.483398438 c 128,-1,47
EndSplineSet
Substitution2: "'ss02' Style Set 2 lookup 15 subtable" ninesuperior
Substitution2: "'sinf' Scientific Inferiors lookup 11 subtable" nine.sinf
Substitution2: "'subs' Subscript lookup 10 subtable" nine.sinf
Substitution2: "'sups' Superscript lookup 9 subtable" nine.sups
Substitution2: "'dnom' Denominators lookup 8 subtable" nineinferior
Substitution2: "'numr' Numerators lookup 6 subtable" ninesuperior
EndChar

StartChar: less
Encoding: 60 60 31
Width: 588
VWidth: 1177
Flags: W
LayerCount: 2
Fore
SplineSet
49.1422545741 378.22593086 m 1
 501.142254574 567.22593086 l 1
 511.247612987 571.451401523 l 1
 514.538094061 561.004124114 l 1
 554.538094061 434.004124114 l 1
 557.350457803 425.074869232 l 1
 548.625829549 421.680484987 l 1
 243.486736815 302.963755899 l 1
 548.650394384 183.30992056 l 1
 557.343034043 179.901560329 l 1
 554.538094061 170.995875886 l 1
 514.538094061 43.9958758864 l 1
 511.235162701 33.5090688197 l 1
 501.107589343 37.7886407478 l 1
 49.1075893425 228.788640748 l 1
 43 231.369502616 l 1
 43 238 l 1
 43 369 l 1
 43 375.657598748 l 1
 49.1422545741 378.22593086 l 1
EndSplineSet
EndChar

StartChar: equal
Encoding: 61 61 32
Width: 588
VWidth: 1177
Flags: W
LayerCount: 2
Fore
SplineSet
47 494 m 1
 542 494 l 1
 552 494 l 1
 552 484 l 1
 552 364 l 1
 552 354 l 1
 542 354 l 1
 47 354 l 1
 37 354 l 1
 37 364 l 1
 37 484 l 1
 37 494 l 1
 47 494 l 1
47 264 m 1
 542 264 l 1
 552 264 l 1
 552 254 l 1
 552 134 l 1
 552 124 l 1
 542 124 l 1
 47 124 l 1
 37 124 l 1
 37 134 l 1
 37 254 l 1
 37 264 l 1
 47 264 l 1
EndSplineSet
EndChar

StartChar: greater
Encoding: 62 62 33
Width: 588
VWidth: 1177
Flags: W
LayerCount: 2
Fore
SplineSet
544.885116323 227.78556181 m 1
 91.8851163229 36.78556181 l 1
 81.8345977668 32.5479259508 l 1
 78.4836203148 42.9277829363 l 1
 37.4836203148 169.927782936 l 1
 34.5885288002 178.895505433 l 1
 43.3687463058 182.31740289 l 1
 350.368229013 301.963726966 l 1
 43.3932212335 420.673095533 l 1
 34.580905021 424.080879446 l 1
 37.4836203148 433.072217064 l 1
 78.4836203148 560.072217064 l 1
 81.8282947871 570.432550185 l 1
 91.8678252211 566.221709606 l 1
 544.867825221 376.221709606 l 1
 551 373.649715769 l 1
 551 367 l 1
 551 237 l 1
 551 230.363801948 l 1
 544.885116323 227.78556181 l 1
EndSplineSet
EndChar

StartChar: question
Encoding: 63 63 34
Width: 588
VWidth: 1177
Flags: W
LayerCount: 2
Fore
SplineSet
186.136060762 263.356010127 m 2
 185.581777906 266.68170726 185.581777906 266.68170726 185.067570521 271.31270192 c 0
 184.553363136 275.94369658 184.553363136 275.94369658 184.034542418 282.169545201 c 2
 184 282.584054212 l 1
 184 332.695728185 184 332.695728185 210.354928133 378.026204574 c 0
 236.254931819 422.574210913 236.254931819 422.574210913 277.659661668 456.733113039 c 0
 304.130047015 478.301575173 304.130047015 478.301575173 327.146440041 503.276810159 c 0
 348 525.905141178 348 525.905141178 348 551 c 0
 348 566.500504434 348 566.500504434 342.91817271 577.597721218 c 0
 337.836345419 588.694938003 337.836345419 588.694938003 327.473973337 596.519586311 c 0
 316.638832516 604.701223257 316.638832516 604.701223257 302.620430792 608.850611629 c 0
 288.602029068 613 288.602029068 613 271 613 c 0
 234.534429687 613 234.534429687 613 200.998265967 602.460062831 c 0
 166.666715017 591.670146818 166.666715017 591.670146818 125.299335804 571.971394812 c 2
 115.363060099 567.239834952 l 1
 111.602065765 577.582569369 l 1
 71.6020657651 687.582569369 l 1
 68.8542617326 695.139030459 l 1
 75.6445797464 699.445085784 l 2
 117.962423883 726.280791822 117.962423883 726.280791822 174.972232914 741.175246434 c 0
 231.715255184 756 231.715255184 756 287 756 c 0
 298.417028545 756 298.417028545 756 309.180839647 755.476475392 c 0
 319.944650749 754.952950784 319.944650749 754.952950784 330.139141943 753.898579774 c 0
 340.333633137 752.844208763 340.333633137 752.844208763 349.901223993 751.247251195 c 0
 359.468814849 749.650293626 359.468814849 749.650293626 368.434378151 747.511785557 c 0
 377.399941453 745.373277488 377.399941453 745.373277488 385.768856506 742.67256372 c 0
 394.137771558 739.971849952 394.137771558 739.971849952 401.875886394 736.718324396 c 0
 424.763361386 727.095181501 424.763361386 727.095181501 442.785907405 715.124337016 c 0
 460.808453425 703.153492531 460.808453425 703.153492531 473.905603051 688.719899065 c 0
 499.902636754 660.070106821 499.902636754 660.070106821 510.557790087 625.440858488 c 0
 521 591.503676272 521 591.503676272 521 561 c 0
 521 524.751337732 521 524.751337732 506.537378389 494.219136553 c 0
 492.511542977 464.609039571 492.511542977 464.609039571 471.232677905 438.659204118 c 0
 460.758414177 425.885711766 460.758414177 425.885711766 449.511729286 414.000010954 c 0
 438.265044395 402.114310141 438.265044395 402.114310141 426.250134621 391.12194588 c 0
 418.48276659 384.015630448 418.48276659 384.015630448 411.047189723 376.96556022 c 0
 403.611612856 369.915489992 403.611612856 369.915489992 396.515534862 362.929403104 c 0
 389.419456868 355.943316216 389.419456868 355.943316216 382.655742059 349.014632752 c 0
 378.694456051 344.956730013 378.694456051 344.956730013 374.987746415 340.844482556 c 0
 371.281036779 336.732235099 371.281036779 336.732235099 367.839633282 332.579348396 c 0
 364.398229785 328.426461693 364.398229785 328.426461693 361.20943701 324.219379166 c 0
 358.020644235 320.012296638 358.020644235 320.012296638 355.093736478 315.765207113 c 0
 352.166828722 311.518117588 352.166828722 311.518117588 349.490566038 307.216981132 c 0
 343.178204226 297.072113935 343.178204226 297.072113935 340.089102113 286.591527318 c 0
 337 276.110940701 337 276.110940701 337 265 c 2
 337 255 l 1
 327 255 l 1
 196 255 l 1
 187.528729116 255 l 1
 186.136060762 263.356010127 l 2
379 84 m 0
 379 33.4337111725 379 33.4337111725 345.549305384 4.4431091721 c 0
 312.730333263 -24 312.730333263 -24 271 -24 c 0
 264.093300341 -24 264.093300341 -24 257.337921999 -23.2078313884 c 0
 250.582543658 -22.4156627767 250.582543658 -22.4156627767 243.992472081 -20.8306071114 c 0
 237.402400505 -19.2455514462 237.402400505 -19.2455514462 231.018134704 -16.8742527201 c 0
 211.73825565 -9.71315478587 211.73825565 -9.71315478587 195.824549842 4.55430559354 c 0
 179.772117288 18.9461416772 179.772117288 18.9461416772 170.905255244 38.3424023973 c 0
 162 57.8226482439 162 57.8226482439 162 84 c 0
 162 95.956016036 162 95.956016036 164.20254256 107.106165419 c 0
 166.405085119 118.256314801 166.405085119 118.256314801 170.82142964 128.469111507 c 0
 179.774478863 149.173037835 179.774478863 149.173037835 196.12432286 162.703943211 c 0
 201.378185163 167.051967186 201.378185163 167.051967186 207.015691423 170.74863023 c 0
 212.653197683 174.445293274 212.653197683 174.445293274 218.660209432 177.480317629 c 0
 224.667221182 180.515341983 224.667221182 180.515341983 231.018134704 182.87425272 c 0
 250.202838919 190 250.202838919 190 271 190 c 0
 273.959214525 190 273.959214525 190 276.892368643 189.854395877 c 0
 279.82552276 189.708791753 279.82552276 189.708791753 282.730656328 189.417527514 c 0
 285.635789895 189.126263274 285.635789895 189.126263274 288.510439981 188.689901404 c 0
 291.385090067 188.253539533 291.385090067 188.253539533 294.229343553 187.671413196 c 0
 297.073597038 187.089286859 297.073597038 187.089286859 299.8828075 186.362610106 c 0
 302.692017961 185.635933353 302.692017961 185.635933353 305.468455772 184.763387783 c 0
 308.244893583 183.890842213 308.244893583 183.890842213 310.981865296 182.87425272 c 0
 330.241044516 175.720843296 330.241044516 175.720843296 345.143638388 162.474093187 c 0
 352.703686011 155.754050856 352.703686011 155.754050856 358.820803191 147.27356683 c 0
 364.937920371 138.793082805 364.937920371 138.793082805 369.58676844 128.675001716 c 0
 379 108.187380084 379 108.187380084 379 84 c 0
EndSplineSet
EndChar

StartChar: at
Encoding: 64 64 35
Width: 588
VWidth: 1177
Flags: W
LayerCount: 2
Fore
SplineSet
554.76377047 55.7353342288 m 2
 521.691178539 42.2995937568 521.691178539 42.2995937568 479.04739976 35.6204476832 c 0
 436.77838763 29 436.77838763 29 405 29 c 0
 381.70187602 29 381.70187602 29 360.098351105 32.5138413869 c 0
 338.49482619 36.0276827739 338.49482619 36.0276827739 318.652349476 43.0769837116 c 0
 278.482074437 57.3480024757 278.482074437 57.3480024757 248.367714288 87.9906847318 c 0
 218.245179427 118.641685117 218.245179427 118.641685117 202.013167019 167.33772234 c 0
 186 215.377223398 186 215.377223398 186 284 c 0
 186 333.967859323 186 333.967859323 194.685611614 378.417754052 c 0
 199.108914717 401.05465817 199.108914717 401.05465817 206.974168865 420.979901254 c 0
 214.839423013 440.905144339 214.839423013 440.905144339 226.159809648 458.017356694 c 0
 248.982040915 492.516078376 248.982040915 492.516078376 284.566598944 512.69836502 c 0
 320.361586935 533 320.361586935 533 372 533 c 0
 390.840397117 533 390.840397117 533 418 528.798178029 c 1
 418 536 l 2
 418 577.101763135 418 577.101763135 392.138323829 605.232007391 c 0
 366.609685463 633 366.609685463 633 317 633 c 0
 304.709743508 633 304.709743508 633 292.88795893 631.276223129 c 0
 281.066174353 629.552446258 281.066174353 629.552446258 269.673659594 626.100448008 c 0
 258.281144836 622.648449758 258.281144836 622.648449758 247.264192317 617.45474357 c 0
 231.217834607 609.890032078 231.217834607 609.890032078 217.296881435 596.549111452 c 0
 203.375928263 583.208190826 203.375928263 583.208190826 191.537961758 563.793925757 c 0
 183.590013783 550.759291078 183.590013783 550.759291078 176.636666572 534.607459029 c 0
 169.683319361 518.45562698 169.683319361 518.45562698 163.678518302 498.940158556 c 0
 157.673717243 479.424690133 157.673717243 479.424690133 152.771763639 456.875703557 c 0
 145.418412288 423.050287339 145.418412288 423.050287339 141.709206144 380.028576565 c 0
 138 337.006865791 138 337.006865791 138 285 c 0
 138 264.707306049 138 264.707306049 138.773545909 245.532377806 c 0
 139.547091818 226.357449563 139.547091818 226.357449563 141.09033737 208.348468577 c 0
 142.633582923 190.339487591 142.633582923 190.339487591 144.939323979 173.4860887 c 0
 147.245065034 156.632689809 147.245065034 156.632689809 150.314554231 140.916905123 c 0
 162.409707183 78.9897220103 162.409707183 78.9897220103 191.201269543 37.7218159602 c 0
 219.595740347 -2.97692552577 219.595740347 -2.97692552577 267.027386143 -23.8468496758 c 0
 290.890889439 -34.346791126 290.890889439 -34.346791126 321.152649399 -39.673395563 c 0
 351.414409359 -45 351.414409359 -45 388 -45 c 0
 415.075727512 -45 415.075727512 -45 436.359841387 -43.6459159834 c 0
 457.643955262 -42.2918319668 457.643955262 -42.2918319668 472.779989765 -39.6490322916 c 0
 487.659196253 -37.0510756032 487.659196253 -37.0510756032 497.97903785 -34.680597105 c 0
 508.298879447 -32.3101186068 508.298879447 -32.3101186068 512.286093236 -30.7152330911 c 2
 524.300898193 -25.9093111086 l 1
 525.92128979 -38.747798376 l 1
 538.92128979 -141.747798376 l 1
 540.032210845 -150.549711353 l 1
 531.42535625 -152.701425001 l 2
 510.966101153 -157.816238776 510.966101153 -157.816238776 493.998053794 -160.387155042 c 0
 477.351610436 -162.90934343 477.351610436 -162.90934343 460.703313675 -164.92733782 c 0
 443.88886437 -166.965452888 443.88886437 -166.965452888 426.58722022 -167.982743732 c 0
 417.920832304 -168.492531256 417.920832304 -168.492531256 408.278716507 -168.746265628 c 0
 398.636600709 -169 398.636600709 -169 388 -169 c 0
 308.469543464 -169 308.469543464 -169 240.009141718 -147.542262139 c 0
 170.490441051 -125.752818647 170.490441051 -125.752818647 119.689447318 -71.3231825036 c 0
 69.1899562274 -17.216584907 69.1899562274 -17.216584907 40.0022441426 71.3706815961 c 0
 11 159.395036625 11 159.395036625 11 292 c 0
 11 420.36156496 11 420.36156496 35.3640233479 508.173565776 c 0
 47.592955065 552.24867384 47.592955065 552.24867384 64.3650717997 588.226206425 c 0
 81.1371885344 624.203739011 81.1371885344 624.203739011 102.57103167 652.093558994 c 0
 116.848620328 670.671626164 116.848620328 670.671626164 132.509121354 685.758162238 c 0
 148.16962238 700.844698312 148.16962238 700.844698312 165.337558074 712.491977738 c 0
 182.505493768 724.139257164 182.505493768 724.139257164 201.01906882 732.173450111 c 0
 219.304801826 740.108768208 219.304801826 740.108768208 238.314750756 745.406093792 c 0
 257.324699685 750.703419376 257.324699685 750.703419376 277.001459933 753.351709688 c 0
 296.678220181 756 296.678220181 756 317 756 c 0
 366.712927296 756 366.712927296 756 410.828201177 740.429903336 c 0
 419.727939332 737.288819281 419.727939332 737.288819281 428.207076811 733.445690746 c 0
 436.686214291 729.602562211 436.686214291 729.602562211 444.731150791 725.063659498 c 0
 452.776087291 720.524756785 452.776087291 720.524756785 460.381848048 715.295117354 c 0
 467.987608805 710.065477923 467.987608805 710.065477923 475.149380356 704.145636465 c 0
 482.311151907 698.225795006 482.311151907 698.225795006 489.015172645 691.626524592 c 0
 522.640275545 658.526813925 522.640275545 658.526813925 541.911201463 604.880722856 c 0
 561 551.741635036 561 551.741635036 561 477 c 2
 561 65 l 1
 561 58.2688024755 l 1
 554.76377047 55.7353342288 l 2
329 291 m 0
 329 269.622577483 329 269.622577483 331.922778767 246.240347346 c 0
 333.335447532 234.938997223 333.335447532 234.938997223 336.010907648 225.051553145 c 0
 338.686367764 215.164109068 338.686367764 215.164109068 342.58676844 206.675001716 c 0
 344.504715459 202.500646437 344.504715459 202.500646437 346.73875753 198.697363293 c 0
 348.972799602 194.894080149 348.972799602 194.894080149 351.52771088 191.453456847 c 0
 354.082622159 188.012833545 354.082622159 188.012833545 356.950729094 184.927328732 c 0
 359.81883603 181.841823919 359.81883603 181.841823919 363.029396221 179.074099616 c 0
 368.795675113 174.103169537 368.795675113 174.103169537 376.655180697 171.551584768 c 0
 384.514686282 169 384.514686282 169 395 169 c 0
 405.493091179 169 405.493091179 169 418 171.19419453 c 1
 418 389.901175557 l 1
 413.143899579 390.878913897 413.143899579 390.878913897 408.762146661 391.652164412 c 0
 401.124411661 393 401.124411661 393 393 393 c 0
 374.204650534 393 374.204650534 393 362.812381937 384.862665288 c 0
 350.727184425 376.230381351 350.727184425 376.230381351 343.331157195 362.30844774 c 0
 335.576460178 347.711371002 335.576460178 347.711371002 332.350304672 329.276196682 c 0
 329 310.131598559 329 310.131598559 329 291 c 0
EndSplineSet
Substitution2: "'case' Case-Sensitive Forms lookup 17 subtable" At
EndChar

StartChar: A
Encoding: 65 65 36
Width: 628
VWidth: 1177
Flags: W
LayerCount: 2
Fore
SplineSet
444.350768097 0 m 1,0,-1
 442.635564522 8.0166015625 l 1,1,-1
 408.420246042 168 l 1,2,-1
 219.684900111 168 l 1,3,-1
 186.487145244 8.072265625 l 1,4,-1
 184.811158117 0 l 1,5,-1
 176.117490901 0 l 1,6,-1
 23.693359375 0 l 1,7,-1
 11 0 l 1,8,-1
 13.970703125 12.0078125 l 2,9,10
 66.0322265625 222.432617188 66.0322265625 222.432617188 118.60546875 394.904296875 c 0,11,12
 173.405363949 567.202148438 173.405363949 567.202148438 226.272231289 722 c 2,13,-1
 228.598385836 729 l 1,14,-1
 236.353954346 729 l 1,15,-1
 403.325203895 729 l 1,16,-1
 411.00233951 729 l 1,17,-1
 413.374934587 722.090820312 l 2,18,19
 468.389418437 566.229492188 468.389418437 566.229492188 521.3125 391.392578125 c 0,20,21
 572.383789062 216.486328125 572.383789062 216.486328125 620.44140625 11.8984375 c 2,22,-1
 623.236328125 -0 l 1,23,-1
 610.693359375 0 l 1,24,-1
 452.993866736 0 l 1,25,-1
 444.350768097 0 l 1,0,-1
319.959292487 537.124023438 m 128,-1,27
 317.740467164 544.692382812 317.740467164 544.692382812 315.612458879 551.826171875 c 1,28,29
 314.412229181 547.805664062 314.412229181 547.805664062 313.269792143 543.944335938 c 128,-1,30
 312.128387117 540.083984375 312.128387117 540.083984375 311.022070491 536.309570312 c 128,-1,31
 309.915753865 532.536132812 309.915753865 532.536132812 308.848653687 528.862304688 c 128,-1,32
 307.782585521 525.189453125 307.782585521 525.189453125 306.728901496 521.524414062 c 128,-1,33
 305.676249482 517.859375 305.676249482 517.859375 304.645269716 514.237304688 c 128,-1,34
 303.61428995 510.615234375 303.61428995 510.615234375 302.574022078 506.923828125 c 0,35,36
 292.043373898 469.555664062 292.043373898 469.555664062 283.097895808 433.702148438 c 128,-1,37
 274.150353695 397.845703125 274.150353695 397.845703125 266.255463595 361.487304688 c 0,38,39
 259.681548571 331.2109375 259.681548571 331.2109375 252.543123104 299 c 1,40,-1
 377.996538833 299 l 1,41,42
 374.750861792 315.908203125 374.750861792 315.908203125 371.698170954 331.284179688 c 128,-1,43
 368.646512127 346.659179688 368.646512127 346.659179688 365.475139934 362.090820312 c 0,44,45
 358.131344123 397.828125 358.131344123 397.828125 348.687404345 433.57421875 c 128,-1,46
 339.198056048 469.495117188 339.198056048 469.495117188 328.649863667 506.923828125 c 0,47,48
 326.662208983 513.98046875 326.662208983 513.98046875 324.41964739 521.767578125 c 128,-1,26
 322.177085797 529.555664062 322.177085797 529.555664062 319.959292487 537.124023438 c 128,-1,27
EndSplineSet
EndChar

StartChar: B
Encoding: 66 66 37
Width: 628
VWidth: 1177
Flags: W
LayerCount: 2
Fore
SplineSet
564.165039062 323.045898438 m 0,0,1
 592 276.0390625 592 276.0390625 592 223.821289062 c 0,2,3
 592 157.314453125 592 157.314453125 568.944335938 112.454101562 c 128,-1,4
 545.791992188 67.4052734375 545.791992188 67.4052734375 505.169921875 40.203125 c 0,5,6
 485.052734375 26.732421875 485.052734375 26.732421875 460.579990672 17.2392578125 c 0,7,8
 435.132112873 7.7451171875 435.132112873 7.7451171875 405.965018657 2.212890625 c 0,9,10
 391.565648321 -0.5947265625 391.565648321 -0.5947265625 376.663596082 -2.69921875 c 128,-1,11
 361.760494403 -4.8037109375 361.760494403 -4.8037109375 346.371501866 -6.203125 c 128,-1,12
 330.982509328 -7.6025390625 330.982509328 -7.6025390625 315.110774254 -8.30078125 c 128,-1,13
 299.239039179 -9 299.239039179 -9 282.865671642 -9 c 0,14,15
 230.768306903 -9 230.768306903 -9 175.04296875 -3.9541015625 c 0,16,17
 122.44140625 0.9677734375 122.44140625 0.9677734375 71.8515625 11.7978515625 c 2,18,-1
 64 13.4794921875 l 1,19,-1
 64 21.3017578125 l 1,20,-1
 64 710.264648438 l 1,21,-1
 64 718.475585938 l 1,22,-1
 72.3173828125 719.857421875 l 2,23,24
 93.0048828125 723.389648438 93.0048828125 723.389648438 115.794921875 726.411132812 c 128,-1,25
 138.5859375 729.43359375 138.5859375 729.43359375 163.495117188 731.94921875 c 0,26,27
 188.826375933 734.474609375 188.826375933 734.474609375 215.29011194 735.737304688 c 128,-1,28
 241.754897388 737 241.754897388 737 267.820895522 737 c 0,29,30
 357.651935634 737 357.651935634 737 415.160214552 719.504882812 c 0,31,32
 473.205078125 702.298828125 473.205078125 702.298828125 504.318359375 674.081054688 c 0,33,34
 535.768554688 645.559570312 535.768554688 645.559570312 547.0546875 610.00390625 c 0,35,36
 558 575.5234375 558 575.5234375 558 540.004882812 c 0,37,38
 558 486.625 558 486.625 531.48046875 445.344726562 c 0,39,40
 521.041992188 429.096679688 521.041992188 429.096679688 507.37109375 415.408203125 c 128,-1,41
 493.700195312 401.71875 493.700195312 401.71875 477.428710938 390.98828125 c 1,42,43
 539.482421875 364.729492188 539.482421875 364.729492188 564.165039062 323.045898438 c 0,0,1
304.358208955 309 m 2,44,-1
 231.28358209 309 l 1,45,-1
 231.28358209 120 l 2,46,47
 234.650186567 120 234.650186567 120 237.769123134 120 c 0,48,49
 240.889109142 122.009765625 240.889109142 122.009765625 244.044776119 123.721679688 c 128,-1,50
 247.200443097 125.432617188 247.200443097 125.432617188 250.364505597 126.856445312 c 128,-1,51
 253.527518657 128.28125 253.527518657 128.28125 257.117653918 129.631835938 c 0,52,53
 276.717000933 137.002929688 276.717000933 137.002929688 295.76119403 137 c 0,54,55
 300.961170709 137 300.961170709 137 306.095032649 135.935546875 c 128,-1,56
 311.22994403 134.87109375 311.22994403 134.87109375 316.29244403 132.745117188 c 128,-1,57
 321.35599347 130.619140625 321.35599347 130.619140625 326.354477612 127.431640625 c 128,-1,58
 331.354011194 124.243164062 331.354011194 124.243164062 336.282182836 120 c 0,59,60
 341.211403918 120 341.211403918 120 346.077658582 120 c 0,61,62
 357.771571828 121.96484375 357.771571828 121.96484375 367.945895522 125.595703125 c 128,-1,63
 378.119169776 129.2265625 378.119169776 129.2265625 386.873600746 134.5078125 c 0,64,65
 403.911263993 144.787109375 403.911263993 144.787109375 415.442513993 164.235351562 c 128,-1,66
 426.865671642 183.501953125 426.865671642 183.501953125 426.865671642 214.575195312 c 0,67,68
 426.865671642 265.220703125 426.865671642 265.220703125 395.529384328 286.4609375 c 0,69,70
 362.27786847 309 362.27786847 309 304.358208955 309 c 2,44,-1
231.28358209 449 m 1,71,-1
 281.791044776 449 l 2,72,73
 300.549790112 449 300.549790112 449 316.140275187 451.776367188 c 128,-1,74
 331.731809701 454.551757812 331.731809701 454.551757812 343.638759328 459.7734375 c 128,-1,75
 355.546758396 464.994140625 355.546758396 464.994140625 364.517374067 472.694335938 c 0,76,77
 391.402985075 495.770507812 391.402985075 495.770507812 391.402985075 535.908203125 c 0,78,79
 391.402985075 548.720703125 391.402985075 548.720703125 389.369169776 558.748046875 c 128,-1,80
 387.335354478 568.776367188 387.335354478 568.776367188 383.524836754 575.938476562 c 0,81,82
 375.77681903 590.499023438 375.77681903 590.499023438 363.259095149 598.087890625 c 0,83,84
 358.90076959 600.729492188 358.90076959 600.729492188 354.003031716 602.814453125 c 128,-1,85
 349.105293843 604.8984375 349.105293843 604.8984375 343.500233209 606.4609375 c 128,-1,86
 337.895172575 608.022460938 337.895172575 608.022460938 331.697178172 609 c 0,87,88
 321.911147388 600.005859375 321.911147388 600.005859375 311.854361007 595.502929688 c 128,-1,89
 301.797574627 591 301.797574627 591 291.462686567 591 c 0,90,91
 283.027285448 591 283.027285448 591 274.179454291 592.544921875 c 128,-1,92
 265.331623134 594.088867188 265.331623134 594.088867188 256.075559701 597.182617188 c 0,93,94
 243.411963619 601.415039062 243.411963619 601.415039062 231.28358209 609 c 1,95,-1
 231.28358209 449 l 1,71,-1
EndSplineSet
EndChar

StartChar: C
Encoding: 67 67 38
Width: 628
VWidth: 1177
Flags: W
LayerCount: 2
Fore
SplineSet
442.409269895 -11.0341796875 m 128,-1,1
 409.669881137 -15 409.669881137 -15 372.714418812 -15 c 0,2,3
 203.477956282 -15 203.477956282 -15 115.779296875 84.923828125 c 0,4,5
 73.7138671875 134.66796875 73.7138671875 134.66796875 52.857421875 204.677734375 c 128,-1,6
 32 274.6875 32 274.6875 32 364.665039062 c 0,7,8
 32 454.896484375 32 454.896484375 57.0537109375 525.081054688 c 0,9,10
 82.224609375 595.58984375 82.224609375 595.58984375 128.09765625 644.763671875 c 0,11,12
 175.543995904 694.055664062 175.543995904 694.055664062 242.222308305 719.71484375 c 0,13,14
 264.406414834 728.484375 264.406414834 728.484375 288.007680199 734.330078125 c 128,-1,15
 311.608945564 740.176757812 311.608945564 740.176757812 336.505542002 743.087890625 c 128,-1,16
 361.40213844 746 361.40213844 746 387.641964046 746 c 0,17,18
 430.331661276 746 430.331661276 746 464.467383611 739.287109375 c 0,19,20
 480.869140625 735.970703125 480.869140625 735.970703125 494.8203125 732.130859375 c 128,-1,21
 508.770507812 728.291015625 508.770507812 728.291015625 520.901367188 723.903320312 c 0,22,23
 545.291015625 715.08203125 545.291015625 715.08203125 562.10546875 705.098632812 c 0,24,25
 567.33203125 701.995117188 567.33203125 701.995117188 571.75390625 699.454101562 c 128,-1,26
 576.174804688 696.9140625 576.174804688 696.9140625 579.587890625 695.046875 c 128,-1,27
 583 693.1796875 583 693.1796875 585.471679688 691.944335938 c 2,28,-1
 593.127929688 688.116210938 l 1,29,-1
 590.52734375 679.9609375 l 1,30,-1
 553.52734375 563.9609375 l 1,31,-1
 549.494140625 551.318359375 l 1,32,-1
 538.453125 558.6796875 l 2,33,34
 512.600585938 575.915039062 512.600585938 575.915039062 475.412109375 587.98828125 c 0,35,36
 455.881129566 593.966796875 455.881129566 593.966796875 433.109750749 596.983398438 c 128,-1,37
 410.338371932 600 410.338371932 600 384.443204353 600 c 0,38,39
 350.170035312 600 350.170035312 600 317.36504699 609 c 0,40,41
 301.295236332 603.193359375 301.295236332 603.193359375 287.067419781 593.544921875 c 128,-1,42
 272.838561968 583.897460938 272.838561968 583.897460938 260.303838926 570.236328125 c 0,43,44
 235.020933944 542.68359375 235.020933944 542.68359375 218.627290518 496.474609375 c 0,45,46
 214.541374817 484.9609375 214.541374817 484.9609375 211.459236571 471.909179688 c 128,-1,47
 208.377098325 458.857421875 208.377098325 458.857421875 206.295613746 444.235351562 c 128,-1,48
 204.214129167 429.61328125 204.214129167 429.61328125 203.16349488 413.376953125 c 128,-1,49
 202.113901856 397.141601562 202.113901856 397.141601562 202.113901856 379.43359375 c 0,50,51
 202.113901856 257.171875 202.113901856 257.171875 246.254078335 193.038085938 c 0,52,53
 260.475647308 172.374023438 260.475647308 172.374023438 280.549113897 158.6640625 c 128,-1,54
 300.621539223 144.954101562 300.621539223 144.954101562 327.390326392 137.977539062 c 128,-1,55
 354.158072299 131 354.158072299 131 387.641964046 131 c 0,56,57
 417.222161102 131 417.222161102 131 441.449225482 134.143554688 c 128,-1,58
 465.677331125 137.286132812 465.677331125 137.286132812 483.685546875 143.434570312 c 0,59,60
 501.754882812 149.783203125 501.754882812 149.783203125 516.112304688 156.111328125 c 128,-1,61
 530.469726562 162.438476562 530.469726562 162.438476562 540.913085938 168.609375 c 2,62,-1
 551.774414062 175.02734375 l 1,63,-1
 555.54296875 162.987304688 l 1,64,-1
 591.54296875 47.9873046875 l 1,65,-1
 593.872070312 40.5478515625 l 1,66,-1
 587.225585938 36.4736328125 l 2,67,68
 571.010742188 26.5361328125 571.010742188 26.5361328125 549.71875 17.6865234375 c 128,-1,69
 528.426757812 8.8369140625 528.426757812 8.8369140625 501.856445312 0.9169921875 c 0,70,0
 475.069335938 -7.068359375 475.069335938 -7.068359375 442.409269895 -11.0341796875 c 128,-1,1
EndSplineSet
EndChar

StartChar: D
Encoding: 68 68 39
Width: 628
VWidth: 1177
Flags: W
LayerCount: 2
Fore
SplineSet
231.223443223 609 m 2,0,-1
 231.223443223 137.0625 l 1,1,2
 233.295547877 137 233.295547877 137 234.97985348 137 c 2,3,-1
 248.395604396 137 l 2,4,5
 298.253984947 137 298.253984947 137 332.346761962 153.5546875 c 0,6,7
 349.407823947 161.838867188 349.407823947 161.838867188 362.98393501 173.288085938 c 128,-1,8
 376.560046074 184.737304688 376.560046074 184.737304688 386.852442479 199.522460938 c 0,9,10
 407.821890024 229.647460938 407.821890024 229.647460938 417.101816478 271.514648438 c 0,11,12
 421.82038762 292.806640625 421.82038762 292.806640625 424.189106141 316.169921875 c 128,-1,13
 426.556776557 339.534179688 426.556776557 339.534179688 426.556776557 364.958007812 c 0,14,15
 426.556776557 376.032226562 426.556776557 376.032226562 426.094562014 386.985351562 c 128,-1,16
 425.633395576 397.939453125 425.633395576 397.939453125 424.710014595 408.76953125 c 128,-1,17
 423.785585508 419.599609375 423.785585508 419.599609375 422.402086195 430.307617188 c 128,-1,18
 421.017538776 441.014648438 421.017538776 441.014648438 419.17182492 451.603515625 c 0,19,20
 411.93570427 493.116210938 411.93570427 493.116210938 393.459699805 524.260742188 c 0,21,22
 375.401889452 554.700195312 375.401889452 554.700195312 344.905162546 572.994140625 c 0,23,24
 314.885323661 591 314.885323661 591 266.641025641 591 c 0,25,26
 264.767012935 591 264.767012935 591 262.760938931 591.233398438 c 128,-1,27
 260.753816821 591.466796875 260.753816821 591.466796875 258.60834478 591.935546875 c 128,-1,28
 256.462872739 592.405273438 256.462872739 592.405273438 254.188483717 593.108398438 c 128,-1,29
 251.9151428 593.8125 251.9151428 593.8125 249.501355741 594.755859375 c 128,-1,30
 247.087568681 595.69921875 247.087568681 595.69921875 244.549057063 596.877929688 c 0,31,32
 241.231803028 598.418945312 241.231803028 598.418945312 237.721697573 601.697265625 c 128,-1,33
 234.211592119 604.975585938 234.211592119 604.975585938 231.223443223 609 c 2,0,-1
591.147460938 455.811523438 m 128,-1,35
 597 413.935546875 597 413.935546875 597 365.04296875 c 0,36,37
 597 315.123046875 597 315.123046875 590.50390625 272.333007812 c 128,-1,38
 584.0078125 229.54296875 584.0078125 229.54296875 570.918945312 193.806640625 c 128,-1,39
 557.833984375 158.083007812 557.833984375 158.083007812 539.755859375 128.912109375 c 128,-1,40
 521.676757812 99.740234375 521.676757812 99.740234375 498.571289062 77.2421875 c 0,41,42
 449.796420702 32.310546875 449.796420702 32.310546875 381.629732572 11.5908203125 c 0,43,44
 347.496079441 1.3525390625 347.496079441 1.3525390625 310.151030935 -3.7548828125 c 128,-1,45
 272.805982429 -9 272.805982429 -9 232.296703297 -9 c 0,46,47
 189.861006181 -9 189.861006181 -9 151.924804688 -4.9423828125 c 0,48,49
 133.146484375 -2.912109375 133.146484375 -2.912109375 113.14453125 0.3798828125 c 128,-1,50
 93.142578125 3.6708984375 93.142578125 3.6708984375 71.904296875 8.2216796875 c 2,51,-1
 64 9.916015625 l 1,52,-1
 64 17.7783203125 l 1,53,-1
 64 710.267578125 l 1,54,-1
 64 718.051757812 l 1,55,-1
 71.8095703125 719.756835938 l 2,56,57
 121.552734375 730.923828125 121.552734375 730.923828125 165.811523438 733.9765625 c 0,58,59
 211.534780649 737 211.534780649 737 252.688644689 737 c 0,60,61
 331.801747081 737 331.801747081 737 397.394288004 715.997070312 c 0,62,63
 419.473679315 708.926757812 419.473679315 708.926757812 439.334231198 699.069335938 c 128,-1,64
 459.194783082 689.211914062 459.194783082 689.211914062 476.798763736 676.576171875 c 0,65,66
 493.21484375 663.94140625 493.21484375 663.94140625 507.428710938 648.581054688 c 0,67,68
 549.841796875 602.750976562 549.841796875 602.750976562 573.5 532.639648438 c 0,69,34
 585.294921875 497.686523438 585.294921875 497.686523438 591.147460938 455.811523438 c 128,-1,35
EndSplineSet
EndChar

StartChar: E
Encoding: 69 69 40
Width: 628
VWidth: 1177
Flags: W
LayerCount: 2
Fore
SplineSet
74 0 m 1,0,-1
 74 10 l 1,1,-1
 74 719 l 1,2,-1
 74 729 l 1,3,-1
 84 729 l 1,4,-1
 546 729 l 1,5,-1
 556 729 l 1,6,-1
 556 719 l 1,7,-1
 556 617.461914062 l 1,8,-1
 556 609 l 1,9,-1
 546 609 l 1,10,-1
 242.629032258 609 l 1,11,-1
 242.629032258 455 l 1,12,-1
 507 455 l 1,13,-1
 517 455 l 1,14,-1
 517 445 l 1,15,-1
 517 325 l 1,16,-1
 517 315 l 1,17,-1
 507 315 l 1,18,-1
 242.629032258 315 l 1,19,-1
 242.629032258 120 l 1,20,-1
 572 120 l 1,21,-1
 582 120 l 1,22,-1
 582 111.538085938 l 1,23,-1
 582 10 l 1,24,-1
 582 0 l 1,25,-1
 572 0 l 1,26,-1
 84 0 l 1,27,-1
 74 0 l 1,0,-1
EndSplineSet
EndChar

StartChar: F
Encoding: 70 70 41
Width: 628
VWidth: 1177
Flags: W
LayerCount: 2
Fore
SplineSet
74 0 m 1,0,-1
 74 10 l 1,1,-1
 74 719 l 1,2,-1
 74 729 l 1,3,-1
 84 729 l 1,4,-1
 551 729 l 1,5,-1
 561 729 l 1,6,-1
 561 719 l 1,7,-1
 561 617.461914062 l 1,8,-1
 561 609 l 1,9,-1
 551 609 l 1,10,-1
 242.964757709 609 l 1,11,-1
 242.964757709 442 l 1,12,-1
 513 442 l 1,13,-1
 523 442 l 1,14,-1
 523 432 l 1,15,-1
 523 312 l 1,16,-1
 523 302 l 1,17,-1
 513 302 l 1,18,-1
 242.964757709 302 l 1,19,-1
 242.964757709 10 l 1,20,-1
 242.964757709 0 l 1,21,-1
 232.083700441 0 l 1,22,-1
 84 0 l 1,23,-1
 74 0 l 1,0,-1
EndSplineSet
EndChar

StartChar: G
Encoding: 71 71 42
Width: 628
VWidth: 1177
Flags: W
LayerCount: 2
Fore
SplineSet
432.475959626 596.7734375 m 128,-1,1
 412.580359049 600 412.580359049 600 392.135490228 600 c 0,2,3
 339.347372567 600 339.347372567 600 304.374515039 582.939453125 c 0,4,5
 286.787508693 574.359375 286.787508693 574.359375 272.277238315 562.555664062 c 128,-1,6
 257.765925683 550.751953125 257.765925683 550.751953125 246.180222083 535.586914062 c 0,7,8
 222.825378051 505.017578125 222.825378051 505.017578125 212.595647858 462.270507812 c 0,9,10
 202.161635737 418.669921875 202.161635737 418.669921875 202.161635737 365.020507812 c 0,11,12
 202.161635737 242.282226562 202.161635737 242.282226562 244.126980262 185.713867188 c 0,13,14
 284.71654854 131 284.71654854 131 365.453769092 131 c 0,15,16
 378.972855219 131 378.972855219 131 394.627521292 131.977539062 c 0,17,18
 404.638377992 132.603515625 404.638377992 132.603515625 414.548135983 133.715820312 c 1,19,-1
 414.548135983 392 l 1,20,-1
 414.548135983 402 l 1,21,-1
 425.220824438 402 l 1,22,-1
 573 402 l 1,23,-1
 583 402 l 1,24,-1
 583 392 l 1,25,-1
 583 28 l 1,26,-1
 583 20.87890625 l 1,27,-1
 576.271484375 18.5498046875 l 2,28,29
 549.719726562 9.359375 549.719726562 9.359375 494.650390625 -2.765625 c 0,30,31
 437.054584663 -15 437.054584663 -15 352.646542946 -15 c 0,32,33
 277.844963093 -15 277.844963093 -15 217.104441828 9.8349609375 c 0,34,35
 186.61640641 21.958984375 186.61640641 21.958984375 160.498545084 40.0634765625 c 0,36,37
 135.491210938 58.16796875 135.491210938 58.16796875 115.271484375 82.12109375 c 0,38,39
 74.9794921875 129.8515625 74.9794921875 129.8515625 53.4052734375 201.294921875 c 0,40,41
 32 272.180664062 32 272.180664062 32 365.0078125 c 0,42,43
 32 457.083007812 32 457.083007812 57.0400390625 528.159179688 c 0,44,45
 82.1875 599.541992188 82.1875 599.541992188 126.012695312 647.68359375 c 0,46,47
 136.991210938 659.743164062 136.991210938 659.743164062 149.000976562 670.349609375 c 0,48,49
 161.615842156 680.956054688 161.615842156 680.956054688 175.510139987 690.090820312 c 128,-1,50
 189.403395563 699.225585938 189.403395563 699.225585938 204.375384787 706.885742188 c 128,-1,51
 219.348416265 714.546875 219.348416265 714.546875 235.362660221 720.711914062 c 0,52,53
 299.25600205 746 299.25600205 746 370.790113319 746 c 0,54,55
 416.626391918 746 416.626391918 746 453.906801423 739.322265625 c 0,56,57
 461.290133944 738 461.290133944 738 468.255522317 736.59765625 c 0,58,59
 474.848632812 735.194335938 474.848632812 735.194335938 481.029296875 733.701171875 c 128,-1,60
 487.208984375 732.208007812 487.208984375 732.208007812 493.006835938 730.630859375 c 128,-1,61
 498.803710938 729.052734375 498.803710938 729.052734375 504.252929688 727.380859375 c 128,-1,62
 509.702148438 725.708007812 509.702148438 725.708007812 514.77734375 723.947265625 c 0,63,64
 540.234375 715.115234375 540.234375 715.115234375 557.10546875 705.098632812 c 0,65,66
 572.599609375 695.899414062 572.599609375 695.899414062 581.061523438 692.137695312 c 2,67,-1
 589.314453125 688.469726562 l 1,68,-1
 586.502929688 679.88671875 l 1,69,-1
 548.502929688 563.88671875 l 1,70,-1
 544.556640625 551.838867188 l 1,71,-1
 533.758789062 558.483398438 l 2,72,73
 508.658203125 573.930664062 508.658203125 573.930664062 471.65234375 587.077148438 c 0,74,0
 452.372602458 593.546875 452.372602458 593.546875 432.475959626 596.7734375 c 128,-1,1
EndSplineSet
EndChar

StartChar: H
Encoding: 72 72 43
Width: 628
VWidth: 1177
Flags: W
LayerCount: 2
Fore
SplineSet
576 729 m 1,0,-1
 576 719 l 1,1,-1
 576 10 l 1,2,-1
 576 0 l 1,3,-1
 566 0 l 1,4,-1
 418.338403042 0 l 1,5,-1
 407.577946768 0 l 1,6,-1
 407.577946768 10 l 1,7,-1
 407.577946768 312 l 1,8,-1
 221.422053232 312 l 1,9,-1
 221.422053232 10 l 1,10,-1
 221.422053232 0 l 1,11,-1
 210.661596958 0 l 1,12,-1
 63 0 l 1,13,-1
 53 0 l 1,14,-1
 53 10 l 1,15,-1
 53 719 l 1,16,-1
 53 729 l 1,17,-1
 63 729 l 1,18,-1
 210.661596958 729 l 1,19,-1
 221.422053232 729 l 1,20,-1
 221.422053232 719 l 1,21,-1
 221.422053232 452 l 1,22,-1
 407.577946768 452 l 1,23,-1
 407.577946768 719 l 1,24,-1
 407.577946768 729 l 1,25,-1
 418.338403042 729 l 1,26,-1
 566 729 l 1,27,-1
 576 729 l 1,0,-1
EndSplineSet
EndChar

StartChar: I
Encoding: 73 73 44
Width: 628
VWidth: 1177
Flags: W
LayerCount: 2
Fore
SplineSet
64 0 m 1,0,-1
 64 10 l 1,1,-1
 64 111.538085938 l 1,2,-1
 64 120 l 1,3,-1
 74 120 l 1,4,-1
 226.209876543 120 l 1,5,-1
 226.209876543 609 l 1,6,-1
 74 609 l 1,7,-1
 64 609 l 1,8,-1
 64 617.461914062 l 1,9,-1
 64 719 l 1,10,-1
 64 729 l 1,11,-1
 74 729 l 1,12,-1
 557 729 l 1,13,-1
 567 729 l 1,14,-1
 567 719 l 1,15,-1
 567 617.461914062 l 1,16,-1
 567 609 l 1,17,-1
 557 609 l 1,18,-1
 405.872427984 609 l 1,19,-1
 405.872427984 120 l 1,20,-1
 557 120 l 1,21,-1
 567 120 l 1,22,-1
 567 111.538085938 l 1,23,-1
 567 10 l 1,24,-1
 567 0 l 1,25,-1
 557 0 l 1,26,-1
 74 0 l 1,27,-1
 64 0 l 1,0,-1
EndSplineSet
EndChar

StartChar: J
Encoding: 74 74 45
Width: 628
VWidth: 1177
Flags: W
LayerCount: 2
Fore
SplineSet
558.534179688 719 m 1,0,-1
 558.534179688 247.23828125 l 2,1,2
 558.534179688 220.813476562 558.534179688 220.813476562 555.064453125 195.815429688 c 128,-1,3
 551.594726562 170.81640625 551.594726562 170.81640625 544.645507812 147.282226562 c 0,4,5
 530.518554688 99.4443359375 530.518554688 99.4443359375 497.513671875 63.263671875 c 128,-1,6
 464.486328125 27.0576171875 464.486328125 27.0576171875 410.802611163 6.2607421875 c 0,7,8
 382.932859472 -4.4248046875 382.932859472 -4.4248046875 349.637045076 -9.7119140625 c 128,-1,9
 316.340175847 -15 316.340175847 -15 277.591927914 -15 c 0,10,11
 195.70732535 -15 195.70732535 -15 142.533203125 4.1328125 c 0,12,13
 91.6201171875 23.1611328125 91.6201171875 23.1611328125 55.42578125 51.08203125 c 2,14,-1
 49 56.0390625 l 1,15,-1
 52.5283203125 63.34765625 l 1,16,-1
 108.528320312 179.34765625 l 1,17,-1
 113.482421875 189.609375 l 1,18,-1
 123.013671875 183.364257812 l 2,19,20
 151.479492188 164.71484375 151.479492188 164.71484375 188.3403693 147.494140625 c 0,21,22
 206.738772426 139.213867188 206.738772426 139.213867188 225.496873722 135.106445312 c 128,-1,23
 244.254975018 131 244.254975018 131 263.549986484 131 c 0,24,25
 321.078487213 131 321.078487213 131 355.295171115 158.545898438 c 0,26,27
 388.847310012 185.556640625 388.847310012 185.556640625 388.847310012 262 c 2,28,-1
 388.847310012 609 l 1,29,-1
 138.534179688 609 l 1,30,-1
 128.534179688 609 l 1,31,-1
 128.534179688 617.461914062 l 1,32,-1
 128.534179688 719 l 1,33,-1
 128.534179688 729 l 1,34,-1
 138.534179688 729 l 1,35,-1
 548.534179688 729 l 1,36,-1
 558.534179688 729 l 1,37,-1
 558.534179688 719 l 1,0,-1
EndSplineSet
EndChar

StartChar: K
Encoding: 75 75 46
Width: 628
VWidth: 1177
Flags: W
LayerCount: 2
Fore
SplineSet
430.43506784 0 m 1,0,-1
 428.078956523 6.9775390625 l 2,1,2
 414.484246237 47.2294921875 414.484246237 47.2294921875 389.293099325 94.5283203125 c 128,-1,3
 364.006251644 142.005859375 364.006251644 142.005859375 332.924306327 186.517578125 c 128,-1,4
 301.817395592 231.064453125 301.817395592 231.064453125 267.565882424 270.146484375 c 0,5,6
 255.551275047 283.854492188 255.551275047 283.854492188 243.804005688 296.21484375 c 128,-1,7
 232.056736328 308.576171875 232.056736328 308.576171875 220.933602417 319.26171875 c 1,8,-1
 220.933602417 10 l 1,9,-1
 220.933602417 0 l 1,10,-1
 210.281690769 0 l 1,11,-1
 63 0 l 1,12,-1
 53 0 l 1,13,-1
 53 10 l 1,14,-1
 53 719 l 1,15,-1
 53 729 l 1,16,-1
 63 729 l 1,17,-1
 210.281690769 729 l 1,18,-1
 220.933602417 729 l 1,19,-1
 220.933602417 719 l 1,20,-1
 220.933602417 445.3671875 l 1,21,22
 239.630619991 468.65625 239.630619991 468.65625 259.075559878 494.734375 c 0,23,24
 288.755280888 534.5390625 288.755280888 534.5390625 315.776184889 574.828125 c 128,-1,25
 342.760680989 615.063476562 342.760680989 615.063476562 364.969500685 653.288085938 c 128,-1,26
 387.18352151 691.520507812 387.18352151 691.520507812 403.023038958 723.244140625 c 2,27,-1
 405.897182697 729 l 1,28,-1
 412.668012083 729 l 1,29,-1
 581 729 l 1,30,-1
 597.180664062 729 l 1,31,-1
 589.944335938 714.9140625 l 2,32,33
 573.826171875 683.5390625 573.826171875 683.5390625 550.6953125 643.896484375 c 128,-1,34
 527.512695312 604.1640625 527.512695312 604.1640625 497.676300345 561.0390625 c 0,35,36
 481.905437796 539.544921875 481.905437796 539.544921875 465.069384083 517.568359375 c 128,-1,37
 448.233330369 495.592773438 448.233330369 495.592773438 430.333125717 473.1328125 c 0,38,39
 422.159031798 462.877929688 422.159031798 462.877929688 413.622939319 452.584960938 c 128,-1,40
 405.085806614 442.291015625 405.085806614 442.291015625 396.407203208 432.219726562 c 128,-1,41
 387.729640027 422.1484375 387.729640027 422.1484375 378.923088854 412.296875 c 128,-1,42
 370.115497455 402.446289062 370.115497455 402.446289062 361.259015446 392.90234375 c 1,43,44
 397.903047832 360.278320312 397.903047832 360.278320312 434.239173397 319.551757812 c 0,45,46
 454.41123108 296.942382812 454.41123108 296.942382812 473.499373536 272.745117188 c 128,-1,47
 492.587515991 248.548828125 492.587515991 248.548828125 509.9296875 222.767578125 c 0,48,49
 543.720703125 171.225585938 543.720703125 171.225585938 570.9609375 117.709960938 c 128,-1,50
 598.28125 64.0361328125 598.28125 64.0361328125 615.504882812 12.7578125 c 2,51,-1
 619.790039062 -0 l 1,52,-1
 606 0 l 1,53,-1
 438.232600039 0 l 1,54,-1
 430.43506784 0 l 1,0,-1
EndSplineSet
EndChar

StartChar: L
Encoding: 76 76 47
Width: 628
VWidth: 1177
Flags: W
LayerCount: 2
Fore
SplineSet
582 0 m 1,0,-1
 572 0 l 1,1,-1
 94 0 l 1,2,-1
 84 0 l 1,3,-1
 84 10 l 1,4,-1
 84 719 l 1,5,-1
 84 729 l 1,6,-1
 94 729 l 1,7,-1
 243.025210084 729 l 1,8,-1
 253.865546218 729 l 1,9,-1
 253.865546218 719 l 1,10,-1
 253.865546218 120 l 1,11,-1
 572 120 l 1,12,-1
 582 120 l 1,13,-1
 582 111.538085938 l 1,14,-1
 582 10 l 1,15,-1
 582 0 l 1,0,-1
EndSplineSet
EndChar

StartChar: M
Encoding: 77 77 48
Width: 628
VWidth: 1177
Flags: W
LayerCount: 2
Fore
SplineSet
211.601789549 729 m 1,0,-1
 213.967295828 722.047851562 l 2,1,2
 222.463596254 697.078125 222.463596254 697.078125 235.752175641 658.587890625 c 128,-1,3
 249.06671537 620.01953125 249.06671537 620.01953125 263.970027972 574.970703125 c 128,-1,4
 278.867110092 529.940429688 278.867110092 529.940429688 293.763153799 483.911132812 c 0,5,6
 303.105761344 455.041992188 303.105761344 455.041992188 312.199149614 428.439453125 c 1,7,8
 317.623822485 444.211914062 317.623822485 444.211914062 322.79616084 459.01953125 c 128,-1,9
 327.968499195 473.827148438 327.968499195 473.827148438 333.581124934 489.662109375 c 0,10,11
 350.051403724 536.131835938 350.051403724 536.131835938 364.925640744 579.095703125 c 128,-1,12
 379.805069832 622.075195312 379.805069832 622.075195312 392.555750953 659.547851562 c 0,13,14
 398.963801543 678.377929688 398.963801543 678.377929688 404.572273628 694.078125 c 128,-1,15
 410.181784127 709.778320312 410.181784127 709.778320312 415.009369153 722.38671875 c 2,16,-1
 417.5399832 729 l 1,17,-1
 425.013446188 729 l 1,18,-1
 548.454101562 729 l 1,19,-1
 557.647460938 729 l 1,20,-1
 558.418945312 719.838867188 l 2,21,22
 566.41796875 627.424804688 566.41796875 627.424804688 574.416015625 538.903320312 c 128,-1,23
 582.4296875 450.213867188 582.4296875 450.213867188 587.438476562 363.462890625 c 128,-1,24
 592.443359375 276.784179688 592.443359375 276.784179688 595.946289062 189.133789062 c 128,-1,25
 599.448242188 101.53125 599.448242188 101.53125 602.44921875 10.0400390625 c 2,26,-1
 602.778320312 0 l 1,27,-1
 592.454101562 0 l 1,28,-1
 457.976848867 0 l 1,29,-1
 447.211614631 0 l 1,30,-1
 447.344531577 10.123046875 l 1,31,-1
 453.825271122 503.801757812 l 1,32,-1
 379.92967947 265.203125 l 1,33,-1
 377.698128551 258 l 1,34,-1
 369.719996533 258 l 1,35,-1
 257.006426083 258 l 1,36,-1
 248.928606355 258 l 1,37,-1
 246.762475496 265.318359375 l 1,38,-1
 177.050652411 500.877929688 l 1,39,-1
 182.572936163 10.10546875 l 1,40,-1
 182.68612325 -0 l 1,41,-1
 171.93958046 0 l 1,42,-1
 37.4541015625 0 l 1,43,-1
 27 0 l 1,44,-1
 27.4638671875 10.162109375 l 2,45,46
 31.4638671875 97.7138671875 31.4638671875 97.7138671875 35.462890625 191.592773438 c 128,-1,47
 39.4638671875 285.512695312 39.4638671875 285.512695312 43.9658203125 377.974609375 c 128,-1,48
 48.470703125 470.521484375 48.470703125 470.521484375 54.98046875 558.215820312 c 128,-1,49
 61.4921875 645.942382812 61.4921875 645.942382812 69.5087890625 720.046875 c 2,50,-1
 70.4521484375 729 l 1,51,-1
 79.4541015625 729 l 1,52,-1
 203.839647569 729 l 1,53,-1
 211.601789549 729 l 1,0,-1
EndSplineSet
EndChar

StartChar: N
Encoding: 78 78 49
Width: 628
VWidth: 1177
Flags: W
LayerCount: 2
Fore
SplineSet
440.207925497 0 m 1,0,-1
 437.484812769 6.24609375 l 2,1,2
 384.862499252 126.942382812 384.862499252 126.942382812 322.033244283 247.647460938 c 0,3,4
 268.192364104 351.083984375 268.192364104 351.083984375 207.375478927 454.990234375 c 1,5,-1
 207.375478927 10 l 1,6,-1
 207.375478927 0 l 1,7,-1
 196.609195402 0 l 1,8,-1
 64 0 l 1,9,-1
 54 0 l 1,10,-1
 54 10 l 1,11,-1
 54 719 l 1,12,-1
 54 729 l 1,13,-1
 64 729 l 1,14,-1
 181.536398467 729 l 1,15,-1
 187.455751616 729 l 1,16,-1
 190.626758561 724.358398438 l 2,17,18
 226.345796665 672.079101562 226.345796665 672.079101562 262.045909662 611.288085938 c 128,-1,19
 297.631420618 550.692382812 297.631420618 550.692382812 331.062623473 490.58984375 c 128,-1,20
 364.52641957 430.432617188 364.52641957 430.432617188 393.15169645 373.74609375 c 0,21,22
 408.356969139 343.634765625 408.356969139 343.634765625 421.624521073 316.634765625 c 1,23,-1
 421.624521073 719 l 1,24,-1
 421.624521073 729 l 1,25,-1
 432.390804598 729 l 1,26,-1
 565 729 l 1,27,-1
 575 729 l 1,28,-1
 575 719 l 1,29,-1
 575 10 l 1,30,-1
 575 0 l 1,31,-1
 565 0 l 1,32,-1
 447.463601533 0 l 1,33,-1
 440.207925497 0 l 1,0,-1
EndSplineSet
EndChar

StartChar: O
Encoding: 79 79 50
Width: 628
VWidth: 1177
Flags: W
LayerCount: 2
Fore
SplineSet
203.138175589 425.987304688 m 128,-1,1
 202.081967213 401.438476562 202.081967213 401.438476562 202.081967213 375.12890625 c 0,2,3
 202.081967213 322.530273438 202.081967213 322.530273438 206.304719518 276.43359375 c 0,4,5
 208.380715292 253.775390625 208.380715292 253.775390625 212.638847976 234.272460938 c 128,-1,6
 216.895940061 214.770507812 216.895940061 214.770507812 223.271692495 198.486328125 c 0,7,8
 225.068807633 193.896484375 225.068807633 193.896484375 227.063636655 189.591796875 c 128,-1,9
 229.058465676 185.287109375 229.058465676 185.287109375 231.233318391 181.296875 c 128,-1,10
 233.408171107 177.306640625 233.408171107 177.306640625 235.778656506 173.59375 c 128,-1,11
 238.150182505 169.879882812 238.150182505 169.879882812 240.695488601 166.469726562 c 128,-1,12
 243.240794698 163.05859375 243.240794698 163.05859375 245.981733478 159.916992188 c 128,-1,13
 248.722672259 156.774414062 248.722672259 156.774414062 251.631147541 153.923828125 c 128,-1,14
 254.540663422 151.07421875 254.540663422 151.07421875 257.644771388 148.483398438 c 0,15,16
 278.592037013 131 278.592037013 131 313.967213115 131 c 128,-1,17
 349.407946977 131 349.407946977 131 370.909852075 147.828125 c 0,18,19
 378.322041496 153.629882812 378.322041496 153.629882812 384.622870774 160.841796875 c 128,-1,20
 390.923700051 168.0546875 390.923700051 168.0546875 396.228675717 176.90234375 c 128,-1,21
 401.533651383 185.750976562 401.533651383 185.750976562 405.710617316 196.12890625 c 0,22,23
 418.554735528 228.03515625 418.554735528 228.03515625 422.695280482 270.900390625 c 0,24,25
 424.805616035 292.735351562 424.805616035 292.735351562 425.861824411 316.268554688 c 128,-1,26
 426.918032787 339.80078125 426.918032787 339.80078125 426.918032787 365.020507812 c 0,27,28
 426.918032787 415.44140625 426.918032787 415.44140625 422.695280482 459.62890625 c 0,29,30
 418.552654329 502.96875 418.552654329 502.96875 405.710617316 534.87109375 c 0,31,32
 393.31187564 565.673828125 393.31187564 565.673828125 371.355228612 583.240234375 c 0,33,34
 350.407962987 600 350.407962987 600 313.967213115 600 c 0,35,36
 310.202324539 600 310.202324539 600 306.620581455 600.145507812 c 128,-1,37
 303.03987897 600.291015625 303.03987897 600.291015625 299.670418161 600.580078125 c 128,-1,38
 296.299916752 600.870117188 296.299916752 600.870117188 293.111520236 601.297851562 c 128,-1,39
 289.92208312 601.7265625 289.92208312 601.7265625 286.92619749 602.296875 c 128,-1,40
 283.93031186 602.8671875 283.93031186 602.8671875 281.113409324 603.5703125 c 128,-1,41
 278.295466189 604.272460938 278.295466189 604.272460938 275.653384349 605.115234375 c 128,-1,42
 273.01130251 605.958007812 273.01130251 605.958007812 270.546122567 606.92578125 c 128,-1,43
 268.079902024 607.893554688 268.079902024 607.893554688 265.771852587 609 c 0,44,45
 263.463803151 607.616210938 263.463803151 607.616210938 261.329533811 606.083984375 c 128,-1,46
 259.194223873 604.551757812 259.194223873 604.551757812 257.200435451 602.849609375 c 0,47,48
 235.728707736 584.521484375 235.728707736 584.521484375 223.304991675 551.859375 c 0,49,50
 216.905305456 535.032226562 216.905305456 535.032226562 212.643010374 515.387695312 c 128,-1,51
 208.380715292 495.7421875 208.380715292 495.7421875 206.304719518 473.314453125 c 0,52,0
 204.194383965 450.536132812 204.194383965 450.536132812 203.138175589 425.987304688 c 128,-1,1
49.3359375 201.591796875 m 128,-1,54
 32 272.153320312 32 272.153320312 32 365.012695312 c 0,55,56
 32 551.341796875 32 551.341796875 103.385742188 647.921875 c 0,57,58
 177.444736168 746 177.444736168 746 313.967213115 746 c 0,59,60
 455.894563268 746 455.894563268 746 527.680664062 648.319335938 c 0,61,62
 597 552.255859375 597 552.255859375 597 365.012695312 c 0,63,64
 597 178.70703125 597 178.70703125 526.640625 82.6259765625 c 0,65,66
 491.053710938 34.0302734375 491.053710938 34.0302734375 438.217901511 9.515625 c 0,67,68
 384.460537269 -15 384.460537269 -15 316.098360656 -15 c 0,69,70
 174.194944288 -15 174.194944288 -15 101.83984375 82.6533203125 c 0,71,53
 66.671875 131.03125 66.671875 131.03125 49.3359375 201.591796875 c 128,-1,54
EndSplineSet
EndChar

StartChar: P
Encoding: 80 80 51
Width: 628
VWidth: 1177
Flags: W
LayerCount: 2
Fore
SplineSet
265.424689798 736.887695312 m 128,-1,1
 273.376565372 737 273.376565372 737 280.617647059 737 c 0,2,3
 433.397446576 737 433.397446576 737 515.474609375 679.172851562 c 0,4,5
 542.45703125 659.461914062 542.45703125 659.461914062 560.423828125 631.393554688 c 128,-1,6
 578.390625 603.32421875 578.390625 603.32421875 587.1953125 567.766601562 c 128,-1,7
 596 532.208007812 596 532.208007812 596 488.951171875 c 0,8,9
 596 355.650390625 596 355.650390625 515.049804688 295.352539062 c 0,10,11
 432.380529067 236 432.380529067 236 276.323529412 236 c 2,12,-1
 231.235294118 236 l 1,13,-1
 231.235294118 10 l 1,14,-1
 231.235294118 0 l 1,15,-1
 220.5 0 l 1,16,-1
 74 0 l 1,17,-1
 64 0 l 1,18,-1
 64 10 l 1,19,-1
 64 710.266601562 l 1,20,-1
 64 717.948242188 l 1,21,-1
 71.68359375 719.728515625 l 2,22,23
 93.2734375 724.868164062 93.2734375 724.868164062 120.375 727.936523438 c 0,24,25
 147.0703125 730.958984375 147.0703125 730.958984375 174.26171875 732.97265625 c 0,26,27
 202.713378906 734.985351562 202.713378906 734.985351562 230.822236903 735.9921875 c 0,28,29
 240.187313304 736.328125 240.187313304 736.328125 248.830063764 736.551757812 c 128,-1,0
 257.472814223 736.775390625 257.472814223 736.775390625 265.424689798 736.887695312 c 128,-1,1
350.751407399 585.213867188 m 128,-1,31
 327.473431756 591 327.473431756 591 297.794117647 591 c 0,32,33
 290.903191062 591 290.903191062 591 281.284409467 592.20703125 c 128,-1,34
 271.666676241 593.415039062 271.666676241 593.415039062 259.380845014 595.829101562 c 0,35,36
 251.305261949 597.416015625 251.305261949 597.416015625 244.078857422 600.875976562 c 128,-1,37
 236.853501264 604.336914062 236.853501264 604.336914062 231.235294118 609 c 1,38,-1
 231.235294118 382 l 1,39,-1
 283.838235294 382 l 2,40,41
 354.228845933 382 354.228845933 382 389.967730354 406.7109375 c 0,42,43
 424.470588235 430.567382812 424.470588235 430.567382812 424.470588235 489.83984375 c 0,44,45
 424.470588235 504.39453125 424.470588235 504.39453125 422.289981618 516.577148438 c 128,-1,46
 420.109375 528.759765625 420.109375 528.759765625 415.829934513 538.3984375 c 128,-1,47
 411.549445657 548.036132812 411.549445657 548.036132812 405.433263442 555.3828125 c 128,-1,48
 399.316032858 562.729492188 399.316032858 562.729492188 391.231014476 568.069335938 c 0,49,30
 374.030431411 579.428710938 374.030431411 579.428710938 350.751407399 585.213867188 c 128,-1,31
EndSplineSet
EndChar

StartChar: Q
Encoding: 81 81 52
Width: 628
VWidth: 1177
Flags: W
LayerCount: 2
Fore
SplineSet
84.7294921875 109.05078125 m 0,0,1
 32 202.799804688 32 202.799804688 32 362.116210938 c 0,2,3
 32 548.395507812 32 548.395507812 103.399414062 644.461914062 c 0,4,5
 177.461385758 742 177.461385758 742 313.967213115 742 c 0,6,7
 455.894563268 742 455.894563268 742 527.680664062 644.349609375 c 0,8,9
 597 548.317382812 597 548.317382812 597 362.108398438 c 0,10,11
 597 198.8515625 597 198.8515625 542.732421875 104.1015625 c 0,12,13
 517.176757812 59.48046875 517.176757812 59.48046875 480.198242188 30.7763671875 c 0,14,15
 441.004626665 2.072265625 441.004626665 2.072265625 391.525166496 -9.640625 c 1,16,17
 407.727298924 -28.2822265625 407.727298924 -28.2822265625 445.708135886 -42.18359375 c 0,18,19
 471.688780738 -51.6923828125 471.688780738 -51.6923828125 505.885742188 -60.4697265625 c 0,20,21
 539.755859375 -69.2470703125 539.755859375 -69.2470703125 582.80859375 -77.1650390625 c 2,22,-1
 593.697265625 -79.1669921875 l 1,23,-1
 590.600585938 -89.796875 l 1,24,-1
 560.600585938 -192.796875 l 1,25,-1
 558.1875 -201.083984375 l 1,26,-1
 549.635742188 -199.90625 l 2,27,28
 405.075851691 -180.612304688 405.075851691 -180.612304688 328.542888704 -135.466796875 c 0,29,30
 309.702836834 -124.352539062 309.702836834 -124.352539062 294.471583632 -110.786132812 c 128,-1,31
 279.24033043 -97.21875 279.24033043 -97.21875 267.74795082 -81.3603515625 c 128,-1,32
 256.255571209 -65.5029296875 256.255571209 -65.5029296875 248.424020236 -47.40625 c 128,-1,33
 240.591428663 -29.3095703125 240.591428663 -29.3095703125 236.435274718 -9.0146484375 c 1,34,35
 136.459960938 17.080078125 136.459960938 17.080078125 84.7294921875 109.05078125 c 0,0,1
206.303678919 469.01953125 m 0,36,37
 202.081967213 423.95703125 202.081967213 423.95703125 202.081967213 371.395507812 c 128,-1,38
 202.081967213 318.829101562 202.081967213 318.829101562 206.304719518 273.26171875 c 0,39,40
 210.447345671 228.544921875 210.447345671 228.544921875 223.304991675 194.758789062 c 0,41,42
 229.567318776 178.303710938 229.567318776 178.303710938 238.163710297 165.625976562 c 128,-1,43
 246.761142418 152.948242188 246.761142418 152.948242188 257.644771388 143.869140625 c 0,44,45
 278.592037013 126.395507812 278.592037013 126.395507812 313.967213115 126.395507812 c 128,-1,46
 349.407946977 126.395507812 349.407946977 126.395507812 370.909852075 143.94140625 c 0,47,48
 378.307473105 149.978515625 378.307473105 149.978515625 384.602058786 157.540039062 c 128,-1,49
 390.895603868 165.1015625 390.895603868 165.1015625 396.204741931 174.4375 c 128,-1,50
 401.513879995 183.772460938 401.513879995 183.772460938 405.695008325 194.758789062 c 0,51,52
 418.552654329 228.544921875 418.552654329 228.544921875 422.695280482 273.26171875 c 0,53,54
 424.805616035 296.028320312 424.805616035 296.028320312 425.861824411 320.564453125 c 128,-1,55
 426.918032787 345.100585938 426.918032787 345.100585938 426.918032787 371.395507812 c 0,56,57
 426.918032787 423.965820312 426.918032787 423.965820312 422.695280482 470.038085938 c 0,58,59
 418.554735528 515.203125 418.554735528 515.203125 405.728307505 547.944335938 c 0,60,61
 393.331647029 579.588867188 393.331647029 579.588867188 371.355228612 597.920898438 c 0,62,63
 350.407962987 596 350.407962987 596 313.967213115 596 c 0,64,65
 310.202324539 596 310.202324539 596 306.620581455 596.369140625 c 128,-1,66
 303.03987897 596.739257812 303.03987897 596.739257812 299.670418161 597.474609375 c 128,-1,67
 296.299916752 598.209960938 296.299916752 598.209960938 293.111520236 599.298828125 c 128,-1,68
 289.92208312 600.387695312 289.92208312 600.387695312 286.92619749 601.837890625 c 128,-1,69
 283.93031186 603.287109375 283.93031186 603.287109375 281.113409324 605.073242188 c 128,-1,70
 278.295466189 606.858398438 278.295466189 606.858398438 275.653384349 609 c 0,71,72
 273.01130251 607.946289062 273.01130251 607.946289062 270.546122567 606.736328125 c 128,-1,73
 268.079902024 605.525390625 268.079902024 605.525390625 265.771852587 604.142578125 c 128,-1,74
 263.463803151 602.759765625 263.463803151 602.759765625 261.329533811 601.228515625 c 128,-1,75
 259.194223873 599.697265625 259.194223873 599.697265625 257.200435451 597.99609375 c 0,76,77
 235.728707736 579.677734375 235.728707736 579.677734375 223.304991675 547.032226562 c 0,78,79
 210.446305072 513.241210938 210.446305072 513.241210938 206.303678919 469.01953125 c 0,36,37
EndSplineSet
EndChar

StartChar: R
Encoding: 82 82 53
Width: 628
VWidth: 1177
Flags: W
LayerCount: 2
Fore
SplineSet
222.508798417 735.991210938 m 128,-1,1
 247.820298765 737 247.820298765 737 267.261816062 737 c 0,2,3
 301.016042876 737 301.016042876 737 331.878539449 733.41796875 c 128,-1,4
 362.741036023 729.8359375 362.741036023 729.8359375 390.710759915 722.643554688 c 0,5,6
 418.910863182 715.586914062 418.910863182 715.586914062 443.265403054 704.549804688 c 128,-1,7
 467.619942926 693.512695312 467.619942926 693.512695312 487.997571887 678.499023438 c 0,8,9
 501.5859375 668.432617188 501.5859375 668.432617188 512.42578125 656.508789062 c 128,-1,10
 523.265625 644.584960938 523.265625 644.584960938 532.080078125 630.900390625 c 128,-1,11
 540.89453125 617.215820312 540.89453125 617.215820312 547.69140625 601.784179688 c 0,12,13
 557.884765625 578.639648438 557.884765625 578.639648438 562.942382812 551.76171875 c 128,-1,14
 568 524.8828125 568 524.8828125 568 494.319335938 c 0,15,16
 568 429.725585938 568 429.725585938 540.926757812 377.543945312 c 0,17,18
 537.30859375 370.5703125 537.30859375 370.5703125 533.020507812 363.9921875 c 128,-1,19
 528.731445312 357.413085938 528.731445312 357.413085938 523.850585938 351.323242188 c 128,-1,20
 518.96875 345.232421875 518.96875 345.232421875 513.459960938 339.552734375 c 128,-1,21
 507.950195312 333.874023438 507.950195312 333.874023438 501.890625 328.677734375 c 0,22,23
 495.516695976 323.482421875 495.516695976 323.482421875 488.422887654 318.71484375 c 128,-1,24
 481.328036891 313.948242188 481.328036891 313.948242188 473.691117014 309.66015625 c 128,-1,25
 466.053154695 305.372070312 466.053154695 305.372070312 457.836637841 301.529296875 c 1,26,27
 464.515554802 291.989257812 464.515554802 291.989257812 470.86193321 282.76953125 c 128,-1,28
 477.208311617 273.548828125 477.208311617 273.548828125 483.519247045 264.22265625 c 128,-1,29
 489.831224912 254.896484375 489.831224912 254.896484375 496.812449649 244.430664062 c 0,30,31
 504.60546875 232.33203125 504.60546875 232.33203125 511.997070312 219.853515625 c 128,-1,32
 519.388671875 207.375 519.388671875 207.375 526.608398438 194.5234375 c 128,-1,33
 533.827148438 181.672851562 533.827148438 181.672851562 540.877929688 168.44140625 c 0,34,35
 561.944335938 128.90625 561.944335938 128.90625 581.509765625 89.365234375 c 0,36,37
 601.19921875 49.57421875 601.19921875 49.57421875 615.352539062 13.173828125 c 2,38,-1
 620.475585938 0 l 1,39,-1
 606 0 l 1,40,-1
 450.86479507 0 l 1,41,-1
 443.504121953 0 l 1,42,-1
 440.887596032 6.4453125 l 2,43,44
 412.336190281 74.099609375 412.336190281 74.099609375 374.276683766 136.024414062 c 0,45,46
 362.04781302 155.921875 362.04781302 155.921875 349.018347889 176.505859375 c 128,-1,47
 335.989925198 197.08984375 335.989925198 197.08984375 322.570587281 217.727539062 c 128,-1,48
 309.152291803 238.365234375 309.152291803 238.365234375 295.387906045 259 c 1,49,-1
 230.968203932 259 l 1,50,-1
 230.968203932 10 l 1,51,-1
 230.968203932 0 l 1,52,-1
 220.293612129 0 l 1,53,-1
 74 0 l 1,54,-1
 64 0 l 1,55,-1
 64 10 l 1,56,-1
 64 708.512695312 l 1,57,-1
 64 716.196289062 l 1,58,-1
 71.68359375 717.9765625 l 2,59,60
 93.048828125 722.924804688 93.048828125 722.924804688 118.419921875 726.874023438 c 128,-1,61
 143.82421875 730.939453125 143.82421875 730.939453125 170.233398438 732.970703125 c 0,62,0
 197.240038134 734.983398438 197.240038134 734.983398438 222.508798417 735.991210938 c 128,-1,1
361.693383214 423.77734375 m 0,63,64
 393.221999335 448.0234375 393.221999335 448.0234375 393.221999335 494.049804688 c 0,65,66
 393.221999335 544.505859375 393.221999335 544.505859375 360.015053839 567.315429688 c 0,67,68
 325.535288363 591 325.535288363 591 267.261816062 591 c 2,69,-1
 246.356712154 596.319335938 l 1,70,-1
 230.968203932 609 l 1,71,-1
 230.968203932 399 l 1,72,-1
 254.452305898 399 l 2,73,74
 329.472586531 399 329.472586531 399 361.693383214 423.77734375 c 0,63,64
EndSplineSet
EndChar

StartChar: S
Encoding: 83 83 54
Width: 628
VWidth: 1177
Flags: W
LayerCount: 2
Fore
SplineSet
182.313602223 141.849609375 m 0,0,1
 227.114212474 126 227.114212474 126 293.765969888 126 c 0,2,3
 312.86661568 126 312.86661568 126 328.477569403 127.735351562 c 128,-1,4
 344.088523125 129.469726562 344.088523125 129.469726562 355.968971944 132.82421875 c 0,5,6
 379.280701296 139.407226562 379.280701296 139.407226562 392.465727469 150.895507812 c 0,7,8
 399.065046135 156.645507812 399.065046135 156.645507812 403.552540948 163.091796875 c 128,-1,9
 408.041082772 169.538085938 408.041082772 169.538085938 410.586369728 176.857421875 c 0,10,11
 415.990000322 192.392578125 415.990000322 192.392578125 415.990000322 207.375 c 0,12,13
 415.990000322 213.512695312 415.990000322 213.512695312 414.689611018 219.166015625 c 128,-1,14
 413.388174702 224.819335938 413.388174702 224.819335938 410.74970365 230.116210938 c 128,-1,15
 408.110185586 235.413085938 408.110185586 235.413085938 404.082329183 240.453125 c 0,16,17
 391.259569274 256.49609375 391.259569274 256.49609375 371.394604486 268.611328125 c 0,18,19
 364.520968591 272.803710938 364.520968591 272.803710938 357.120685499 276.744140625 c 128,-1,20
 349.719355394 280.68359375 349.719355394 280.68359375 341.752638635 284.387695312 c 128,-1,21
 333.786968888 288.090820312 333.786968888 288.090820312 325.291510907 291.537109375 c 2,22,-1
 272.788031002 311.666992188 l 2,23,24
 255.223352286 317.438476562 255.223352286 317.438476562 236.622131371 324.063476562 c 128,-1,25
 218.020910457 330.688476562 218.020910457 330.688476562 198.997743576 337.951171875 c 0,26,27
 179.290877649 345.474609375 179.290877649 345.474609375 161.727539062 355.153320312 c 0,28,29
 144.990234375 364.831054688 144.990234375 364.831054688 129.940429688 376.645507812 c 0,30,31
 114.647460938 388.650390625 114.647460938 388.650390625 102.12109375 403.596679688 c 128,-1,32
 89.59375 418.541992188 89.59375 418.541992188 79.8955078125 436.31640625 c 0,33,34
 60.236328125 472.34765625 60.236328125 472.34765625 60.236328125 525.125 c 0,35,36
 60.236328125 628.342773438 60.236328125 628.342773438 130.1640625 687.42578125 c 0,37,38
 201.832005932 746 201.832005932 746 330.218750894 746 c 0,39,40
 354.624608123 746 354.624608123 746 377.043235964 744.24609375 c 128,-1,41
 399.462910817 742.4921875 399.462910817 742.4921875 420.077536428 738.9453125 c 128,-1,42
 440.692162038 735.3984375 440.692162038 735.3984375 459.341545519 730.059570312 c 0,43,44
 511.1875 714.248046875 511.1875 714.248046875 546.115234375 694.729492188 c 2,45,-1
 553.677734375 690.502929688 l 1,46,-1
 550.572265625 682.416015625 l 1,47,-1
 507.572265625 570.416015625 l 1,48,-1
 503.458007812 559.698242188 l 1,49,-1
 493.40625 565.244140625 l 2,50,51
 486.376953125 569.122070312 486.376953125 569.122070312 478.912109375 572.763671875 c 128,-1,52
 471.447265625 576.404296875 471.447265625 576.404296875 463.481432241 579.814453125 c 0,53,54
 454.996444382 583.224609375 454.996444382 583.224609375 446.02250177 586.401367188 c 128,-1,55
 437.049606169 589.578125 437.049606169 589.578125 427.609743073 592.512695312 c 0,56,57
 409.23048877 598.227539062 409.23048877 598.227539062 387.827462882 601.11328125 c 128,-1,58
 366.424436993 604 366.424436993 604 342.012297691 604 c 0,59,60
 229.437532817 604 229.437532817 604 229.437532817 533.336914062 c 0,61,62
 229.437532817 530.399414062 229.437532817 530.399414062 229.723367181 527.622070312 c 128,-1,63
 230.009201545 524.844726562 230.009201545 524.844726562 230.582964297 522.211914062 c 128,-1,64
 231.15672705 519.579101562 231.15672705 519.579101562 232.013183129 517.088867188 c 128,-1,65
 232.868592197 514.598632812 232.868592197 514.598632812 234.019258739 512.221679688 c 128,-1,66
 235.169925281 509.844726562 235.169925281 509.844726562 236.597003076 507.592773438 c 128,-1,67
 238.025127883 505.340820312 238.025127883 505.340820312 239.751651202 503.170898438 c 0,68,69
 250.96410616 489.086914062 250.96410616 489.086914062 269.212483922 477.955078125 c 0,70,71
 288.14456073 466.40625 288.14456073 466.40625 311.797616099 457.584960938 c 0,72,73
 324.079070638 453.004882812 324.079070638 453.004882812 335.98360074 448.825195312 c 128,-1,74
 347.888130842 444.645507812 347.888130842 444.645507812 359.697382824 440.768554688 c 0,75,76
 396.44751533 428.08203125 396.44751533 428.08203125 436.328214679 412.512695312 c 0,77,78
 446.603593608 408.5 446.603593608 408.5 456.505189139 403.826171875 c 128,-1,79
 466.260742188 399.151367188 466.260742188 399.151367188 475.133789062 393.822265625 c 128,-1,80
 484.006835938 388.493164062 484.006835938 388.493164062 492.517578125 382.510742188 c 128,-1,81
 501.029296875 376.528320312 501.029296875 376.528320312 509.173828125 369.895507812 c 0,82,83
 525.709960938 356.4296875 525.709960938 356.4296875 539.219726562 339.670898438 c 128,-1,84
 552.729492188 322.912109375 552.729492188 322.912109375 563.158203125 302.973632812 c 0,85,86
 584.236328125 262.676757812 584.236328125 262.676757812 584.236328125 202.287109375 c 0,87,88
 584.236328125 168.232421875 584.236328125 168.232421875 576.49609375 138.997070312 c 128,-1,89
 568.754882812 109.760742188 568.754882812 109.760742188 553.138671875 85.3662109375 c 128,-1,90
 537.5234375 60.970703125 537.5234375 60.970703125 514.177734375 41.94140625 c 0,91,92
 496.625 27.6337890625 496.625 27.6337890625 474.670898438 16.97265625 c 0,93,94
 451.884723761 6.3115234375 451.884723761 6.3115234375 423.795477183 -0.6650390625 c 0,95,96
 395.706230606 -7.8720703125 395.706230606 -7.8720703125 363.282353014 -11.4365234375 c 128,-1,97
 330.858475423 -15 330.858475423 -15 293.765969888 -15 c 0,98,99
 194.324927583 -15 194.324927583 -15 136.83984375 5.0947265625 c 0,100,101
 81.951171875 24.9150390625 81.951171875 24.9150390625 54.138671875 41.3974609375 c 2,102,-1
 47 45.626953125 l 1,103,-1
 49.8408203125 53.423828125 l 1,104,-1
 92.8408203125 171.423828125 l 1,105,-1
 96.970703125 182.756835938 l 1,106,-1
 107.341796875 176.598632812 l 2,107,108
 122.916992188 167.350585938 122.916992188 167.350585938 141.412109375 158.654296875 c 128,-1,109
 159.90625 149.958007812 159.90625 149.958007812 182.313602223 141.849609375 c 0,0,1
EndSplineSet
EndChar

StartChar: T
Encoding: 84 84 55
Width: 628
VWidth: 1177
Flags: W
LayerCount: 2
Fore
SplineSet
599 729 m 1,0,-1
 599 719 l 1,1,-1
 599 617.461914062 l 1,2,-1
 599 609 l 1,3,-1
 589 609 l 1,4,-1
 402.35483871 609 l 1,5,-1
 402.35483871 10 l 1,6,-1
 402.35483871 0 l 1,7,-1
 391.709677419 0 l 1,8,-1
 236.290322581 0 l 1,9,-1
 225.64516129 0 l 1,10,-1
 225.64516129 10 l 1,11,-1
 225.64516129 609 l 1,12,-1
 39 609 l 1,13,-1
 29 609 l 1,14,-1
 29 617.461914062 l 1,15,-1
 29 719 l 1,16,-1
 29 729 l 1,17,-1
 39 729 l 1,18,-1
 589 729 l 1,19,-1
 599 729 l 1,0,-1
EndSplineSet
EndChar

StartChar: U
Encoding: 85 85 56
Width: 628
VWidth: 1177
Flags: W
LayerCount: 2
Fore
SplineSet
384.601499041 -9.978515625 m 128,-1,1
 351.328678503 -15 351.328678503 -15 311.819494585 -15 c 0,2,3
 233.57805449 -15 233.57805449 -15 180.691473234 5.2490234375 c 0,4,5
 129.75 25.197265625 129.75 25.197265625 99.6181640625 62.734375 c 0,6,7
 84.6494140625 81.3828125 84.6494140625 81.3828125 74.1806640625 103.786132812 c 128,-1,8
 63.7119140625 126.190429688 63.7119140625 126.190429688 57.740234375 152.203125 c 0,9,10
 46 203.346679688 46 203.346679688 46 266.674804688 c 2,11,-1
 46 719 l 1,12,-1
 46 729 l 1,13,-1
 56 729 l 1,14,-1
 204.599277978 729 l 1,15,-1
 215.321299639 729 l 1,16,-1
 215.321299639 719 l 1,17,-1
 215.321299639 278 l 2,18,19
 215.321299639 234.211914062 215.321299639 234.211914062 220.035219709 204.921875 c 0,20,21
 221.180716945 197.8046875 221.180716945 197.8046875 222.772267035 191.385742188 c 128,-1,22
 224.363817125 184.966796875 224.363817125 184.966796875 226.351160593 179.392578125 c 128,-1,23
 228.339551134 173.817382812 228.339551134 173.817382812 230.686040444 169.028320312 c 128,-1,24
 233.032529755 164.23828125 233.032529755 164.23828125 235.75177685 160.185546875 c 0,25,26
 239.308681887 154.885742188 239.308681887 154.885742188 243.627855652 150.704101562 c 128,-1,27
 247.947029417 146.5234375 247.947029417 146.5234375 253.088155037 143.385742188 c 128,-1,28
 258.228233585 140.249023438 258.228233585 140.249023438 264.335807057 138.044921875 c 0,29,30
 283.862660763 131 283.862660763 131 313.963898917 131 c 0,31,32
 329.676267769 131 329.676267769 131 342.398197766 132.80078125 c 128,-1,33
 355.119080692 134.6015625 355.119080692 134.6015625 364.664192943 138.044921875 c 0,34,35
 382.816240552 144.594726562 382.816240552 144.594726562 393.825160058 160.729492188 c 0,36,37
 405.524100293 177.876953125 405.524100293 177.876953125 410.03384124 206.3515625 c 0,38,39
 414.750902527 236.134765625 414.750902527 236.134765625 414.750902527 278.966796875 c 2,40,-1
 414.750902527 719 l 1,41,-1
 414.750902527 729 l 1,42,-1
 425.472924188 729 l 1,43,-1
 573 729 l 1,44,-1
 583 729 l 1,45,-1
 583 719 l 1,46,-1
 583 266.673828125 l 2,47,48
 583 203.299804688 583 203.299804688 570.739257812 152.115234375 c 0,49,50
 558.228515625 99.8876953125 558.228515625 99.8876953125 527.829101562 62.669921875 c 0,51,52
 497.184570312 25.150390625 497.184570312 25.150390625 445.01967227 5.2216796875 c 0,53,0
 417.874319579 -4.95703125 417.874319579 -4.95703125 384.601499041 -9.978515625 c 128,-1,1
EndSplineSet
EndChar

StartChar: V
Encoding: 86 86 57
Width: 628
VWidth: 1177
Flags: W
LayerCount: 2
Fore
SplineSet
229.119157214 0 m 1,0,-1
 226.656803486 6.732421875 l 2,1,2
 196.977329663 85.689453125 196.977329663 85.689453125 163.070625836 185.567382812 c 0,3,4
 129.478515625 285.46484375 129.478515625 285.46484375 101.431640625 384.881835938 c 128,-1,5
 73.4033203125 484.233398438 73.4033203125 484.233398438 50.8701171875 572.422851562 c 128,-1,6
 28.302734375 660.75 28.302734375 660.75 17.25 717.456054688 c 2,7,-1
 15 729 l 1,8,-1
 27.0751953125 729 l 1,9,-1
 182.694024763 729 l 1,10,-1
 192.054688808 729 l 1,11,-1
 193.195451928 720.21875 l 2,12,13
 200.557713913 672.05078125 200.557713913 672.05078125 215.828853544 609 c 0,14,15
 231.151658172 534.638671875 231.151658172 534.638671875 249.119710615 455.267578125 c 128,-1,16
 267.067097059 375.946289062 267.067097059 375.946289062 287.650431618 299.131835938 c 0,17,18
 303.079666139 241.551757812 303.079666139 241.551757812 318.227843079 192.333007812 c 1,19,20
 333.104262138 240.435546875 333.104262138 240.435546875 347.516729529 297.499023438 c 0,21,22
 367.054364562 374.8515625 367.054364562 374.8515625 384.482001143 454.208984375 c 128,-1,23
 401.918937422 533.610351562 401.918937422 533.610351562 416.710625887 609 c 0,24,25
 431.519880451 673.176757812 431.519880451 673.176757812 442.092605311 720.7578125 c 2,26,-1
 443.649788302 729 l 1,27,-1
 452.509301882 729 l 1,28,-1
 607.075195312 729 l 1,29,-1
 619.239257812 729 l 1,30,-1
 616.885742188 717.38671875 l 2,31,32
 609.862304688 682.728515625 609.862304688 682.728515625 601.090820312 644.196289062 c 128,-1,33
 592.318359375 605.663085938 592.318359375 605.663085938 581.795898438 563.2421875 c 0,34,35
 560.752929688 478.415039062 560.752929688 478.415039062 534.213867188 384.866210938 c 128,-1,36
 507.662109375 291.26953125 507.662109375 291.26953125 474.764515725 194.28515625 c 0,37,38
 441.368262062 97.2724609375 441.368262062 97.2724609375 405.309194485 6.56640625 c 2,39,-1
 402.769343263 0 l 1,40,-1
 395.371949081 0 l 1,41,-1
 236.657080187 0 l 1,42,-1
 229.119157214 0 l 1,0,-1
EndSplineSet
EndChar

StartChar: W
Encoding: 87 87 58
Width: 628
VWidth: 1177
Flags: W
LayerCount: 2
Fore
SplineSet
381.163303188 471 m 1,0,-1
 383.044941992 463.215820312 l 2,1,2
 385.670098115 452.353515625 385.670098115 452.353515625 389.366916075 438.694335938 c 128,-1,3
 393.064772466 425.034179688 393.064772466 425.034179688 397.821829508 408.630859375 c 0,4,5
 407.368134986 375.711914062 407.368134986 375.711914062 419.581133867 335.762695312 c 128,-1,6
 431.800363341 295.793945312 431.800363341 295.793945312 446.148378437 249.81640625 c 0,7,8
 449.411131816 239.359375 449.411131816 239.359375 452.937646925 227.850585938 c 1,9,10
 452.542004329 255.504882812 452.542004329 255.504882812 451.898176482 283.786132812 c 0,11,12
 450.302106481 353.826171875 450.302106481 353.826171875 449.23771367 426.86328125 c 128,-1,13
 448.17435929 499.865234375 448.17435929 499.865234375 447.111004911 574.866210938 c 128,-1,14
 446.0466121 649.927734375 446.0466121 649.927734375 446.0466121 719 c 2,15,-1
 446.0466121 729 l 1,16,-1
 456.680155893 729 l 1,17,-1
 592.229492188 729 l 1,18,-1
 602.684570312 729 l 1,19,-1
 602.219726562 718.837890625 l 2,20,21
 598.221679688 631.30859375 598.221679688 631.30859375 594.72265625 539.396484375 c 128,-1,22
 591.220703125 447.397460938 591.220703125 447.397460938 586.71875 356.370117188 c 128,-1,23
 582.212890625 265.287109375 582.212890625 265.287109375 575.704101562 176.631835938 c 128,-1,24
 569.196289062 87.9736328125 569.196289062 87.9736328125 561.181640625 9.017578125 c 2,25,-1
 560.291015625 0 l 1,26,-1
 551.229492188 0 l 1,27,-1
 426.906233273 0 l 1,28,-1
 419.372409033 0 l 1,29,-1
 416.873941614 6.685546875 l 2,30,31
 403.004643675 43.806640625 403.004643675 43.806640625 389.275534058 83.794921875 c 128,-1,32
 375.54642444 123.783203125 375.54642444 123.783203125 361.954387848 166.641601562 c 0,33,34
 339.793210301 236.518554688 339.793210301 236.518554688 317.104509292 301.873046875 c 1,35,36
 305.4231876 270.109375 305.4231876 270.109375 293.68579058 237.169921875 c 128,-1,37
 281.947355127 204.23046875 281.947355127 204.23046875 269.539131028 168.403320312 c 0,38,39
 239.252222994 80.95703125 239.252222994 80.95703125 214.819994639 7.0322265625 c 2,40,-1
 212.495983799 0 l 1,41,-1
 204.665168004 0 l 1,42,-1
 81.2294921875 0 l 1,43,-1
 72.279296875 0 l 1,44,-1
 71.291015625 8.8955078125 l 2,45,46
 62.2734375 87.8642578125 62.2734375 87.8642578125 54.763671875 177.013671875 c 128,-1,47
 47.251953125 266.181640625 47.251953125 266.181640625 42.244140625 357.290039062 c 128,-1,48
 37.2412109375 448.319335938 37.2412109375 448.319335938 33.23828125 540.806640625 c 128,-1,49
 29.2353515625 633.326171875 29.2353515625 633.326171875 27.232421875 719.048828125 c 2,50,-1
 27 729 l 1,51,-1
 37.2294921875 729 l 1,52,-1
 172.764536625 729 l 1,53,-1
 183.55384522 729 l 1,54,-1
 183.397041986 718.85546875 l 2,55,56
 182.333687607 649.861328125 182.333687607 649.861328125 181.270333227 575.366210938 c 128,-1,57
 180.206978848 500.831054688 180.206978848 500.831054688 178.610908847 427.295898438 c 128,-1,58
 177.01691571 353.825195312 177.01691571 353.825195312 175.953561331 283.857421875 c 0,59,60
 175.48315163 252.893554688 175.48315163 252.893554688 175.216274603 223.103515625 c 1,61,62
 177.794701287 231.150390625 177.794701287 231.150390625 180.134288607 238.403320312 c 0,63,64
 194.467765655 282.833984375 194.467765655 282.833984375 207.737888324 326.26171875 c 128,-1,65
 221.029818065 369.762695312 221.029818065 369.762695312 232.195039048 406.264648438 c 128,-1,66
 243.359221598 442.759765625 243.359221598 442.759765625 249.735194146 463.747070312 c 2,67,-1
 251.938746873 471 l 1,68,-1
 259.959595726 471 l 1,69,-1
 372.67515993 471 l 1,70,-1
 381.163303188 471 l 1,0,-1
EndSplineSet
EndChar

StartChar: X
Encoding: 88 88 59
Width: 628
VWidth: 1177
Flags: W
LayerCount: 2
Fore
SplineSet
443.124958911 0 m 1,0,-1
 440.584000041 6.5576171875 l 2,1,2
 417.456320386 56.9853515625 417.456320386 56.9853515625 383.254518606 118.404296875 c 0,3,4
 353.467916681 181.565429688 353.467916681 181.565429688 321.442752698 245.217773438 c 1,5,6
 290.145198789 184.51953125 290.145198789 184.51953125 258.779528192 120 c 2,7,-1
 197.165919922 6.2861328125 l 1,8,-1
 194.508337026 -0 l 1,9,-1
 187.352988592 0 l 1,10,-1
 27.4296875 0 l 1,11,-1
 13 0 l 1,12,-1
 18.06640625 13.150390625 l 2,13,14
 20.5244140625 19.5302734375 20.5244140625 19.5302734375 23.421875 26.3828125 c 128,-1,15
 26.3193359375 33.2353515625 26.3193359375 33.2353515625 29.6455078125 40.5400390625 c 128,-1,16
 32.9716796875 47.8447265625 32.9716796875 47.8447265625 36.7421875 55.6357421875 c 128,-1,17
 40.5126953125 63.4267578125 40.5126953125 63.4267578125 44.70703125 71.6708984375 c 128,-1,18
 48.90234375 79.9140625 48.90234375 79.9140625 53.546875 88.6591796875 c 0,19,20
 76.572265625 132.018554688 76.572265625 132.018554688 104.08984375 182.6640625 c 128,-1,21
 131.639648438 233.366210938 131.639648438 233.366210938 163.843442657 286.9765625 c 0,22,23
 194.51246531 337.909179688 194.51246531 337.909179688 223.818122136 384.5546875 c 1,24,-1
 30.6875 714.541992188 l 1,25,-1
 22.439453125 729 l 1,26,-1
 39.4296875 729 l 1,27,-1
 198.978236646 729 l 1,28,-1
 205.522599031 729 l 1,29,-1
 208.439231755 723.45703125 l 1,30,-1
 321.770951284 508.060546875 l 1,31,-1
 440.07106074 723.608398438 l 1,32,-1
 443.030008376 729 l 1,33,-1
 449.449490167 729 l 1,34,-1
 598.4296875 729 l 1,35,-1
 615.298828125 729 l 1,36,-1
 607.203125 714.595703125 l 1,37,-1
 419.418287409 388.674804688 l 1,38,39
 451.690116368 340.994140625 451.690116368 340.994140625 482.490212041 289.376953125 c 0,40,41
 514.272460938 235.220703125 514.272460938 235.220703125 540.857421875 183.958984375 c 128,-1,42
 567.467773438 132.647460938 567.467773438 132.647460938 587.568359375 88.6298828125 c 128,-1,43
 607.688476562 44.5673828125 607.688476562 44.5673828125 619.79296875 13.150390625 c 2,44,-1
 624.860351562 -0 l 1,45,-1
 610.4296875 0 l 1,46,-1
 450.506330899 0 l 1,47,-1
 443.124958911 0 l 1,0,-1
EndSplineSet
EndChar

StartChar: Y
Encoding: 89 89 60
Width: 628
VWidth: 1177
Flags: W
LayerCount: 2
Fore
SplineSet
261.656659496 550.028320312 m 0,0,1
 291.799337782 474.438476562 291.799337782 474.438476562 323.606513102 409.559570312 c 1,2,3
 333.777292121 430.828125 333.777292121 430.828125 345.615665873 457.830078125 c 0,4,5
 363.512106681 498.649414062 363.512106681 498.649414062 381.414742887 544.466796875 c 128,-1,6
 399.342160687 590.34375 399.342160687 590.34375 416.216360761 637.22265625 c 128,-1,7
 433.135993757 684.228515625 433.135993757 684.228515625 446.884615344 722.237304688 c 2,8,-1
 449.330765141 729 l 1,9,-1
 456.888118607 729 l 1,10,-1
 609.4296875 729 l 1,11,-1
 623.748046875 729 l 1,12,-1
 618.818359375 715.920898438 l 2,13,14
 596.7734375 657.42578125 596.7734375 657.42578125 574.220703125 602.32421875 c 128,-1,15
 551.638671875 547.153320312 551.638671875 547.153320312 526.547851562 492.958984375 c 128,-1,16
 501.309125043 438.731445312 501.309125043 438.731445312 471.580505882 385.485351562 c 0,17,18
 442.572618067 333.532226562 442.572618067 333.532226562 408.250111001 277.904296875 c 1,19,-1
 408.250111001 10 l 1,20,-1
 408.250111001 0 l 1,21,-1
 397.676631087 0 l 1,22,-1
 243.30382434 0 l 1,23,-1
 232.730344426 0 l 1,24,-1
 232.730344426 10 l 1,25,-1
 232.730344426 276.926757812 l 1,26,27
 164.515910483 387.28125 164.515910483 387.28125 114.309570312 492.478515625 c 0,28,29
 65.1689453125 598.83203125 65.1689453125 598.83203125 20.06640625 715.854492188 c 2,30,-1
 15 729 l 1,31,-1
 29.4296875 729 l 1,32,-1
 188.321728786 729 l 1,33,-1
 196.057716239 729 l 1,34,-1
 198.399576829 722.02734375 l 2,35,36
 226.859171887 637.29296875 226.859171887 637.29296875 261.656659496 550.028320312 c 0,0,1
EndSplineSet
EndChar

StartChar: Z
Encoding: 90 90 61
Width: 628
VWidth: 1177
Flags: W
LayerCount: 2
Fore
SplineSet
564 615.020507812 m 1,0,-1
 562.370117188 612.52734375 l 2,1,2
 511.438476562 534.6328125 511.438476562 534.6328125 469.525390625 466.272460938 c 0,3,4
 425.455803999 397.827148438 425.455803999 397.827148438 386.203027718 336.396484375 c 128,-1,5
 346.950251437 274.96484375 346.950251437 274.96484375 312.010296935 218.046875 c 0,6,7
 281.691222911 168.657226562 281.691222911 168.657226562 253.385570073 120 c 1,8,-1
 565 120 l 1,9,-1
 575 120 l 1,10,-1
 575 111.538085938 l 1,11,-1
 575 10 l 1,12,-1
 575 0 l 1,13,-1
 565 0 l 1,14,-1
 64 0 l 1,15,-1
 54 0 l 1,16,-1
 54 10 l 1,17,-1
 54 94 l 1,18,-1
 54 96.40234375 l 1,19,-1
 55.0908203125 98.5419921875 l 2,20,21
 81.1337890625 149.625 81.1337890625 149.625 110.669921875 205.193359375 c 128,-1,22
 140.260742188 260.864257812 140.260742188 260.864257812 177.046942349 324.483398438 c 0,23,24
 216.349134189 387.9921875 216.349134189 387.9921875 262.648358926 462.499023438 c 0,25,26
 276.658195642 485.04296875 276.658195642 485.04296875 291.78356232 509.091796875 c 128,-1,27
 306.908928999 533.140625 306.908928999 533.140625 322.792351383 558.127929688 c 128,-1,28
 338.675773767 583.115234375 338.675773767 583.115234375 355.287812799 609 c 1,29,-1
 79 609 l 1,30,-1
 69 609 l 1,31,-1
 69 617.461914062 l 1,32,-1
 69 719 l 1,33,-1
 69 729 l 1,34,-1
 79 729 l 1,35,-1
 554 729 l 1,36,-1
 564 729 l 1,37,-1
 564 719 l 1,38,-1
 564 618 l 1,39,-1
 564 615.020507812 l 1,0,-1
EndSplineSet
EndChar

StartChar: bracketleft
Encoding: 91 91 62
Width: 588
VWidth: 1177
Flags: W
LayerCount: 2
Fore
SplineSet
133 833 m 1
 459 833 l 1
 469 833 l 1
 469 823 l 1
 469 710 l 1
 469 700 l 1
 459 700 l 1
 281 700 l 1
 281 -71 l 1
 459 -71 l 1
 469 -71 l 1
 469 -81 l 1
 469 -194 l 1
 469 -204 l 1
 459 -204 l 1
 133 -204 l 1
 123 -204 l 1
 123 -194 l 1
 123 823 l 1
 123 833 l 1
 133 833 l 1
EndSplineSet
Substitution2: "'case' Case-Sensitive Forms lookup 17 subtable" Bracketleft
EndChar

StartChar: backslash
Encoding: 92 92 63
Width: 588
VWidth: 1177
Flags: W
LayerCount: 2
Fore
SplineSet
58 833 m 1
 206 833 l 1
 213.268438234 833 l 1
 215.511783014 826.086419267 l 1
 545.511783014 -190.913580733 l 1
 549.75811375 -204 l 1
 536 -204 l 1
 386 -204 l 1
 378.717949087 -204 l 1
 376.482737435 -197.069480945 l 1
 48.4827374352 819.930519055 l 1
 44.2676049376 833 l 1
 58 833 l 1
EndSplineSet
Substitution2: "'case' Case-Sensitive Forms lookup 17 subtable" Backslash
EndChar

StartChar: bracketright
Encoding: 93 93 64
Width: 588
VWidth: 1177
Flags: W
LayerCount: 2
Fore
SplineSet
456 -204 m 1
 128 -204 l 1
 118 -204 l 1
 118 -194 l 1
 118 -81 l 1
 118 -71 l 1
 128 -71 l 1
 307 -71 l 1
 307 700 l 1
 128 700 l 1
 118 700 l 1
 118 710 l 1
 118 823 l 1
 118 833 l 1
 128 833 l 1
 456 833 l 1
 466 833 l 1
 466 823 l 1
 466 -194 l 1
 466 -204 l 1
 456 -204 l 1
EndSplineSet
Substitution2: "'case' Case-Sensitive Forms lookup 17 subtable" Bracketright
EndChar

StartChar: asciicircum
Encoding: 94 94 65
Width: 588
VWidth: 1177
Flags: W
LayerCount: 2
Fore
SplineSet
582.416840251 355.02829324 m 1
 452.416840251 291.02829324 l 1
 444.034816476 286.901758458 l 1
 439.348811672 294.984330502 l 1
 299.029153212 537.012197779 l 1
 159.6657827 295.009588173 l 1
 155.017863103 286.938538604 l 1
 146.637264935 291.001858928 l 1
 14.6372649348 355.001858928 l 1
 4.82064123504 359.761434055 l 1
 10.414711123 369.127651987 l 1
 228.414711123 734.127651987 l 1
 231.324771032 739 l 1
 237 739 l 1
 360 739 l 1
 365.675228968 739 l 1
 368.585288877 734.127651987 l 1
 586.585288877 369.127651987 l 1
 592.145655505 359.817863826 l 1
 582.416840251 355.02829324 l 1
EndSplineSet
EndChar

StartChar: underscore
Encoding: 95 95 66
Width: 588
VWidth: 1177
Flags: W
LayerCount: 2
Fore
SplineSet
9 -58 m 1
 580 -58 l 1
 590 -58 l 1
 590 -68 l 1
 590 -194 l 1
 590 -204 l 1
 580 -204 l 1
 9 -204 l 1
 -1 -204 l 1
 -1 -194 l 1
 -1 -68 l 1
 -1 -58 l 1
 9 -58 l 1
EndSplineSet
EndChar

StartChar: grave
Encoding: 96 96 67
Width: 588
VWidth: 1177
Flags: W
LayerCount: 2
Fore
SplineSet
256.758200037 822.175764939 m 1
 442.758200037 691.175764939 l 1
 450.750540334 685.546751073 l 1
 445.304295633 677.428763689 l 1
 392.304295633 598.428763689 l 1
 387.4681154 591.220117681 l 1
 379.651280966 594.995076748 l 1
 174.651280966 693.995076748 l 1
 164.438591024 698.927058721 l 1
 170.61038713 708.441911051 l 1
 242.61038713 819.441911051 l 1
 248.264152094 828.158132038 l 1
 256.758200037 822.175764939 l 1
EndSplineSet
EndChar

StartChar: a
Encoding: 97 97 68
Width: 628
VWidth: 1177
Flags: W
LayerCount: 2
Fore
SplineSet
242.562958629 137.053710938 m 0,0,1
 270.955354884 124 270.955354884 124 316.850202429 124 c 0,2,3
 342.680569174 124 342.680569174 124 366.328935507 124.454101562 c 0,4,5
 374.566066232 124.612304688 374.566066232 124.612304688 382.446391859 124.970703125 c 128,-1,6
 390.326717485 125.328125 390.326717485 125.328125 396.842105263 125.814453125 c 1,7,-1
 396.842105263 225.663085938 l 1,8,9
 390.888316043 226.301757812 390.888316043 226.301757812 384.142799532 226.939453125 c 128,-1,10
 377.398338658 227.577148438 377.398338658 227.577148438 369.823091947 228.217773438 c 0,11,12
 359.261449899 229.110351562 359.261449899 229.110351562 349.792391511 229.555664062 c 128,-1,13
 340.322277486 230 340.322277486 230 331.983805668 230 c 0,14,15
 326.223197906 230 326.223197906 230 320.497426145 229.833984375 c 128,-1,16
 314.771654384 229.66796875 314.771654384 229.66796875 309.080718623 229.3359375 c 128,-1,17
 303.390838499 229.004882812 303.390838499 229.004882812 297.73473874 228.506835938 c 128,-1,18
 292.07863898 228.009765625 292.07863898 228.009765625 286.455263949 227.346679688 c 0,19,20
 264.689097293 224.779296875 264.689097293 224.779296875 248.757432945 218.88671875 c 0,21,22
 241.321530238 216.13671875 241.321530238 216.13671875 235.595758477 212.33984375 c 128,-1,23
 229.869986716 208.543945312 229.869986716 208.543945312 225.588325531 203.590820312 c 0,24,25
 217.400809717 194.120117188 217.400809717 194.120117188 217.400809717 177.9140625 c 0,26,27
 217.400809717 148.622070312 217.400809717 148.622070312 242.562958629 137.053710938 c 0,0,1
245.598968877 565.96875 m 128,-1,29
 273.73167858 568 273.73167858 568 302.79757085 568 c 0,30,31
 317.783384995 568 317.783384995 568 331.769511482 567.3515625 c 128,-1,32
 345.755637968 566.702148438 345.755637968 566.702148438 358.874031345 565.388671875 c 128,-1,33
 371.992424722 564.075195312 371.992424722 564.075195312 384.130131895 562.096679688 c 128,-1,34
 396.267839069 560.1171875 396.267839069 560.1171875 407.52408986 557.450195312 c 128,-1,35
 418.779285014 554.782226562 418.779285014 554.782226562 429.073851056 551.43359375 c 0,36,37
 477.640625 535.202148438 477.640625 535.202148438 506.319335938 505.470703125 c 128,-1,38
 534.984375 475.75390625 534.984375 475.75390625 547.13671875 433.424804688 c 0,39,40
 559 392.103515625 559 392.103515625 559 340.599609375 c 2,41,-1
 559 22.08203125 l 1,42,-1
 559 14.3134765625 l 1,43,-1
 551.13671875 12.6533203125 l 2,44,45
 518.827148438 5.8310546875 518.827148438 5.8310546875 456.514648438 -3.384765625 c 0,46,47
 423.9603484 -8.2001953125 423.9603484 -8.2001953125 385.728365385 -10.599609375 c 128,-1,48
 347.497438006 -13 347.497438006 -13 304.95951417 -13 c 0,49,50
 246.487814714 -13 246.487814714 -13 198.85433404 -3.2646484375 c 0,51,52
 151.880859375 6.3974609375 151.880859375 6.3974609375 119.73828125 28.4345703125 c 0,53,54
 87.080078125 50.8251953125 87.080078125 50.8251953125 69.455078125 87.189453125 c 0,55,56
 52 123.201171875 52 123.201171875 52 174.982421875 c 0,57,58
 52 224.268554688 52 224.268554688 72.333984375 258.618164062 c 128,-1,59
 92.5615234375 292.7890625 92.5615234375 292.7890625 126.139648438 313.525390625 c 0,60,61
 159.141601562 333.905273438 159.141601562 333.905273438 204.840847988 343.025390625 c 0,62,63
 250.832814081 352 250.832814081 352 299.55465587 352 c 0,64,65
 353.656020686 352 353.656020686 352 396.842105263 344.342773438 c 1,66,-1
 396.842105263 350 l 2,67,68
 396.842105263 382.806640625 396.842105263 382.806640625 372.160270907 404.59375 c 0,69,70
 347.803572558 426 347.803572558 426 283.340080972 426 c 0,71,72
 276.075191359 426 276.075191359 426 268.886307566 426.102539062 c 128,-1,73
 261.697423773 426.206054688 261.697423773 426.206054688 254.586657072 426.411132812 c 128,-1,74
 247.475890372 426.6171875 247.475890372 426.6171875 240.442185128 426.924804688 c 128,-1,75
 233.408479884 427.233398438 233.408479884 427.233398438 226.450780459 427.643554688 c 128,-1,76
 219.494136671 428.0546875 219.494136671 428.0546875 212.61455434 428.568359375 c 128,-1,77
 205.736027644 429.081054688 205.736027644 429.081054688 198.931395496 429.696289062 c 0,78,79
 159.563476562 428.421875 159.563476562 428.421875 137.643554688 426.372070312 c 2,80,-1
 126.211914062 421.899414062 l 1,81,-1
 124.142578125 434 l 1,82,-1
 104.142578125 535.176757812 l 1,83,-1
 102.697265625 542.491210938 l 1,84,-1
 110.837890625 544.837890625 l 2,85,86
 138.60546875 552.841796875 138.60546875 552.841796875 190.273065853 559.872070312 c 0,87,28
 217.466259173 563.9375 217.466259173 563.9375 245.598968877 565.96875 c 128,-1,29
EndSplineSet
Substitution2: "'case' Case-Sensitive Forms lookup 18 subtable" A
Substitution2: "'ordn' Ordinals in Latin lookup 7 subtable" ordfeminine
EndChar

StartChar: b
Encoding: 98 98 69
Width: 628
VWidth: 1177
Flags: W
LayerCount: 2
Fore
SplineSet
389.915746228 145.958984375 m 0,0,1
 422.32183908 181.221679688 422.32183908 181.221679688 422.32183908 269.703125 c 0,2,3
 422.32183908 345.071289062 422.32183908 345.071289062 396.95062934 384.267578125 c 0,4,5
 373.173334231 421 373.173334231 421 323.272030651 421 c 0,6,7
 298.92487952 421 298.92487952 421 275.598632812 434 c 0,8,9
 256.140467852 428.907226562 256.140467852 428.907226562 241.448275862 421.443359375 c 1,10,-1
 241.448275862 136.00390625 l 1,11,12
 254.493983477 133.678710938 254.493983477 133.678710938 268.407091864 132.982421875 c 0,13,14
 288.0345314 132 288.0345314 132 301.739463602 132 c 0,15,16
 330.398385117 132 330.398385117 132 352.184338332 120 c 0,17,18
 373.970291547 128.608398438 373.970291547 128.608398438 389.915746228 145.958984375 c 0,0,1
579.145507812 393.7890625 m 0,19,20
 594 341.376953125 594 341.376953125 594 277.333984375 c 0,21,22
 594 244.756835938 594 244.756835938 589.37890625 215.140625 c 128,-1,23
 584.7578125 185.524414062 584.7578125 185.524414062 575.477539062 158.899414062 c 0,24,25
 556.822265625 105.375 556.822265625 105.375 521.452148438 67.2138671875 c 128,-1,26
 485.932617188 28.8916015625 485.932617188 28.8916015625 431.286031789 8.2607421875 c 0,27,28
 376.01525458 -13 376.01525458 -13 304.969348659 -13 c 0,29,30
 284.248458453 -13 284.248458453 -13 263.347779723 -12.04296875 c 128,-1,31
 242.447100994 -11.0869140625 242.447100994 -11.0869140625 221.381353269 -9.1748046875 c 128,-1,32
 200.314554149 -7.2626953125 200.314554149 -7.2626953125 180.0625 -4.396484375 c 0,33,34
 120.833007812 3.9970703125 120.833007812 3.9970703125 80.126953125 15.90625 c 2,35,-1
 73 17.9912109375 l 1,36,-1
 73 25.2470703125 l 1,37,-1
 73 783 l 1,38,-1
 73 791.48046875 l 1,39,-1
 81.3671875 792.866210938 l 1,40,-1
 228.924060105 816.866210938 l 1,41,-1
 241.448275862 818.791015625 l 1,42,-1
 241.448275862 807 l 1,43,-1
 241.448275862 546.095703125 l 1,44,45
 250.394594858 549.375976562 250.394594858 549.375976562 258.922458693 551.966796875 c 128,-1,46
 267.449271133 554.556640625 267.449271133 554.556640625 275.752136464 556.516601562 c 128,-1,47
 284.056053191 558.475585938 284.056053191 558.475585938 292.310554358 559.844726562 c 0,48,49
 323.395043852 565 323.395043852 565 354.494252874 565 c 0,50,51
 415.146069055 565 415.146069055 565 462.080336297 544.212890625 c 0,52,53
 477.469726562 537.278320312 477.469726562 537.278320312 490.421875 528.334960938 c 128,-1,54
 503.374023438 519.391601562 503.374023438 519.391601562 514.677734375 508.484375 c 128,-1,55
 525.98046875 497.578125 525.98046875 497.578125 535.6015625 484.74609375 c 0,56,57
 564.166015625 446.642578125 564.166015625 446.642578125 579.145507812 393.7890625 c 0,19,20
EndSplineSet
Substitution2: "'case' Case-Sensitive Forms lookup 18 subtable" B
EndChar

StartChar: c
Encoding: 99 99 70
Width: 628
VWidth: 1177
Flags: W
LayerCount: 2
Fore
SplineSet
56.6298828125 218.23046875 m 128,-1,1
 52 246.524414062 52 246.524414062 52 276.704101562 c 0,2,3
 52 336.282226562 52 336.282226562 71.5869140625 389.006835938 c 0,4,5
 81.435546875 415.518554688 81.435546875 415.518554688 96.3935546875 438.739257812 c 128,-1,6
 111.350585938 461.958984375 111.350585938 461.958984375 131.338867188 481.749023438 c 128,-1,7
 151.38671875 501.59765625 151.38671875 501.59765625 177.154192178 517.243164062 c 0,8,9
 204.403162684 532.888671875 204.403162684 532.888671875 237.271081933 544.327148438 c 0,10,11
 302.91271302 568 302.91271302 568 393.877296415 568 c 0,12,13
 447.329535156 568 447.329535156 568 489.723632812 560.850585938 c 0,14,15
 496.583984375 559.649414062 496.583984375 559.649414062 503.469726562 558.1640625 c 128,-1,16
 510.356445312 556.677734375 510.356445312 556.677734375 517.259765625 554.909179688 c 128,-1,17
 524.1640625 553.139648438 524.1640625 553.139648438 531.08984375 551.087890625 c 128,-1,18
 538.016601562 549.036132812 538.016601562 549.036132812 544.963867188 546.701171875 c 128,-1,19
 551.911132812 544.366210938 551.911132812 544.366210938 558.875976562 541.750976562 c 128,-1,20
 565.840820312 539.135742188 565.840820312 539.135742188 572.830078125 536.237304688 c 2,21,-1
 580.905273438 532.888671875 l 1,22,-1
 578.666015625 524.438476562 l 1,23,-1
 547.666015625 407.438476562 l 1,24,-1
 544.939453125 397.145507812 l 1,25,-1
 534.837890625 400.512695312 l 2,26,27
 523.059570312 404.439453125 523.059570312 404.439453125 510.009765625 408.1328125 c 128,-1,28
 496.959960938 411.826171875 496.959960938 411.826171875 482.653320312 415.279296875 c 0,29,30
 468.789983578 418.6015625 468.789983578 418.6015625 449.800909594 420.30078125 c 128,-1,31
 430.81183561 422 430.81183561 422 407.811619378 422 c 0,32,33
 400.047881892 422 400.047881892 422 392.642132571 422.341796875 c 128,-1,34
 385.235336501 422.68359375 385.235336501 422.68359375 378.255614031 423.359375 c 128,-1,35
 371.275891561 424.03515625 371.275891561 424.03515625 364.66043775 425.044921875 c 128,-1,36
 358.04393719 426.0546875 358.04393719 426.0546875 351.849276486 427.385742188 c 128,-1,37
 345.654615782 428.717773438 345.654615782 428.717773438 339.83155098 430.375 c 128,-1,38
 334.008486178 432.032226562 334.008486178 432.032226562 328.600980737 434 c 0,39,40
 323.193475296 432.553710938 323.193475296 432.553710938 318.163846251 430.873046875 c 0,41,42
 306.328255075 426.918945312 306.328255075 426.918945312 296.138153358 421.9921875 c 128,-1,43
 285.948051642 417.065429688 285.948051642 417.065429688 277.544750504 411.291015625 c 128,-1,44
 269.140402617 405.516601562 269.140402617 405.516601562 262.287336779 398.80078125 c 128,-1,45
 255.354718015 392.006835938 255.354718015 392.006835938 249.708553797 384.373046875 c 128,-1,46
 244.061342831 376.739257812 244.061342831 376.739257812 239.651389206 368.173828125 c 128,-1,47
 235.241435582 359.609375 235.241435582 359.609375 232.076066544 350.102539062 c 0,48,49
 227.234852323 335.5625 227.234852323 335.5625 224.806394595 319.901367188 c 128,-1,50
 222.377936867 304.240234375 222.377936867 304.240234375 222.377936867 287.41015625 c 0,51,52
 222.377936867 250.452148438 222.377936867 250.452148438 233.161545278 222.18359375 c 128,-1,53
 243.945153689 193.915039062 243.945153689 193.915039062 265.373152892 173.637695312 c 0,54,55
 286.401293968 153.73828125 286.401293968 153.73828125 323.840366191 143.369140625 c 128,-1,56
 361.278391664 133 361.278391664 133 415.314716359 133 c 0,57,58
 451.10934587 133 451.10934587 133 488.79296875 137.426757812 c 0,59,60
 524.696289062 141.793945312 524.696289062 141.793945312 554.65625 152.423828125 c 2,61,-1
 565.793945312 156.376953125 l 1,62,-1
 567.84765625 144.73828125 l 1,63,-1
 588.84765625 25.73828125 l 1,64,-1
 590.276367188 17.6416015625 l 1,65,-1
 582.610351562 14.6748046875 l 2,66,67
 550.680664062 2.314453125 550.680664062 2.314453125 506.19921875 -5.3544921875 c 0,68,69
 483.946289062 -9.19140625 483.946289062 -9.19140625 457.03080508 -11.095703125 c 0,70,71
 429.132850181 -13 429.132850181 -13 397.092909407 -13 c 0,72,73
 350.684244826 -13 350.684244826 -13 310.776938413 -7.2431640625 c 0,74,75
 270.86858525 -1.6865234375 270.86858525 -1.6865234375 237.399832063 9.51953125 c 0,76,77
 170.470703125 31.9658203125 170.470703125 31.9658203125 129.928710938 71.0888671875 c 128,-1,78
 89.2802734375 110.314453125 89.2802734375 110.314453125 70.53125 163.58984375 c 0,79,0
 61.2587890625 189.935546875 61.2587890625 189.935546875 56.6298828125 218.23046875 c 128,-1,1
EndSplineSet
Substitution2: "'case' Case-Sensitive Forms lookup 18 subtable" C
EndChar

StartChar: d
Encoding: 100 100 71
Width: 628
VWidth: 1177
Flags: W
LayerCount: 2
Fore
SplineSet
227.672674006 386.930664062 m 0,0,1
 203.71541502 350.260742188 203.71541502 350.260742188 203.71541502 279.7734375 c 0,2,3
 203.71541502 213.137695312 203.71541502 213.137695312 232.408276464 171.391601562 c 0,4,5
 259.483614594 132 259.483614594 132 319.173913043 132 c 0,6,7
 338.237505404 132 338.237505404 132 354.064997375 132.9765625 c 0,8,9
 365.264370522 133.666992188 365.264370522 133.666992188 378.52173913 135.486328125 c 1,10,-1
 378.52173913 421.55078125 l 1,11,12
 363.840739254 428.477539062 363.840739254 428.477539062 345.507403347 434 c 0,13,14
 338.326021338 429.672851562 338.326021338 429.672851562 330.873822721 426.788085938 c 128,-1,15
 323.422677866 423.903320312 323.422677866 423.903320312 315.635383214 422.451171875 c 128,-1,16
 307.848088562 421 307.848088562 421 299.750988142 421 c 0,17,18
 249.930216311 421 249.930216311 421 227.672674006 386.930664062 c 0,0,1
546 18.388671875 m 1,19,-1
 539.090820312 16.1982421875 l 2,20,21
 518.579101562 9.693359375 518.579101562 9.693359375 493.802734375 4.4873046875 c 128,-1,22
 469.02734375 -0.8486328125 469.02734375 -0.8486328125 439.877929688 -4.904296875 c 0,23,24
 378.189804379 -13 378.189804379 -13 318.09486166 -13 c 0,25,26
 172.900278687 -13 172.900278687 -13 101.953125 64.169921875 c 0,27,28
 67.3681640625 102.576171875 67.3681640625 102.576171875 50.1845703125 154.837890625 c 128,-1,29
 33 207.100585938 33 207.100585938 33 272.745117188 c 0,30,31
 33 406.158203125 33 406.158203125 90.859375 484.454101562 c 0,32,33
 120.26171875 524.2421875 120.26171875 524.2421875 164.708339767 544.26171875 c 0,34,35
 211.744020967 565 211.744020967 565 272.774703557 565 c 0,36,37
 283.607367836 565 283.607367836 565 294.384182775 564.249023438 c 128,-1,38
 305.162051476 563.498046875 305.162051476 563.498046875 315.871425704 561.998046875 c 128,-1,39
 326.580799932 560.498046875 326.580799932 560.498046875 337.219572165 558.25 c 0,40,41
 359.523479959 553.53515625 359.523479959 553.53515625 378.52173913 546.451171875 c 1,42,-1
 378.52173913 783 l 1,43,-1
 378.52173913 791.471679688 l 1,44,-1
 387.538773005 792.864257812 l 1,45,-1
 534.356445312 816.864257812 l 1,46,-1
 546 818.8046875 l 1,47,-1
 546 807 l 1,48,-1
 546 25.4765625 l 1,49,-1
 546 18.388671875 l 1,19,-1
EndSplineSet
Substitution2: "'case' Case-Sensitive Forms lookup 18 subtable" D
EndChar

StartChar: e
Encoding: 101 101 72
Width: 628
VWidth: 1177
Flags: W
LayerCount: 2
Fore
SplineSet
42.40625 206.337890625 m 128,-1,1
 37 237.126953125 37 237.126953125 37 272.18359375 c 0,2,3
 37 308.208007812 37 308.208007812 42.6591796875 340.086914062 c 128,-1,4
 48.318359375 371.965820312 48.318359375 371.965820312 59.7041015625 399.666015625 c 0,5,6
 82.453125 455.015625 82.453125 455.015625 120.380859375 492.094726562 c 0,7,8
 139.33203125 510.622070312 139.33203125 510.622070312 161.502436372 524.690429688 c 0,9,10
 184.88713488 538.758789062 184.88713488 538.758789062 211.276588676 548.28515625 c 0,11,12
 263.952171929 568 263.952171929 568 318.378006873 568 c 0,13,14
 453.584689111 568 453.584689111 568 521.497070312 494.237304688 c 0,15,16
 588 421.005859375 588 421.005859375 588 282.211914062 c 0,17,18
 588 277.620117188 588 277.620117188 587.943359375 272.866210938 c 128,-1,19
 587.887695312 268.112304688 587.887695312 268.112304688 587.775390625 263.203125 c 128,-1,20
 587.663085938 258.293945312 587.663085938 258.293945312 587.495117188 253.22265625 c 0,21,22
 587.319335938 247.932617188 587.319335938 247.932617188 586.978515625 243.453125 c 128,-1,23
 586.637695312 238.973632812 586.637695312 238.973632812 586.083984375 234.973632812 c 128,-1,24
 585.530273438 230.973632812 585.530273438 230.973632812 584.76171875 227.612304688 c 2,25,-1
 583.021484375 220 l 1,26,-1
 575 220 l 1,27,-1
 209.832135282 220 l 1,28,29
 214.230203635 182.349609375 214.230203635 182.349609375 252.901685997 159.630859375 c 0,30,31
 298.234979059 133 298.234979059 133 369.676975945 133 c 0,32,33
 415.434003168 133 415.434003168 133 456.416193487 142.22265625 c 0,34,35
 464.787552352 144.106445312 464.787552352 144.106445312 472.336914062 145.97265625 c 0,36,37
 479.6796875 147.837890625 479.6796875 147.837890625 486.498046875 149.67578125 c 128,-1,38
 493.31640625 151.514648438 493.31640625 151.514648438 499.635742188 153.331054688 c 128,-1,39
 505.956054688 155.1484375 505.956054688 155.1484375 511.751953125 156.935546875 c 128,-1,40
 517.548828125 158.723632812 517.548828125 158.723632812 522.837890625 160.487304688 c 2,41,-1
 533.984375 164.202148438 l 1,42,-1
 535.870117188 152.604492188 l 1,43,-1
 555.870117188 29.6044921875 l 1,44,-1
 557.225585938 21.271484375 l 1,45,-1
 549.237304688 18.5380859375 l 2,46,47
 510.6640625 5.3427734375 510.6640625 5.3427734375 467.541824393 -3.783203125 c 0,48,49
 444.220790378 -8.404296875 444.220790378 -8.404296875 418.161139524 -10.7021484375 c 128,-1,50
 392.10044499 -13 392.10044499 -13 363.264604811 -13 c 0,51,52
 285.650283237 -13 285.650283237 -13 224.691010256 6.0126953125 c 0,53,54
 163.266255906 24.490234375 163.266255906 24.490234375 121.815429688 60.068359375 c 0,55,56
 80.568359375 95.8203125 80.568359375 95.8203125 58.703125 149.041015625 c 0,57,0
 47.8134765625 175.547851562 47.8134765625 175.547851562 42.40625 206.337890625 c 128,-1,1
210.807976267 330 m 1,58,-1
 424.891833119 330 l 1,59,60
 424.269799721 338.202148438 424.269799721 338.202148438 422.925539626 345.250976562 c 128,-1,61
 421.580235852 352.299804688 421.580235852 352.299804688 419.268484214 359.69140625 c 0,62,63
 416.34200494 369.049804688 416.34200494 369.049804688 411.743549989 377.426757812 c 128,-1,64
 407.146138719 385.803710938 407.146138719 385.803710938 400.825611442 393.311523438 c 0,65,66
 388.409991812 408.055664062 388.409991812 408.055664062 369.17287841 417.055664062 c 0,67,68
 359.786018712 421.447265625 359.786018712 421.447265625 347.62401337 423.723632812 c 128,-1,69
 335.460964347 426 335.460964347 426 320.515463918 426 c 0,70,71
 306.541629752 426 306.541629752 426 294.668723824 423.938476562 c 128,-1,72
 282.796861576 421.876953125 282.796861576 421.876953125 272.977918277 417.84375 c 0,73,74
 253.419351375 409.80859375 253.419351375 409.80859375 240.616526391 395.16796875 c 0,75,76
 227.313778592 379.954101562 227.313778592 379.954101562 219.383896451 360.012695312 c 0,77,78
 213.523632141 345.276367188 213.523632141 345.276367188 210.807976267 330 c 1,58,-1
EndSplineSet
Substitution2: "'case' Case-Sensitive Forms lookup 18 subtable" E
EndChar

StartChar: f
Encoding: 102 102 73
Width: 628
VWidth: 1177
Flags: W
LayerCount: 2
Fore
SplineSet
164.125234279 0 m 1,0,-1
 164.125234279 10 l 1,1,-1
 164.125234279 413 l 1,2,-1
 52 413 l 1,3,-1
 42 413 l 1,4,-1
 42 423 l 1,5,-1
 42 544 l 1,6,-1
 42 554 l 1,7,-1
 52 554 l 1,8,-1
 164.125234279 554 l 1,9,-1
 164.125234279 575 l 2,10,11
 164.125234279 644.094726562 164.125234279 644.094726562 185.739738577 690.513671875 c 0,12,13
 207.506786546 737.260742188 207.506786546 737.260742188 244.60603006 765.296875 c 0,14,15
 281.440657001 793.1328125 281.440657001 793.1328125 328.264300139 804.673828125 c 0,16,17
 374.217302867 816 374.217302867 816 423.403816343 816 c 0,18,19
 473.154845176 816 473.154845176 816 524.127929688 807.866210938 c 0,20,21
 574.067382812 799.62890625 574.067382812 799.62890625 614.379882812 779.990234375 c 2,22,-1
 621.401367188 776.569335938 l 1,23,-1
 619.783203125 768.927734375 l 1,24,-1
 594.783203125 650.927734375 l 1,25,-1
 592.461914062 639.971679688 l 1,26,-1
 581.837890625 643.512695312 l 2,27,28
 555.174804688 652.400390625 555.174804688 652.400390625 514.51953125 662.8125 c 0,29,30
 473.0707905 673 473.0707905 673 436.155222019 673 c 0,31,32
 415.899082795 673 415.899082795 673 397.220265888 669.673828125 c 0,33,34
 380.448763729 666.688476562 380.448763729 666.688476562 368.300268755 656.526367188 c 0,35,36
 364.294700241 653.174804688 364.294700241 653.174804688 360.779969526 648.837890625 c 128,-1,37
 357.266276523 644.500976562 357.266276523 644.500976562 354.11682045 638.887695312 c 128,-1,38
 350.967364377 633.275390625 350.967364377 633.275390625 348.380348236 626.583007812 c 0,39,40
 340.519679454 606.23828125 340.519679454 606.23828125 340.519679454 573 c 2,41,-1
 340.519679454 554 l 1,42,-1
 567 554 l 1,43,-1
 577 554 l 1,44,-1
 577 544 l 1,45,-1
 577 423 l 1,46,-1
 577 413 l 1,47,-1
 567 413 l 1,48,-1
 340.519679454 413 l 1,49,-1
 340.519679454 10 l 1,50,-1
 340.519679454 0 l 1,51,-1
 329.893508058 0 l 1,52,-1
 174.751405675 0 l 1,53,-1
 164.125234279 0 l 1,0,-1
EndSplineSet
Substitution2: "'case' Case-Sensitive Forms lookup 18 subtable" F
EndChar

StartChar: g
Encoding: 103 103 74
Width: 628
VWidth: 1177
Flags: W
LayerCount: 2
Fore
SplineSet
240.774406463 392.532226562 m 128,-1,1
 209.657587549 357.532226562 209.657587549 357.532226562 209.657587549 284 c 0,2,3
 209.657587549 219.131835938 209.657587549 219.131835938 234.677981366 185.704101562 c 0,4,5
 258.407937135 154 258.407937135 154 309.894941634 154 c 0,6,7
 318.043857916 154 318.043857916 154 325.712807028 154.62890625 c 128,-1,8
 333.381756141 155.2578125 333.381756141 155.2578125 340.483375638 156.494140625 c 128,-1,9
 347.584995136 157.73046875 347.584995136 157.73046875 354.222435858 159.578125 c 0,10,11
 370.988657436 164.245117188 370.988657436 164.245117188 386.420233463 171.842773438 c 1,12,-1
 386.420233463 424.047851562 l 1,13,14
 374.567360013 426.342773438 374.567360013 426.342773438 364.606988692 427.02734375 c 0,15,16
 357.561154852 427.51171875 357.561154852 427.51171875 350.324807727 427.755859375 c 128,-1,17
 343.088460603 428 343.088460603 428 335.804748298 428 c 0,18,0
 271.891225377 427.533203125 271.891225377 427.533203125 240.774406463 392.532226562 c 128,-1,1
556 526.733398438 m 1,19,-1
 556 73.048828125 l 2,20,21
 556 6.216796875 556 6.216796875 539.001953125 -43.994140625 c 0,22,23
 522.004882812 -95.900390625 522.004882812 -95.900390625 487.543945312 -130.09765625 c 0,24,25
 470.208984375 -147.30078125 470.208984375 -147.30078125 447.790039062 -160.122070312 c 0,26,27
 424.542888953 -172.944335938 424.542888953 -172.944335938 395.116480727 -181.327148438 c 128,-1,28
 365.689019942 -189.708984375 365.689019942 -189.708984375 331.265058822 -193.854492188 c 128,-1,29
 296.842150261 -198 296.842150261 -198 257.081712062 -198 c 0,30,31
 199.858257843 -198 199.858257843 -198 148.341796875 -187.264648438 c 0,32,33
 100.399414062 -176.666992188 100.399414062 -176.666992188 55.9677734375 -162.529296875 c 2,34,-1
 47.208984375 -159.7421875 l 1,35,-1
 49.2490234375 -150.780273438 l 1,36,-1
 77.2490234375 -27.7802734375 l 1,37,-1
 79.8076171875 -16.5439453125 l 1,38,-1
 90.5712890625 -20.6591796875 l 2,39,40
 124.198242188 -33.5166015625 124.198242188 -33.5166015625 161.494566209 -44.404296875 c 0,41,42
 180.771142388 -49.650390625 180.771142388 -49.650390625 205.532606548 -52.3251953125 c 128,-1,43
 230.295123267 -55 230.295123267 -55 260.315175097 -55 c 0,44,45
 299.455655703 -55 299.455655703 -55 324.146598371 -47.052734375 c 0,46,47
 347.940760275 -39.3935546875 347.940760275 -39.3935546875 361.176697015 -25.796875 c 0,48,49
 374.569465133 -11.275390625 374.569465133 -11.275390625 380.386961941 6.30859375 c 0,50,51
 383.393072106 15.498046875 383.393072106 15.498046875 384.906652785 25.5419921875 c 128,-1,52
 386.420233463 35.5859375 386.420233463 35.5859375 386.420233463 46.5146484375 c 2,53,-1
 386.420233463 53.85546875 l 1,54,55
 360.720938716 45.6806640625 360.720938716 45.6806640625 339.156098006 41.435546875 c 0,56,57
 311.066440449 35.90625 311.066440449 35.90625 277.560311284 35.90625 c 0,58,59
 156.280273438 35.90625 156.280273438 35.90625 97.2802734375 104.997070312 c 0,60,61
 39 173.245117188 39 173.245117188 39 293.393554688 c 0,62,63
 39 429.848632812 39 429.848632812 117.862304688 497.338867188 c 0,64,65
 157.126953125 530.94140625 157.126953125 530.94140625 214.020447015 547.662109375 c 0,66,67
 271.058650748 565 271.058650748 565 342.229571984 565 c 0,68,69
 367.164708475 565 367.164708475 565 393.097671449 563.16015625 c 128,-1,70
 419.029581864 561.319335938 419.029581864 561.319335938 445.211914062 557.643554688 c 0,71,72
 470.16796875 553.967773438 470.16796875 553.967773438 496.013671875 548.469726562 c 128,-1,73
 521.859375 543.151367188 521.859375 543.151367188 548.638671875 536.064453125 c 2,74,-1
 556 534.116210938 l 1,75,-1
 556 526.733398438 l 1,19,-1
EndSplineSet
Substitution2: "'case' Case-Sensitive Forms lookup 18 subtable" G
EndChar

StartChar: h
Encoding: 104 104 75
Width: 628
VWidth: 1177
Flags: W
LayerCount: 2
Fore
SplineSet
74 0 m 1,0,-1
 74 10 l 1,1,-1
 74 783 l 1,2,-1
 74 791.48046875 l 1,3,-1
 82.3671875 792.866210938 l 1,4,-1
 230.333159722 816.866210938 l 1,5,-1
 243 818.791015625 l 1,6,-1
 243 807 l 1,7,-1
 243 552.51171875 l 1,8,9
 258.463498264 556.471679688 258.463498264 556.471679688 276.211111111 559.797851562 c 0,10,11
 290.041276042 562.389648438 290.041276042 562.389648438 302.402929687 563.6953125 c 128,-1,12
 314.763519965 565 314.763519965 565 325.755555556 565 c 0,13,14
 359.952408854 565 359.952408854 565 388.923871528 560.328125 c 128,-1,15
 417.895334201 555.65625 417.895334201 555.65625 441.479492188 546.173828125 c 0,16,17
 463.354492188 537.02734375 463.354492188 537.02734375 480.940429688 523.798828125 c 128,-1,18
 498.525390625 510.569335938 498.525390625 510.569335938 511.571289062 493.373046875 c 0,19,20
 537.296875 459.461914062 537.296875 459.461914062 548.254882812 412.681640625 c 0,21,22
 559 366.805664062 559 366.805664062 559 310.780273438 c 2,23,-1
 559 10 l 1,24,-1
 559 0 l 1,25,-1
 549 0 l 1,26,-1
 401.977777778 0 l 1,27,-1
 391.088888889 0 l 1,28,-1
 391.088888889 10 l 1,29,-1
 391.088888889 289.33984375 l 2,30,31
 390.767751736 361.192382812 390.767751736 361.192382812 372.754296875 391.658203125 c 0,32,33
 364.477039931 405.34765625 364.477039931 405.34765625 349.115625 412.173828125 c 128,-1,34
 333.753146701 419 333.753146701 419 309.422222222 419 c 0,35,36
 304.284027778 419 304.284027778 419 299.183051215 419.936523438 c 128,-1,37
 294.082074653 420.873046875 294.082074653 420.873046875 289.012999132 422.747070312 c 128,-1,38
 283.943923611 424.62109375 283.943923611 424.62109375 278.906749132 427.434570312 c 128,-1,39
 273.870638021 430.247070312 273.870638021 430.247070312 268.860047743 434 c 0,40,41
 264.089778646 432.991210938 264.089778646 432.991210938 259.011132813 431.825195312 c 128,-1,42
 253.933550347 430.659179688 253.933550347 430.659179688 249.901258681 429.666015625 c 128,-1,43
 245.867903646 428.673828125 245.867903646 428.673828125 243 427.90234375 c 2,44,-1
 243 10 l 1,45,-1
 243 0 l 1,46,-1
 232.111111111 0 l 1,47,-1
 84 0 l 1,48,-1
 74 0 l 1,0,-1
EndSplineSet
Substitution2: "'case' Case-Sensitive Forms lookup 18 subtable" H
EndChar

